font.ufo
<glyph name="quotedbl" format="1">
  <advance width="336"/>
  <unicode hex="0022"/>
  <outline>
    <contour>
      <point x="60" y="622" type="line"/>
      <point x="60" y="404" type="line"/>
      <point x="139" y="404" type="line"/>
      <point x="139" y="622" type="line"/>
    </contour>
    <contour>
      <point x="197" y="622" type="line"/>
      <point x="197" y="404" type="line"/>
      <point x="276" y="404" type="line"/>
      <point x="276" y="622" type="line"/>
    </contour>
  </outline>
</glyph>
<glyph name="dollar" format="1">
  <advance width="646"/>
  <unicode hex="0024"/>
  <outline>
    <contour>
      <point x="361" y="611" type="line"/>
      <point x="361" y="714" type="line"/>
      <point x="278" y="714" type="line"/>
      <point x="278" y="611" type="line"/>
    </contour>
    <contour>
      <point x="361" y="-91" type="line"/>
      <point x="361" y="11" type="line"/>
      <point x="278" y="11" type="line"/>
      <point x="278" y="-91" type="line"/>
    </contour>
    <contour>
      <point x="479" y="90" type="line"/>
      <point x="479" y="64"/>
      <point x="474" y="59"/>
      <point x="448" y="59" type="curve" smooth="yes"/>
      <point x="199" y="59" type="line" smooth="yes"/>
      <point x="173" y="59"/>
      <point x="168" y="64"/>
      <point x="168" y="90" type="curve" smooth="yes"/>
      <point x="168" y="178" type="line"/>
      <point x="80" y="178" type="line"/>
      <point x="80" y="79" type="line" smooth="yes"/>
      <point x="80" y="26"/>
      <point x="106" y="0"/>
      <point x="159" y="0" type="curve" smooth="yes"/>
      <point x="487" y="0" type="line" smooth="yes"/>
      <point x="540" y="0"/>
      <point x="566" y="26"/>
      <point x="566" y="79" type="curve" smooth="yes"/>
      <point x="566" y="264" type="line" smooth="yes"/>
      <point x="566" y="317"/>
      <point x="540" y="343"/>
      <point x="487" y="343" type="curve" smooth="yes"/>
      <point x="197" y="343" type="line" smooth="yes"/>
      <point x="171" y="343"/>
      <point x="166" y="348"/>
      <point x="166" y="374" type="curve" smooth="yes"/>
      <point x="166" y="532" type="line" smooth="yes"/>
      <point x="166" y="558"/>
      <point x="171" y="563"/>
      <point x="197" y="563" type="curve" smooth="yes"/>
      <point x="444" y="563" type="line" smooth="yes"/>
      <point x="470" y="563"/>
      <point x="475" y="558"/>
      <point x="475" y="532" type="curve" smooth="yes"/>
      <point x="475" y="444" type="line"/>
      <point x="563" y="444" type="line"/>
      <point x="563" y="543" type="line" smooth="yes"/>
      <point x="563" y="596"/>
      <point x="537" y="622"/>
      <point x="484" y="622" type="curve" smooth="yes"/>
      <point x="157" y="622" type="line" smooth="yes"/>
      <point x="104" y="622"/>
      <point x="78" y="596"/>
      <point x="78" y="543" type="curve" smooth="yes"/>
      <point x="78" y="363" type="line" smooth="yes"/>
      <point x="78" y="310"/>
      <point x="104" y="284"/>
      <point x="157" y="284" type="curve" smooth="yes"/>
      <point x="448" y="284" type="line" smooth="yes"/>
      <point x="474" y="284"/>
      <point x="479" y="279"/>
      <point x="479" y="253" type="curve" smooth="yes"/>
    </contour>
  </outline>
</glyph>
<glyph name="quotesingle" format="1">
  <advance width="204"/>
  <unicode hex="0027"/>
  <outline>
    <contour>
      <point x="60" y="622" type="line"/>
      <point x="60" y="404" type="line"/>
      <point x="144" y="404" type="line"/>
      <point x="144" y="622" type="line"/>
    </contour>
  </outline>
</glyph>
<glyph name="parenleft" format="1">
  <advance width="336"/>
  <unicode hex="0028"/>
  <outline>
    <contour>
      <point x="100" y="342" type="line"/>
      <point x="100" y="618"/>
      <point x="200" y="717"/>
      <point x="352" y="717" type="curve" smooth="yes"/>
      <point x="386" y="717" type="line"/>
      <point x="386" y="658" type="line"/>
      <point x="356" y="658" type="line" smooth="yes"/>
      <point x="246" y="651"/>
      <point x="186" y="555"/>
      <point x="186" y="348" type="curve" smooth="yes"/>
      <point x="186" y="150" type="line" smooth="yes"/>
      <point x="186" y="-58"/>
      <point x="246" y="-153"/>
      <point x="356" y="-160" type="curve" smooth="yes"/>
      <point x="386" y="-160" type="line"/>
      <point x="386" y="-219" type="line"/>
      <point x="352" y="-219" type="line" smooth="yes"/>
      <point x="200" y="-219"/>
      <point x="100" y="-120"/>
      <point x="100" y="156" type="curve" smooth="yes"/>
    </contour>
  </outline>
</glyph>
<glyph name="hyphen" format="1">
  <advance width="400"/>
  <unicode hex="002D"/>
  <outline>
    <contour>
      <point x="60" y="242" type="line"/>
      <point x="340" y="242" type="line"/>
      <point x="340" y="301" type="line"/>
      <point x="60" y="301" type="line"/>
    </contour>
  </outline>
</glyph>
<glyph name="slash" format="1">
  <advance width="386"/>
  <unicode hex="002F"/>
  <outline>
    <contour>
      <point x="390" y="699" type="line"/>
      <point x="-21" y="-136" type="line"/>
      <point x="66" y="-136" type="line"/>
      <point x="477" y="699" type="line"/>
    </contour>
  </outline>
</glyph>
<glyph name="two" format="1">
  <advance width="618"/>
  <unicode hex="0032"/>
  <outline>
    <contour>
      <point x="147" y="532" type="line"/>
      <point x="147" y="558"/>
      <point x="152" y="563"/>
      <point x="178" y="563" type="curve" smooth="yes"/>
      <point x="435" y="563" type="line" smooth="yes"/>
      <point x="461" y="563"/>
      <point x="466" y="558"/>
      <point x="466" y="532" type="curve" smooth="yes"/>
      <point x="466" y="502" type="line" smooth="yes"/>
      <point x="466" y="441"/>
      <point x="444" y="409"/>
      <point x="402" y="370" type="curve" smooth="yes"/>
      <point x="61" y="58" type="line"/>
      <point x="61" y="0" type="line"/>
      <point x="558" y="0" type="line"/>
      <point x="558" y="59" type="line"/>
      <point x="181" y="59" type="line"/>
      <point x="493" y="345" type="line" smooth="yes"/>
      <point x="546" y="394"/>
      <point x="554" y="427"/>
      <point x="554" y="498" type="curve" smooth="yes"/>
      <point x="554" y="543" type="line" smooth="yes"/>
      <point x="554" y="596"/>
      <point x="528" y="622"/>
      <point x="475" y="622" type="curve" smooth="yes"/>
      <point x="139" y="622" type="line" smooth="yes"/>
      <point x="86" y="622"/>
      <point x="60" y="596"/>
      <point x="60" y="543" type="curve" smooth="yes"/>
      <point x="60" y="410" type="line"/>
      <point x="147" y="410" type="line"/>
    </contour>
  </outline>
</glyph>
<glyph name="three" format="1">
  <advance width="656"/>
  <unicode hex="0033"/>
  <outline>
    <contour>
      <point x="167" y="532" type="line"/>
      <point x="167" y="558"/>
      <point x="172" y="563"/>
      <point x="198" y="563" type="curve" smooth="yes"/>
      <point x="458" y="563" type="line" smooth="yes"/>
      <point x="484" y="563"/>
      <point x="489" y="558"/>
      <point x="489" y="532" type="curve" smooth="yes"/>
      <point x="489" y="376" type="line" smooth="yes"/>
      <point x="489" y="350"/>
      <point x="484" y="345"/>
      <point x="458" y="345" type="curve" smooth="yes"/>
      <point x="272" y="345" type="line"/>
      <point x="272" y="285" type="line"/>
      <point x="458" y="285" type="line" smooth="yes"/>
      <point x="484" y="285"/>
      <point x="489" y="280"/>
      <point x="489" y="254" type="curve" smooth="yes"/>
      <point x="489" y="90" type="line" smooth="yes"/>
      <point x="489" y="64"/>
      <point x="484" y="59"/>
      <point x="458" y="59" type="curve" smooth="yes"/>
      <point x="198" y="59" type="line" smooth="yes"/>
      <point x="172" y="59"/>
      <point x="167" y="64"/>
      <point x="167" y="90" type="curve" smooth="yes"/>
      <point x="167" y="192" type="line"/>
      <point x="80" y="192" type="line"/>
      <point x="80" y="79" type="line" smooth="yes"/>
      <point x="80" y="26"/>
      <point x="106" y="0"/>
      <point x="159" y="0" type="curve" smooth="yes"/>
      <point x="497" y="0" type="line" smooth="yes"/>
      <point x="550" y="0"/>
      <point x="576" y="26"/>
      <point x="576" y="79" type="curve" smooth="yes"/>
      <point x="576" y="266" type="line" smooth="yes"/>
      <point x="576" y="297"/>
      <point x="561" y="312"/>
      <point x="535" y="316" type="curve"/>
      <point x="561" y="318"/>
      <point x="576" y="336"/>
      <point x="576" y="367" type="curve" smooth="yes"/>
      <point x="576" y="543" type="line" smooth="yes"/>
      <point x="576" y="596"/>
      <point x="550" y="622"/>
      <point x="497" y="622" type="curve" smooth="yes"/>
      <point x="159" y="622" type="line" smooth="yes"/>
      <point x="106" y="622"/>
      <point x="80" y="596"/>
      <point x="80" y="543" type="curve" smooth="yes"/>
      <point x="80" y="429" type="line"/>
      <point x="167" y="429" type="line"/>
    </contour>
  </outline>
</glyph>
<glyph name="six" format="1">
  <advance width="652"/>
  <unicode hex="0036"/>
  <outline>
    <contour>
      <point x="485" y="194" type="line"/>
      <point x="485" y="90" type="line" smooth="yes"/>
      <point x="485" y="64"/>
      <point x="480" y="59"/>
      <point x="454" y="59" type="curve" smooth="yes"/>
      <point x="209" y="59" type="line" smooth="yes"/>
      <point x="183" y="59"/>
      <point x="178" y="64"/>
      <point x="178" y="90" type="curve" smooth="yes"/>
      <point x="178" y="532" type="line" smooth="yes"/>
      <point x="178" y="558"/>
      <point x="183" y="563"/>
      <point x="209" y="563" type="curve" smooth="yes"/>
      <point x="452" y="563" type="line" smooth="yes"/>
      <point x="478" y="563"/>
      <point x="483" y="558"/>
      <point x="483" y="532" type="curve" smooth="yes"/>
      <point x="483" y="427" type="line"/>
      <point x="569" y="427" type="line"/>
      <point x="569" y="543" type="line" smooth="yes"/>
      <point x="569" y="596"/>
      <point x="543" y="622"/>
      <point x="490" y="622" type="curve" smooth="yes"/>
      <point x="169" y="622" type="line" smooth="yes"/>
      <point x="116" y="622"/>
      <point x="90" y="596"/>
      <point x="90" y="543" type="curve" smooth="yes"/>
      <point x="90" y="79" type="line" smooth="yes"/>
      <point x="90" y="26"/>
      <point x="116" y="0"/>
      <point x="169" y="0" type="curve" smooth="yes"/>
      <point x="493" y="0" type="line" smooth="yes"/>
      <point x="546" y="0"/>
      <point x="572" y="26"/>
      <point x="572" y="79" type="curve" smooth="yes"/>
      <point x="572" y="194" type="line"/>
    </contour>
    <contour>
      <point x="572" y="158" type="line"/>
      <point x="572" y="275" type="line" smooth="yes"/>
      <point x="572" y="328"/>
      <point x="546" y="354"/>
      <point x="493" y="354" type="curve" smooth="yes"/>
      <point x="154" y="354" type="line"/>
      <point x="154" y="295" type="line"/>
      <point x="454" y="295" type="line" smooth="yes"/>
      <point x="480" y="295"/>
      <point x="485" y="290"/>
      <point x="485" y="264" type="curve" smooth="yes"/>
      <point x="485" y="158" type="line"/>
    </contour>
  </outline>
</glyph>
<glyph name="eight" format="1">
  <advance width="663"/>
  <unicode hex="0038"/>
  <outline>
    <contour>
      <point x="169" y="622" type="line"/>
      <point x="116" y="622"/>
      <point x="90" y="596"/>
      <point x="90" y="543" type="curve" smooth="yes"/>
      <point x="90" y="363" type="line" smooth="yes"/>
      <point x="90" y="332"/>
      <point x="105" y="314"/>
      <point x="131" y="312" type="curve"/>
      <point x="105" y="308"/>
      <point x="90" y="293"/>
      <point x="90" y="262" type="curve" smooth="yes"/>
      <point x="90" y="79" type="line" smooth="yes"/>
      <point x="90" y="26"/>
      <point x="116" y="0"/>
      <point x="169" y="0" type="curve" smooth="yes"/>
      <point x="494" y="0" type="line" smooth="yes"/>
      <point x="547" y="0"/>
      <point x="573" y="26"/>
      <point x="573" y="79" type="curve" smooth="yes"/>
      <point x="573" y="262" type="line" smooth="yes"/>
      <point x="573" y="293"/>
      <point x="558" y="308"/>
      <point x="533" y="312" type="curve"/>
      <point x="558" y="314"/>
      <point x="573" y="332"/>
      <point x="573" y="363" type="curve" smooth="yes"/>
      <point x="573" y="543" type="line" smooth="yes"/>
      <point x="573" y="596"/>
      <point x="547" y="622"/>
      <point x="494" y="622" type="curve" smooth="yes"/>
    </contour>
    <contour>
      <point x="177" y="252" type="line"/>
      <point x="177" y="278"/>
      <point x="182" y="283"/>
      <point x="208" y="283" type="curve" smooth="yes"/>
      <point x="456" y="283" type="line" smooth="yes"/>
      <point x="482" y="283"/>
      <point x="487" y="278"/>
      <point x="487" y="252" type="curve" smooth="yes"/>
      <point x="487" y="90" type="line" smooth="yes"/>
      <point x="487" y="64"/>
      <point x="482" y="59"/>
      <point x="456" y="59" type="curve" smooth="yes"/>
      <point x="208" y="59" type="line" smooth="yes"/>
      <point x="182" y="59"/>
      <point x="177" y="64"/>
      <point x="177" y="90" type="curve" smooth="yes"/>
    </contour>
    <contour>
      <point x="487" y="374" type="line"/>
      <point x="487" y="348"/>
      <point x="482" y="343"/>
      <point x="456" y="343" type="curve" smooth="yes"/>
      <point x="208" y="343" type="line" smooth="yes"/>
      <point x="182" y="343"/>
      <point x="177" y="348"/>
      <point x="177" y="374" type="curve" smooth="yes"/>
      <point x="177" y="532" type="line" smooth="yes"/>
      <point x="177" y="558"/>
      <point x="182" y="563"/>
      <point x="208" y="563" type="curve" smooth="yes"/>
      <point x="456" y="563" type="line" smooth="yes"/>
      <point x="482" y="563"/>
      <point x="487" y="558"/>
      <point x="487" y="532" type="curve" smooth="yes"/>
    </contour>
  </outline>
</glyph>
<glyph name="nine" format="1">
  <advance width="657"/>
  <unicode hex="0039"/>
  <outline>
    <contour>
      <point x="177" y="185" type="line"/>
      <point x="90" y="185" type="line"/>
      <point x="90" y="79" type="line" smooth="yes"/>
      <point x="90" y="26"/>
      <point x="116" y="0"/>
      <point x="169" y="0" type="curve" smooth="yes"/>
      <point x="488" y="0" type="line" smooth="yes"/>
      <point x="541" y="0"/>
      <point x="567" y="26"/>
      <point x="567" y="79" type="curve" smooth="yes"/>
      <point x="567" y="543" type="line" smooth="yes"/>
      <point x="567" y="596"/>
      <point x="541" y="622"/>
      <point x="488" y="622" type="curve" smooth="yes"/>
      <point x="226" y="622" type="line"/>
      <point x="226" y="563" type="line"/>
      <point x="448" y="563" type="line" smooth="yes"/>
      <point x="474" y="563"/>
      <point x="479" y="558"/>
      <point x="479" y="532" type="curve" smooth="yes"/>
      <point x="479" y="90" type="line" smooth="yes"/>
      <point x="479" y="64"/>
      <point x="474" y="59"/>
      <point x="448" y="59" type="curve" smooth="yes"/>
      <point x="208" y="59" type="line" smooth="yes"/>
      <point x="182" y="59"/>
      <point x="177" y="64"/>
      <point x="177" y="90" type="curve" smooth="yes"/>
    </contour>
    <contour>
      <point x="173" y="532" type="line"/>
      <point x="173" y="558"/>
      <point x="178" y="563"/>
      <point x="204" y="563" type="curve" smooth="yes"/>
      <point x="235" y="563" type="line"/>
      <point x="235" y="622" type="line"/>
      <point x="164" y="622" type="line" smooth="yes"/>
      <point x="111" y="622"/>
      <point x="85" y="596"/>
      <point x="85" y="543" type="curve" smooth="yes"/>
      <point x="85" y="338" type="line" smooth="yes"/>
      <point x="85" y="285"/>
      <point x="111" y="259"/>
      <point x="164" y="259" type="curve" smooth="yes"/>
      <point x="503" y="259" type="line"/>
      <point x="503" y="318" type="line"/>
      <point x="204" y="318" type="line" smooth="yes"/>
      <point x="178" y="318"/>
      <point x="173" y="323"/>
      <point x="173" y="349" type="curve" smooth="yes"/>
    </contour>
  </outline>
</glyph>
<glyph name="colon" format="1">
  <advance width="219"/>
  <unicode hex="003A"/>
  <outline>
    <contour>
      <point x="60" y="34" type="line"/>
      <point x="159" y="34" type="line"/>
      <point x="159" y="149" type="line"/>
      <point x="60" y="149" type="line"/>
    </contour>
    <contour>
      <point x="60" y="336" type="line"/>
      <point x="159" y="336" type="line"/>
      <point x="159" y="451" type="line"/>
      <point x="60" y="451" type="line"/>
    </contour>
  </outline>
</glyph>
<glyph name="semicolon" format="1">
  <advance width="209"/>
  <unicode hex="003B"/>
  <outline>
    <contour>
      <point x="60" y="118" type="line"/>
      <point x="159" y="118" type="line"/>
      <point x="159" y="56" type="line"/>
      <point x="93" y="-137" type="line"/>
      <point x="60" y="-137" type="line"/>
    </contour>
    <contour>
      <point x="60" y="369" type="line"/>
      <point x="159" y="369" type="line"/>
      <point x="159" y="485" type="line"/>
      <point x="60" y="485" type="line"/>
    </contour>
  </outline>
</glyph>
<glyph name="equal" format="1">
  <advance width="680"/>
  <unicode hex="003D"/>
  <outline>
    <contour>
      <point x="80" y="364" type="line"/>
      <point x="600" y="364" type="line"/>
      <point x="600" y="434" type="line"/>
      <point x="80" y="434" type="line"/>
    </contour>
    <contour>
      <point x="80" y="187" type="line"/>
      <point x="600" y="187" type="line"/>
      <point x="600" y="257" type="line"/>
      <point x="80" y="257" type="line"/>
    </contour>
  </outline>
</glyph>
<glyph name="question" format="1">
  <advance width="575"/>
  <unicode hex="003F"/>
  <outline>
    <contour>
      <point x="428" y="357" type="line"/>
      <point x="428" y="333"/>
      <point x="425" y="325"/>
      <point x="400" y="325" type="curve" smooth="yes"/>
      <point x="263" y="325" type="line"/>
      <point x="263" y="265" type="line"/>
      <point x="436" y="265" type="line" smooth="yes"/>
      <point x="491" y="265"/>
      <point x="515" y="296"/>
      <point x="515" y="343" type="curve" smooth="yes"/>
      <point x="515" y="545" type="line" smooth="yes"/>
      <point x="515" y="592"/>
      <point x="491" y="622"/>
      <point x="436" y="622" type="curve" smooth="yes"/>
      <point x="155" y="622" type="line"/>
      <point x="155" y="564" type="line"/>
      <point x="400" y="564" type="line" smooth="yes"/>
      <point x="425" y="564"/>
      <point x="428" y="555"/>
      <point x="428" y="531" type="curve" smooth="yes"/>
    </contour>
    <contour>
      <point x="224" y="325" type="line"/>
      <point x="231" y="198" type="line"/>
      <point x="303" y="198" type="line"/>
      <point x="311" y="325" type="line"/>
    </contour>
    <contour>
      <point x="217" y="0" type="line"/>
      <point x="316" y="0" type="line"/>
      <point x="316" y="116" type="line"/>
      <point x="217" y="116" type="line"/>
    </contour>
    <contour>
      <point x="117" y="531" type="line"/>
      <point x="117" y="555"/>
      <point x="120" y="564"/>
      <point x="146" y="564" type="curve" smooth="yes"/>
      <point x="388" y="564" type="line"/>
      <point x="388" y="622" type="line"/>
      <point x="109" y="622" type="line" smooth="yes"/>
      <point x="53" y="622"/>
      <point x="30" y="592"/>
      <point x="30" y="545" type="curve" smooth="yes"/>
      <point x="30" y="435" type="line"/>
      <point x="117" y="435" type="line"/>
    </contour>
  </outline>
</glyph>
<glyph name="A" format="1">
  <advance width="682"/>
  <unicode hex="0041"/>
  <outline>
    <contour>
      <point x="545" y="182" type="line"/>
      <point x="137" y="182" type="line"/>
      <point x="137" y="123" type="line"/>
      <point x="545" y="123" type="line"/>
    </contour>
    <contour>
      <point x="647" y="0" type="line"/>
      <point x="404" y="622" type="line"/>
      <point x="277" y="622" type="line"/>
      <point x="35" y="0" type="line"/>
      <point x="123" y="0" type="line"/>
      <point x="340" y="562" type="line"/>
      <point x="560" y="0" type="line"/>
    </contour>
  </outline>
</glyph>
<glyph name="B" format="1">
  <advance width="693"/>
  <unicode hex="0042"/>
  <outline>
    <contour>
      <point x="100" y="622" type="line"/>
      <point x="100" y="0" type="line"/>
      <point x="524" y="0" type="line" smooth="yes"/>
      <point x="577" y="0"/>
      <point x="603" y="26"/>
      <point x="603" y="79" type="curve" smooth="yes"/>
      <point x="603" y="261" type="line" smooth="yes"/>
      <point x="603" y="292"/>
      <point x="588" y="306"/>
      <point x="562" y="310" type="curve"/>
      <point x="588" y="312"/>
      <point x="603" y="331"/>
      <point x="603" y="362" type="curve" smooth="yes"/>
      <point x="603" y="543" type="line" smooth="yes"/>
      <point x="603" y="596"/>
      <point x="577" y="622"/>
      <point x="524" y="622" type="curve" smooth="yes"/>
    </contour>
    <contour>
      <point x="517" y="89" type="line"/>
      <point x="517" y="64"/>
      <point x="511" y="59"/>
      <point x="485" y="59" type="curve" smooth="yes"/>
      <point x="188" y="59" type="line"/>
      <point x="188" y="282" type="line"/>
      <point x="486" y="282" type="line" smooth="yes"/>
      <point x="512" y="282"/>
      <point x="517" y="277"/>
      <point x="517" y="251" type="curve" smooth="yes"/>
    </contour>
    <contour>
      <point x="517" y="372" type="line"/>
      <point x="517" y="346"/>
      <point x="512" y="341"/>
      <point x="486" y="341" type="curve" smooth="yes"/>
      <point x="188" y="341" type="line"/>
      <point x="188" y="563" type="line"/>
      <point x="486" y="563" type="line" smooth="yes"/>
      <point x="512" y="563"/>
      <point x="517" y="558"/>
      <point x="517" y="532" type="curve" smooth="yes"/>
    </contour>
  </outline>
</glyph>
<glyph name="D" format="1">
  <advance width="695"/>
  <unicode hex="0044"/>
  <outline>
    <contour>
      <point x="517" y="394" type="line"/>
      <point x="605" y="394" type="line"/>
      <point x="605" y="543" type="line" smooth="yes"/>
      <point x="605" y="596"/>
      <point x="579" y="622"/>
      <point x="526" y="622" type="curve" smooth="yes"/>
      <point x="144" y="622" type="line"/>
      <point x="144" y="563" type="line"/>
      <point x="486" y="563" type="line" smooth="yes"/>
      <point x="512" y="563"/>
      <point x="517" y="558"/>
      <point x="517" y="532" type="curve" smooth="yes"/>
    </contour>
    <contour>
      <point x="517" y="90" type="line"/>
      <point x="517" y="64"/>
      <point x="512" y="59"/>
      <point x="486" y="59" type="curve" smooth="yes"/>
      <point x="144" y="59" type="line"/>
      <point x="144" y="0" type="line"/>
      <point x="526" y="0" type="line" smooth="yes"/>
      <point x="579" y="0"/>
      <point x="605" y="26"/>
      <point x="605" y="79" type="curve" smooth="yes"/>
      <point x="605" y="417" type="line"/>
      <point x="517" y="417" type="line"/>
    </contour>
    <contour>
      <point x="100" y="622" type="line"/>
      <point x="100" y="0" type="line"/>
      <point x="188" y="0" type="line"/>
      <point x="188" y="622" type="line"/>
    </contour>
  </outline>
</glyph>
<glyph name="F" format="1">
  <advance width="554"/>
  <unicode hex="0046"/>
  <outline>
    <contour>
      <point x="100" y="622" type="line"/>
      <point x="100" y="0" type="line"/>
      <point x="189" y="0" type="line"/>
      <point x="189" y="622" type="line"/>
    </contour>
    <contour>
      <point x="485" y="324" type="line"/>
      <point x="151" y="324" type="line"/>
      <point x="151" y="265" type="line"/>
      <point x="485" y="265" type="line"/>
    </contour>
    <contour>
      <point x="524" y="622" type="line"/>
      <point x="149" y="622" type="line"/>
      <point x="149" y="563" type="line"/>
      <point x="524" y="563" type="line"/>
    </contour>
  </outline>
</glyph>
<glyph name="G" format="1">
  <advance width="665"/>
  <unicode hex="0047"/>
  <outline>
    <contour>
      <point x="178" y="532" type="line"/>
      <point x="178" y="558"/>
      <point x="183" y="563"/>
      <point x="209" y="563" type="curve" smooth="yes"/>
      <point x="244" y="563" type="line"/>
      <point x="244" y="622" type="line"/>
      <point x="169" y="622" type="line" smooth="yes"/>
      <point x="116" y="622"/>
      <point x="90" y="596"/>
      <point x="90" y="543" type="curve" smooth="yes"/>
      <point x="90" y="79" type="line" smooth="yes"/>
      <point x="90" y="26"/>
      <point x="116" y="0"/>
      <point x="169" y="0" type="curve" smooth="yes"/>
      <point x="238" y="0" type="line"/>
      <point x="238" y="59" type="line"/>
      <point x="209" y="59" type="line" smooth="yes"/>
      <point x="183" y="59"/>
      <point x="178" y="64"/>
      <point x="178" y="90" type="curve" smooth="yes"/>
    </contour>
    <contour>
      <point x="585" y="320" type="line"/>
      <point x="329" y="320" type="line"/>
      <point x="329" y="261" type="line"/>
      <point x="585" y="261" type="line"/>
    </contour>
    <contour>
      <point x="497" y="434" type="line"/>
      <point x="585" y="434" type="line"/>
      <point x="585" y="543" type="line" smooth="yes"/>
      <point x="585" y="596"/>
      <point x="559" y="622"/>
      <point x="506" y="622" type="curve" smooth="yes"/>
      <point x="229" y="622" type="line"/>
      <point x="229" y="563" type="line"/>
      <point x="466" y="563" type="line" smooth="yes"/>
      <point x="492" y="563"/>
      <point x="497" y="558"/>
      <point x="497" y="532" type="curve" smooth="yes"/>
    </contour>
    <contour>
      <point x="498" y="90" type="line"/>
      <point x="498" y="64"/>
      <point x="493" y="59"/>
      <point x="467" y="59" type="curve" smooth="yes"/>
      <point x="229" y="59" type="line"/>
      <point x="229" y="0" type="line"/>
      <point x="506" y="0" type="line" smooth="yes"/>
      <point x="559" y="0"/>
      <point x="585" y="26"/>
      <point x="585" y="79" type="curve" smooth="yes"/>
      <point x="585" y="279" type="line"/>
      <point x="498" y="279" type="line"/>
    </contour>
  </outline>
</glyph>
<glyph name="J" format="1">
  <advance width="591"/>
  <unicode hex="004A"/>
  <outline>
    <contour>
      <point x="40" y="218" type="line"/>
      <point x="40" y="79" type="line" smooth="yes"/>
      <point x="40" y="26"/>
      <point x="66" y="0"/>
      <point x="119" y="0" type="curve" smooth="yes"/>
      <point x="422" y="0" type="line" smooth="yes"/>
      <point x="475" y="0"/>
      <point x="501" y="26"/>
      <point x="501" y="79" type="curve" smooth="yes"/>
      <point x="501" y="622" type="line"/>
      <point x="413" y="622" type="line"/>
      <point x="413" y="90" type="line" smooth="yes"/>
      <point x="413" y="64"/>
      <point x="408" y="59"/>
      <point x="382" y="59" type="curve" smooth="yes"/>
      <point x="159" y="59" type="line" smooth="yes"/>
      <point x="133" y="59"/>
      <point x="128" y="64"/>
      <point x="128" y="90" type="curve" smooth="yes"/>
      <point x="128" y="218" type="line"/>
    </contour>
  </outline>
</glyph>
<glyph name="K" format="1">
  <advance width="667"/>
  <unicode hex="004B"/>
  <outline>
    <contour>
      <point x="523" y="622" type="line"/>
      <point x="213" y="318" type="line"/>
      <point x="534" y="0" type="line"/>
      <point x="645" y="0" type="line"/>
      <point x="320" y="318" type="line"/>
      <point x="631" y="622" type="line"/>
    </contour>
    <contour>
      <point x="100" y="622" type="line"/>
      <point x="100" y="0" type="line"/>
      <point x="186" y="0" type="line"/>
      <point x="186" y="622" type="line"/>
    </contour>
  </outline>
</glyph>
<glyph name="Q" format="1">
  <advance width="625"/>
  <unicode hex="0051"/>
  <outline>
    <contour>
      <point x="288" y="38" type="line"/>
      <point x="445" y="-97" type="line"/>
      <point x="554" y="-97" type="line"/>
      <point x="394" y="38" type="line"/>
    </contour>
    <contour>
      <point x="555" y="543" type="line"/>
      <point x="555" y="596"/>
      <point x="529" y="622"/>
      <point x="476" y="622" type="curve" smooth="yes"/>
      <point x="149" y="622" type="line" smooth="yes"/>
      <point x="96" y="622"/>
      <point x="70" y="596"/>
      <point x="70" y="543" type="curve" smooth="yes"/>
      <point x="70" y="79" type="line" smooth="yes"/>
      <point x="70" y="26"/>
      <point x="96" y="0"/>
      <point x="149" y="0" type="curve" smooth="yes"/>
      <point x="476" y="0" type="line" smooth="yes"/>
      <point x="529" y="0"/>
      <point x="555" y="26"/>
      <point x="555" y="79" type="curve" smooth="yes"/>
    </contour>
    <contour>
      <point x="469" y="90" type="line"/>
      <point x="469" y="64"/>
      <point x="464" y="59"/>
      <point x="438" y="59" type="curve" smooth="yes"/>
      <point x="188" y="59" type="line" smooth="yes"/>
      <point x="162" y="59"/>
      <point x="157" y="64"/>
      <point x="157" y="90" type="curve" smooth="yes"/>
      <point x="157" y="532" type="line" smooth="yes"/>
      <point x="157" y="558"/>
      <point x="162" y="563"/>
      <point x="188" y="563" type="curve" smooth="yes"/>
      <point x="438" y="563" type="line" smooth="yes"/>
      <point x="464" y="563"/>
      <point x="469" y="558"/>
      <point x="469" y="532" type="curve" smooth="yes"/>
    </contour>
  </outline>
</glyph>
<glyph name="V" format="1">
  <advance width="688"/>
  <unicode hex="0056"/>
  <outline>
    <contour>
      <point x="563" y="622" type="line"/>
      <point x="343" y="60" type="line"/>
      <point x="126" y="622" type="line"/>
      <point x="38" y="622" type="line"/>
      <point x="280" y="0" type="line"/>
      <point x="407" y="0" type="line"/>
      <point x="650" y="622" type="line"/>
    </contour>
  </outline>
</glyph>
<glyph name="Z" format="1">
  <advance width="628"/>
  <unicode hex="005A"/>
  <outline>
    <contour>
      <point x="568" y="622" type="line"/>
      <point x="70" y="622" type="line"/>
      <point x="70" y="563" type="line"/>
      <point x="568" y="563" type="line"/>
    </contour>
    <contour>
      <point x="468" y="563" type="line"/>
      <point x="60" y="59" type="line"/>
      <point x="160" y="59" type="line"/>
      <point x="568" y="563" type="line"/>
    </contour>
    <contour>
      <point x="558" y="59" type="line"/>
      <point x="60" y="59" type="line"/>
      <point x="60" y="0" type="line"/>
      <point x="558" y="0" type="line"/>
    </contour>
  </outline>
</glyph>
<glyph name="backslash" format="1">
  <advance width="376"/>
  <unicode hex="005C"/>
  <outline>
    <contour>
      <point x="-91" y="699" type="line"/>
      <point x="320" y="-136" type="line"/>
      <point x="407" y="-136" type="line"/>
      <point x="-4" y="699" type="line"/>
    </contour>
  </outline>
</glyph>
<glyph name="bracketright" format="1">
  <advance width="317"/>
  <unicode hex="005D"/>
  <outline>
    <contour>
      <point x="173" y="720" type="line"/>
      <point x="-40" y="720" type="line"/>
      <point x="-40" y="661" type="line"/>
      <point x="173" y="661" type="line"/>
    </contour>
    <contour>
      <point x="129" y="720" type="line"/>
      <point x="129" y="-220" type="line"/>
      <point x="217" y="-220" type="line"/>
      <point x="217" y="720" type="line"/>
    </contour>
    <contour>
      <point x="183" y="-161" type="line"/>
      <point x="-40" y="-161" type="line"/>
      <point x="-40" y="-220" type="line"/>
      <point x="183" y="-220" type="line"/>
    </contour>
  </outline>
</glyph>
<glyph name="underscore" format="1">
  <advance width="573"/>
  <unicode hex="005F"/>
  <outline>
    <contour>
      <point x="0" y="-59" type="line"/>
      <point x="573" y="-59" type="line"/>
      <point x="573" y="0" type="line"/>
      <point x="0" y="0" type="line"/>
    </contour>
  </outline>
</glyph>
<glyph name="grave" format="1">
  <advance width="431"/>
  <unicode hex="0060"/>
  <outline>
    <contour>
      <point x="280" y="649" type="line"/>
      <point x="170" y="649" type="line"/>
      <point x="332" y="506" type="line"/>
      <point x="420" y="506" type="line"/>
    </contour>
  </outline>
</glyph>
<glyph name="i" format="1">
  <advance width="286"/>
  <unicode hex="0069"/>
  <outline>
    <contour>
      <point x="186" y="0" type="line"/>
      <point x="186" y="485" type="line"/>
      <point x="100" y="485" type="line"/>
      <point x="100" y="0" type="line"/>
    </contour>
    <contour>
      <point x="98" y="584" type="line"/>
      <point x="189" y="584" type="line"/>
      <point x="189" y="670" type="line"/>
      <point x="98" y="670" type="line"/>
    </contour>
  </outline>
</glyph>
<glyph name="m" format="1">
  <advance width="964"/>
  <unicode hex="006D"/>
  <outline>
    <contour>
      <point x="537" y="0" type="line"/>
      <point x="537" y="406" type="line" smooth="yes"/>
      <point x="537" y="459"/>
      <point x="511" y="485"/>
      <point x="458" y="485" type="curve" smooth="yes"/>
      <point x="231" y="485" type="line" smooth="yes"/>
      <point x="193" y="485"/>
      <point x="171" y="467"/>
      <point x="171" y="421" type="curve" smooth="yes"/>
      <point x="171" y="358" type="line"/>
      <point x="176" y="358" type="line"/>
      <point x="176" y="391" type="line" smooth="yes"/>
      <point x="176" y="417"/>
      <point x="186" y="426"/>
      <point x="210" y="426" type="curve" smooth="yes"/>
      <point x="420" y="426" type="line" smooth="yes"/>
      <point x="446" y="426"/>
      <point x="451" y="421"/>
      <point x="451" y="395" type="curve" smooth="yes"/>
      <point x="451" y="0" type="line"/>
    </contour>
    <contour>
      <point x="884" y="0" type="line"/>
      <point x="884" y="406" type="line" smooth="yes"/>
      <point x="884" y="459"/>
      <point x="858" y="485"/>
      <point x="805" y="485" type="curve" smooth="yes"/>
      <point x="593" y="485" type="line" smooth="yes"/>
      <point x="553" y="485"/>
      <point x="528" y="466"/>
      <point x="528" y="420" type="curve" smooth="yes"/>
      <point x="528" y="357" type="line"/>
      <point x="537" y="357" type="line"/>
      <point x="537" y="390" type="line" smooth="yes"/>
      <point x="537" y="416"/>
      <point x="547" y="426"/>
      <point x="572" y="426" type="curve" smooth="yes"/>
      <point x="767" y="426" type="line" smooth="yes"/>
      <point x="793" y="426"/>
      <point x="798" y="421"/>
      <point x="798" y="395" type="curve" smooth="yes"/>
      <point x="798" y="0" type="line"/>
    </contour>
    <contour>
      <point x="176" y="0" type="line"/>
      <point x="176" y="485" type="line"/>
      <point x="90" y="485" type="line"/>
      <point x="90" y="0" type="line"/>
    </contour>
  </outline>
</glyph>
<glyph name="p" format="1">
  <advance width="637"/>
  <unicode hex="0070"/>
  <outline>
    <contour>
      <point x="557" y="225" type="line"/>
      <point x="557" y="406" type="line" smooth="yes"/>
      <point x="557" y="459"/>
      <point x="531" y="485"/>
      <point x="478" y="485" type="curve" smooth="yes"/>
      <point x="231" y="485" type="line" smooth="yes"/>
      <point x="193" y="485"/>
      <point x="171" y="467"/>
      <point x="171" y="421" type="curve" smooth="yes"/>
      <point x="171" y="357" type="line"/>
      <point x="176" y="357" type="line"/>
      <point x="176" y="391" type="line" smooth="yes"/>
      <point x="176" y="417"/>
      <point x="186" y="426"/>
      <point x="210" y="426" type="curve" smooth="yes"/>
      <point x="440" y="426" type="line" smooth="yes"/>
      <point x="466" y="426"/>
      <point x="471" y="421"/>
      <point x="471" y="395" type="curve" smooth="yes"/>
      <point x="471" y="225" type="line"/>
    </contour>
    <contour>
      <point x="176" y="-141" type="line"/>
      <point x="176" y="421" type="line"/>
      <point x="176" y="432" type="line"/>
      <point x="176" y="485" type="line"/>
      <point x="90" y="485" type="line"/>
      <point x="90" y="-141" type="line"/>
    </contour>
    <contour>
      <point x="471" y="261" type="line"/>
      <point x="471" y="90" type="line" smooth="yes"/>
      <point x="471" y="64"/>
      <point x="466" y="59"/>
      <point x="440" y="59" type="curve" smooth="yes"/>
      <point x="210" y="59" type="line" smooth="yes"/>
      <point x="186" y="59"/>
      <point x="176" y="68"/>
      <point x="176" y="94" type="curve" smooth="yes"/>
      <point x="176" y="118" type="line"/>
      <point x="171" y="117" type="line"/>
      <point x="171" y="64" type="line" smooth="yes"/>
      <point x="171" y="18"/>
      <point x="193" y="0"/>
      <point x="231" y="0" type="curve" smooth="yes"/>
      <point x="478" y="0" type="line" smooth="yes"/>
      <point x="531" y="0"/>
      <point x="557" y="26"/>
      <point x="557" y="79" type="curve" smooth="yes"/>
      <point x="557" y="261" type="line"/>
    </contour>
  </outline>
</glyph>
<glyph name="q" format="1">
  <advance width="630"/>
  <unicode hex="0071"/>
  <outline>
    <contour>
      <point x="201" y="225" type="line"/>
      <point x="201" y="395" type="line" smooth="yes"/>
      <point x="201" y="421"/>
      <point x="206" y="426"/>
      <point x="232" y="426" type="curve" smooth="yes"/>
      <point x="462" y="426" type="line" smooth="yes"/>
      <point x="486" y="426"/>
      <point x="496" y="417"/>
      <point x="496" y="391" type="curve" smooth="yes"/>
      <point x="496" y="357" type="line"/>
      <point x="501" y="357" type="line"/>
      <point x="501" y="421" type="line" smooth="yes"/>
      <point x="501" y="467"/>
      <point x="479" y="485"/>
      <point x="441" y="485" type="curve" smooth="yes"/>
      <point x="194" y="485" type="line" smooth="yes"/>
      <point x="141" y="485"/>
      <point x="115" y="459"/>
      <point x="115" y="406" type="curve" smooth="yes"/>
      <point x="115" y="225" type="line"/>
    </contour>
    <contour>
      <point x="582" y="-141" type="line"/>
      <point x="582" y="485" type="line"/>
      <point x="496" y="485" type="line"/>
      <point x="496" y="432" type="line"/>
      <point x="496" y="421" type="line"/>
      <point x="496" y="-141" type="line"/>
    </contour>
    <contour>
      <point x="115" y="261" type="line"/>
      <point x="115" y="79" type="line" smooth="yes"/>
      <point x="115" y="26"/>
      <point x="141" y="0"/>
      <point x="194" y="0" type="curve" smooth="yes"/>
      <point x="441" y="0" type="line" smooth="yes"/>
      <point x="479" y="0"/>
      <point x="501" y="18"/>
      <point x="501" y="64" type="curve" smooth="yes"/>
      <point x="501" y="117" type="line"/>
      <point x="496" y="118" type="line"/>
      <point x="496" y="94" type="line" smooth="yes"/>
      <point x="496" y="68"/>
      <point x="486" y="59"/>
      <point x="462" y="59" type="curve" smooth="yes"/>
      <point x="232" y="59" type="line" smooth="yes"/>
      <point x="206" y="59"/>
      <point x="201" y="64"/>
      <point x="201" y="90" type="curve" smooth="yes"/>
      <point x="201" y="261" type="line"/>
    </contour>
  </outline>
</glyph>
<glyph name="r" format="1">
  <advance width="368"/>
  <unicode hex="0072"/>
  <outline>
    <contour>
      <point x="358" y="485" type="line"/>
      <point x="254" y="485" type="line" smooth="yes"/>
      <point x="198" y="485"/>
      <point x="172" y="441"/>
      <point x="172" y="393" type="curve" smooth="yes"/>
      <point x="172" y="323" type="line"/>
      <point x="176" y="323" type="line"/>
      <point x="176" y="349" type="line" smooth="yes"/>
      <point x="176" y="399"/>
      <point x="196" y="424"/>
      <point x="241" y="424" type="curve" smooth="yes"/>
      <point x="358" y="424" type="line"/>
    </contour>
    <contour>
      <point x="176" y="0" type="line"/>
      <point x="176" y="485" type="line"/>
      <point x="90" y="485" type="line"/>
      <point x="90" y="0" type="line"/>
    </contour>
  </outline>
</glyph>
<glyph name="s" format="1">
  <advance width="576"/>
  <unicode hex="0073"/>
  <outline>
    <contour>
      <point x="421" y="89" type="line"/>
      <point x="421" y="63"/>
      <point x="416" y="58"/>
      <point x="390" y="58" type="curve" smooth="yes"/>
      <point x="198" y="58" type="line" smooth="yes"/>
      <point x="172" y="58"/>
      <point x="167" y="63"/>
      <point x="167" y="89" type="curve" smooth="yes"/>
      <point x="167" y="131" type="line"/>
      <point x="82" y="131" type="line"/>
      <point x="82" y="79" type="line" smooth="yes"/>
      <point x="82" y="26"/>
      <point x="108" y="0"/>
      <point x="161" y="0" type="curve" smooth="yes"/>
      <point x="427" y="0" type="line" smooth="yes"/>
      <point x="480" y="0"/>
      <point x="506" y="26"/>
      <point x="506" y="79" type="curve" smooth="yes"/>
      <point x="506" y="192" type="line" smooth="yes"/>
      <point x="506" y="245"/>
      <point x="480" y="271"/>
      <point x="427" y="271" type="curve" smooth="yes"/>
      <point x="196" y="271" type="line" smooth="yes"/>
      <point x="170" y="271"/>
      <point x="165" y="276"/>
      <point x="165" y="302" type="curve" smooth="yes"/>
      <point x="165" y="396" type="line" smooth="yes"/>
      <point x="165" y="422"/>
      <point x="170" y="427"/>
      <point x="196" y="427" type="curve" smooth="yes"/>
      <point x="389" y="427" type="line" smooth="yes"/>
      <point x="415" y="427"/>
      <point x="420" y="422"/>
      <point x="420" y="396" type="curve" smooth="yes"/>
      <point x="420" y="354" type="line"/>
      <point x="504" y="354" type="line"/>
      <point x="504" y="406" type="line" smooth="yes"/>
      <point x="504" y="459"/>
      <point x="478" y="485"/>
      <point x="425" y="485" type="curve" smooth="yes"/>
      <point x="159" y="485" type="line" smooth="yes"/>
      <point x="106" y="485"/>
      <point x="80" y="459"/>
      <point x="80" y="406" type="curve" smooth="yes"/>
      <point x="80" y="291" type="line" smooth="yes"/>
      <point x="80" y="238"/>
      <point x="106" y="212"/>
      <point x="159" y="212" type="curve" smooth="yes"/>
      <point x="390" y="212" type="line" smooth="yes"/>
      <point x="416" y="212"/>
      <point x="421" y="207"/>
      <point x="421" y="181" type="curve" smooth="yes"/>
    </contour>
  </outline>
</glyph>
<glyph name="z" format="1">
  <advance width="509"/>
  <unicode hex="007A"/>
  <outline>
    <contour>
      <point x="449" y="485" type="line"/>
      <point x="73" y="485" type="line"/>
      <point x="73" y="426" type="line"/>
      <point x="449" y="426" type="line"/>
    </contour>
    <contour>
      <point x="357" y="426" type="line"/>
      <point x="60" y="59" type="line"/>
      <point x="152" y="59" type="line"/>
      <point x="449" y="426" type="line"/>
    </contour>
    <contour>
      <point x="449" y="59" type="line"/>
      <point x="60" y="59" type="line"/>
      <point x="60" y="0" type="line"/>
      <point x="449" y="0" type="line"/>
    </contour>
  </outline>
</glyph>
<glyph name="braceright" format="1">
  <advance width="403"/>
  <unicode hex="007D"/>
  <outline>
    <contour>
      <point x="130" y="368" type="line"/>
      <point x="130" y="298"/>
      <point x="155" y="253"/>
      <point x="207" y="247" type="curve"/>
      <point x="155" y="241"/>
      <point x="130" y="195"/>
      <point x="130" y="127" type="curve" smooth="yes"/>
      <point x="130" y="-120" type="line" smooth="yes"/>
      <point x="130" y="-149"/>
      <point x="122" y="-162"/>
      <point x="92" y="-162" type="curve" smooth="yes"/>
      <point x="-40" y="-162" type="line"/>
      <point x="-40" y="-221" type="line"/>
      <point x="125" y="-221" type="line" smooth="yes"/>
      <point x="194" y="-221"/>
      <point x="216" y="-189"/>
      <point x="216" y="-127" type="curve" smooth="yes"/>
      <point x="216" y="106" type="line" smooth="yes"/>
      <point x="216" y="184"/>
      <point x="243" y="218"/>
      <point x="305" y="218" type="curve" smooth="yes"/>
      <point x="323" y="218" type="line"/>
      <point x="323" y="277" type="line"/>
      <point x="305" y="277" type="line" smooth="yes"/>
      <point x="243" y="277"/>
      <point x="216" y="311"/>
      <point x="216" y="390" type="curve" smooth="yes"/>
      <point x="216" y="626" type="line" smooth="yes"/>
      <point x="216" y="688"/>
      <point x="194" y="720"/>
      <point x="125" y="720" type="curve" smooth="yes"/>
      <point x="-40" y="720" type="line"/>
      <point x="-40" y="661" type="line"/>
      <point x="92" y="661" type="line" smooth="yes"/>
      <point x="122" y="661"/>
      <point x="130" y="648"/>
      <point x="130" y="619" type="curve" smooth="yes"/>
    </contour>
  </outline>
</glyph>
<glyph name="asciitilde" format="1">
  <advance width="777"/>
  <unicode hex="007E"/>
  <outline>
    <contour>
      <point x="218" y="273" type="curve" smooth="yes"/>
      <point x="345" y="273"/>
      <point x="413" y="170"/>
      <point x="521" y="170" type="curve" smooth="yes"/>
      <point x="619" y="170" type="line" smooth="yes"/>
      <point x="674" y="170"/>
      <point x="697" y="200"/>
      <point x="697" y="247" type="curve" smooth="yes"/>
      <point x="697" y="331" type="line"/>
      <point x="615" y="331" type="line"/>
      <point x="615" y="273" type="line" smooth="yes"/>
      <point x="615" y="241"/>
      <point x="599" y="228"/>
      <point x="559" y="228" type="curve" smooth="yes"/>
      <point x="424" y="228"/>
      <point x="380" y="331"/>
      <point x="259" y="331" type="curve" smooth="yes"/>
      <point x="157" y="331" type="line" smooth="yes"/>
      <point x="102" y="331"/>
      <point x="80" y="303"/>
      <point x="80" y="255" type="curve" smooth="yes"/>
      <point x="80" y="171" type="line"/>
      <point x="162" y="171" type="line"/>
      <point x="162" y="230" type="line" smooth="yes"/>
      <point x="162" y="262"/>
      <point x="177" y="273"/>
    </contour>
  </outline>
</glyph>
<glyph name="exclamdown" format="1">
  <advance width="259"/>
  <unicode hex="00A1"/>
  <outline>
    <contour>
      <point x="94" y="287" type="line"/>
      <point x="78" y="-137" type="line"/>
      <point x="182" y="-137" type="line"/>
      <point x="166" y="287" type="line"/>
    </contour>
    <contour>
      <point x="80" y="485" type="line"/>
      <point x="80" y="369" type="line"/>
      <point x="179" y="369" type="line"/>
      <point x="179" y="485" type="line"/>
    </contour>
  </outline>
</glyph>
<glyph name="cent" format="1">
  <advance width="586"/>
  <unicode hex="00A2"/>
  <outline>
    <contour>
      <point x="341" y="473" type="line"/>
      <point x="341" y="561" type="line"/>
      <point x="258" y="561" type="line"/>
      <point x="258" y="473" type="line"/>
    </contour>
    <contour>
      <point x="341" y="-76" type="line"/>
      <point x="341" y="12" type="line"/>
      <point x="258" y="12" type="line"/>
      <point x="258" y="-76" type="line"/>
    </contour>
    <contour>
      <point x="166" y="395" type="line"/>
      <point x="166" y="421"/>
      <point x="171" y="426"/>
      <point x="197" y="426" type="curve" smooth="yes"/>
      <point x="391" y="426" type="line"/>
      <point x="391" y="485" type="line"/>
      <point x="159" y="485" type="line" smooth="yes"/>
      <point x="106" y="485"/>
      <point x="80" y="459"/>
      <point x="80" y="406" type="curve" smooth="yes"/>
      <point x="80" y="79" type="line" smooth="yes"/>
      <point x="80" y="26"/>
      <point x="106" y="0"/>
      <point x="159" y="0" type="curve" smooth="yes"/>
      <point x="384" y="0" type="line"/>
      <point x="384" y="59" type="line"/>
      <point x="197" y="59" type="line" smooth="yes"/>
      <point x="171" y="59"/>
      <point x="166" y="64"/>
      <point x="166" y="90" type="curve" smooth="yes"/>
    </contour>
    <contour>
      <point x="440" y="327" type="line"/>
      <point x="526" y="327" type="line"/>
      <point x="526" y="406" type="line" smooth="yes"/>
      <point x="526" y="459"/>
      <point x="500" y="485"/>
      <point x="447" y="485" type="curve" smooth="yes"/>
      <point x="213" y="485" type="line"/>
      <point x="213" y="426" type="line"/>
      <point x="409" y="426" type="line" smooth="yes"/>
      <point x="435" y="426"/>
      <point x="440" y="421"/>
      <point x="440" y="395" type="curve" smooth="yes"/>
    </contour>
    <contour>
      <point x="440" y="90" type="line"/>
      <point x="440" y="64"/>
      <point x="435" y="59"/>
      <point x="409" y="59" type="curve" smooth="yes"/>
      <point x="213" y="59" type="line"/>
      <point x="213" y="0" type="line"/>
      <point x="447" y="0" type="line" smooth="yes"/>
      <point x="500" y="0"/>
      <point x="526" y="26"/>
      <point x="526" y="79" type="curve" smooth="yes"/>
      <point x="526" y="158" type="line"/>
      <point x="440" y="158" type="line"/>
    </contour>
  </outline>
</glyph>
<glyph name="sterling" format="1">
  <advance width="693"/>
  <unicode hex="00A3"/>
  <outline>
    <contour>
      <point x="248" y="532" type="line"/>
      <point x="248" y="558"/>
      <point x="253" y="563"/>
      <point x="279" y="563" type="curve" smooth="yes"/>
      <point x="501" y="563" type="line" smooth="yes"/>
      <point x="527" y="563"/>
      <point x="532" y="558"/>
      <point x="532" y="532" type="curve" smooth="yes"/>
      <point x="532" y="438" type="line"/>
      <point x="619" y="438" type="line"/>
      <point x="619" y="543" type="line" smooth="yes"/>
      <point x="619" y="596"/>
      <point x="593" y="622"/>
      <point x="540" y="622" type="curve" smooth="yes"/>
      <point x="239" y="622" type="line" smooth="yes"/>
      <point x="186" y="622"/>
      <point x="160" y="596"/>
      <point x="160" y="543" type="curve" smooth="yes"/>
      <point x="160" y="165" type="line" smooth="yes"/>
      <point x="160" y="97"/>
      <point x="134" y="62"/>
      <point x="80" y="62" type="curve"/>
      <point x="80" y="0" type="line"/>
      <point x="633" y="0" type="line"/>
      <point x="633" y="65" type="line"/>
      <point x="220" y="65" type="line"/>
      <point x="244" y="81"/>
      <point x="248" y="112"/>
      <point x="248" y="172" type="curve" smooth="yes"/>
    </contour>
    <contour>
      <point x="70" y="273" type="line"/>
      <point x="543" y="273" type="line"/>
      <point x="543" y="332" type="line"/>
      <point x="70" y="332" type="line"/>
    </contour>
  </outline>
</glyph>
<glyph name="brokenbar" format="1">
  <advance width="264"/>
  <unicode hex="00A6"/>
  <outline>
    <contour>
      <point x="90" y="248" type="line"/>
      <point x="90" y="-107" type="line"/>
      <point x="174" y="-107" type="line"/>
      <point x="174" y="248" type="line"/>
    </contour>
    <contour>
      <point x="174" y="373" type="line"/>
      <point x="174" y="728" type="line"/>
      <point x="90" y="728" type="line"/>
      <point x="90" y="373" type="line"/>
    </contour>
  </outline>
</glyph>
<glyph name="copyright" format="1">
  <advance width="1044"/>
  <unicode hex="00A9"/>
  <outline>
    <contour>
      <point x="954" y="342" type="line"/>
      <point x="954" y="526"/>
      <point x="890" y="622"/>
      <point x="732" y="622" type="curve" smooth="yes"/>
      <point x="312" y="622" type="line" smooth="yes"/>
      <point x="154" y="622"/>
      <point x="90" y="526"/>
      <point x="90" y="342" type="curve" smooth="yes"/>
      <point x="90" y="272" type="line" smooth="yes"/>
      <point x="90" y="88"/>
      <point x="154" y="0"/>
      <point x="312" y="0" type="curve" smooth="yes"/>
      <point x="732" y="0" type="line" smooth="yes"/>
      <point x="890" y="0"/>
      <point x="954" y="88"/>
      <point x="954" y="272" type="curve" smooth="yes"/>
    </contour>
    <contour>
      <point x="318" y="60" type="line"/>
      <point x="203" y="60"/>
      <point x="170" y="148"/>
      <point x="170" y="270" type="curve" smooth="yes"/>
      <point x="170" y="344" type="line" smooth="yes"/>
      <point x="170" y="466"/>
      <point x="203" y="564"/>
      <point x="318" y="564" type="curve" smooth="yes"/>
      <point x="726" y="564" type="line" smooth="yes"/>
      <point x="841" y="564"/>
      <point x="874" y="466"/>
      <point x="874" y="344" type="curve" smooth="yes"/>
      <point x="874" y="270" type="line" smooth="yes"/>
      <point x="874" y="148"/>
      <point x="841" y="60"/>
      <point x="726" y="60" type="curve" smooth="yes"/>
    </contour>
    <contour>
      <point x="638" y="240" type="line"/>
      <point x="638" y="214"/>
      <point x="633" y="209"/>
      <point x="607" y="209" type="curve" smooth="yes"/>
      <point x="439" y="209" type="line" smooth="yes"/>
      <point x="413" y="209"/>
      <point x="408" y="214"/>
      <point x="408" y="240" type="curve" smooth="yes"/>
      <point x="408" y="394" type="line" smooth="yes"/>
      <point x="408" y="420"/>
      <point x="413" y="425"/>
      <point x="439" y="425" type="curve" smooth="yes"/>
      <point x="607" y="425" type="line" smooth="yes"/>
      <point x="633" y="425"/>
      <point x="638" y="420"/>
      <point x="638" y="394" type="curve" smooth="yes"/>
      <point x="638" y="368" type="line"/>
      <point x="716" y="368" type="line"/>
      <point x="716" y="405" type="line" smooth="yes"/>
      <point x="716" y="458"/>
      <point x="690" y="484"/>
      <point x="637" y="484" type="curve" smooth="yes"/>
      <point x="408" y="484" type="line" smooth="yes"/>
      <point x="355" y="484"/>
      <point x="329" y="458"/>
      <point x="329" y="405" type="curve" smooth="yes"/>
      <point x="329" y="229" type="line" smooth="yes"/>
      <point x="329" y="176"/>
      <point x="355" y="150"/>
      <point x="408" y="150" type="curve" smooth="yes"/>
      <point x="637" y="150" type="line" smooth="yes"/>
      <point x="690" y="150"/>
      <point x="716" y="176"/>
      <point x="716" y="229" type="curve" smooth="yes"/>
      <point x="716" y="266" type="line"/>
      <point x="638" y="266" type="line"/>
    </contour>
  </outline>
</glyph>
<glyph name="ordfeminine" format="1">
  <advance width="427"/>
  <unicode hex="00AA"/>
  <outline>
    <contour>
      <point x="120" y="439" type="line"/>
      <point x="120" y="558" type="line" smooth="yes"/>
      <point x="120" y="577"/>
      <point x="124" y="580"/>
      <point x="143" y="580" type="curve" smooth="yes"/>
      <point x="271" y="580" type="line" smooth="yes"/>
      <point x="288" y="580"/>
      <point x="296" y="573"/>
      <point x="296" y="555" type="curve" smooth="yes"/>
      <point x="296" y="535" type="line"/>
      <point x="299" y="535" type="line"/>
      <point x="299" y="576" type="line" smooth="yes"/>
      <point x="299" y="609"/>
      <point x="283" y="622"/>
      <point x="256" y="622" type="curve" smooth="yes"/>
      <point x="116" y="622" type="line" smooth="yes"/>
      <point x="78" y="622"/>
      <point x="60" y="604"/>
      <point x="60" y="566" type="curve" smooth="yes"/>
      <point x="60" y="439" type="line"/>
    </contour>
    <contour>
      <point x="357" y="280" type="line"/>
      <point x="357" y="622" type="line"/>
      <point x="296" y="622" type="line"/>
      <point x="296" y="280" type="line"/>
    </contour>
    <contour>
      <point x="60" y="464" type="line"/>
      <point x="60" y="336" type="line" smooth="yes"/>
      <point x="60" y="298"/>
      <point x="78" y="280"/>
      <point x="116" y="280" type="curve" smooth="yes"/>
      <point x="256" y="280" type="line" smooth="yes"/>
      <point x="283" y="280"/>
      <point x="299" y="293"/>
      <point x="299" y="326" type="curve" smooth="yes"/>
      <point x="299" y="365" type="line"/>
      <point x="296" y="365" type="line"/>
      <point x="296" y="347" type="line" smooth="yes"/>
      <point x="296" y="329"/>
      <point x="288" y="323"/>
      <point x="271" y="323" type="curve" smooth="yes"/>
      <point x="143" y="323" type="line" smooth="yes"/>
      <point x="124" y="323"/>
      <point x="120" y="327"/>
      <point x="120" y="345" type="curve" smooth="yes"/>
      <point x="120" y="464" type="line"/>
    </contour>
  </outline>
</glyph>
<glyph name="guillemotleft" format="1">
  <advance width="524"/>
  <unicode hex="00AB"/>
  <outline>
    <contour>
      <point x="184" y="105" type="line"/>
      <point x="278" y="105" type="line"/>
      <point x="152" y="259" type="line"/>
      <point x="278" y="415" type="line"/>
      <point x="184" y="415" type="line"/>
      <point x="60" y="260" type="line"/>
    </contour>
    <contour>
      <point x="390" y="105" type="line"/>
      <point x="484" y="105" type="line"/>
      <point x="358" y="259" type="line"/>
      <point x="484" y="415" type="line"/>
      <point x="390" y="415" type="line"/>
      <point x="266" y="260" type="line"/>
    </contour>
  </outline>
</glyph>
<glyph name="macron" format="1">
  <advance width="600"/>
  <unicode hex="00AF"/>
  <outline>
    <contour>
      <point x="126" y="550" type="line"/>
      <point x="473" y="550" type="line"/>
      <point x="473" y="608" type="line"/>
      <point x="126" y="608" type="line"/>
    </contour>
  </outline>
</glyph>
<glyph name="plusminus" format="1">
  <advance width="680"/>
  <unicode hex="00B1"/>
  <outline>
    <contour>
      <point x="80" y="318" type="line"/>
      <point x="600" y="318" type="line"/>
      <point x="600" y="384" type="line"/>
      <point x="80" y="384" type="line"/>
    </contour>
    <contour>
      <point x="298" y="504" type="line"/>
      <point x="298" y="222" type="line"/>
      <point x="382" y="222" type="line"/>
      <point x="382" y="504" type="line"/>
    </contour>
    <contour>
      <point x="80" y="118" type="line"/>
      <point x="600" y="118" type="line"/>
      <point x="600" y="182" type="line"/>
      <point x="80" y="182" type="line"/>
    </contour>
  </outline>
</glyph>
<glyph name="threesuperior" format="1">
  <advance width="409"/>
  <unicode hex="00B3"/>
  <outline>
    <contour>
      <point x="128" y="563" type="line"/>
      <point x="128" y="577"/>
      <point x="131" y="580"/>
      <point x="145" y="580" type="curve" smooth="yes"/>
      <point x="263" y="580" type="line" smooth="yes"/>
      <point x="277" y="580"/>
      <point x="280" y="577"/>
      <point x="280" y="563" type="curve" smooth="yes"/>
      <point x="280" y="492" type="line" smooth="yes"/>
      <point x="280" y="478"/>
      <point x="277" y="475"/>
      <point x="263" y="475" type="curve" smooth="yes"/>
      <point x="158" y="475" type="line"/>
      <point x="158" y="432" type="line"/>
      <point x="263" y="432" type="line" smooth="yes"/>
      <point x="277" y="432"/>
      <point x="280" y="429"/>
      <point x="280" y="415" type="curve" smooth="yes"/>
      <point x="280" y="340" type="line" smooth="yes"/>
      <point x="280" y="325"/>
      <point x="277" y="322"/>
      <point x="263" y="322" type="curve" smooth="yes"/>
      <point x="145" y="322" type="line" smooth="yes"/>
      <point x="131" y="322"/>
      <point x="128" y="325"/>
      <point x="128" y="340" type="curve" smooth="yes"/>
      <point x="128" y="386" type="line"/>
      <point x="70" y="386" type="line"/>
      <point x="70" y="323" type="line" smooth="yes"/>
      <point x="70" y="294"/>
      <point x="85" y="280"/>
      <point x="114" y="280" type="curve" smooth="yes"/>
      <point x="295" y="280" type="line" smooth="yes"/>
      <point x="324" y="280"/>
      <point x="339" y="294"/>
      <point x="339" y="323" type="curve" smooth="yes"/>
      <point x="339" y="426" type="line" smooth="yes"/>
      <point x="339" y="444"/>
      <point x="330" y="452"/>
      <point x="316" y="454" type="curve"/>
      <point x="330" y="455"/>
      <point x="339" y="465"/>
      <point x="339" y="482" type="curve" smooth="yes"/>
      <point x="339" y="579" type="line" smooth="yes"/>
      <point x="339" y="608"/>
      <point x="324" y="622"/>
      <point x="295" y="622" type="curve" smooth="yes"/>
      <point x="114" y="622" type="line" smooth="yes"/>
      <point x="85" y="622"/>
      <point x="70" y="608"/>
      <point x="70" y="579" type="curve" smooth="yes"/>
      <point x="70" y="516" type="line"/>
      <point x="128" y="516" type="line"/>
    </contour>
  </outline>
</glyph>
<glyph name="mu.math" format="1">
  <advance width="637"/>
  <unicode hex="00B5"/>
  <outline>
    <contour>
      <point x="90" y="485" type="line"/>
      <point x="90" y="79" type="line" smooth="yes"/>
      <point x="90" y="26"/>
      <point x="116" y="0"/>
      <point x="169" y="0" type="curve" smooth="yes"/>
      <point x="406" y="0" type="line" smooth="yes"/>
      <point x="444" y="0"/>
      <point x="466" y="18"/>
      <point x="466" y="64" type="curve" smooth="yes"/>
      <point x="466" y="128" type="line"/>
      <point x="461" y="128" type="line"/>
      <point x="461" y="94" type="line" smooth="yes"/>
      <point x="461" y="68"/>
      <point x="451" y="59"/>
      <point x="427" y="59" type="curve" smooth="yes"/>
      <point x="207" y="59" type="line" smooth="yes"/>
      <point x="181" y="59"/>
      <point x="176" y="64"/>
      <point x="176" y="90" type="curve" smooth="yes"/>
      <point x="176" y="485" type="line"/>
    </contour>
    <contour>
      <point x="461" y="485" type="line"/>
      <point x="461" y="0" type="line"/>
      <point x="547" y="0" type="line"/>
      <point x="547" y="485" type="line"/>
    </contour>
    <contour>
      <point x="90" y="426" type="line"/>
      <point x="90" y="-141" type="line"/>
      <point x="176" y="-141" type="line"/>
      <point x="176" y="426" type="line"/>
    </contour>
  </outline>
</glyph>
<glyph name="paragraph" format="1">
  <advance width="734"/>
  <unicode hex="00B6"/>
  <outline>
    <contour>
      <point x="387" y="622" type="line"/>
      <point x="159" y="622" type="line" smooth="yes"/>
      <point x="106" y="622"/>
      <point x="80" y="596"/>
      <point x="80" y="543" type="curve" smooth="yes"/>
      <point x="80" y="306" type="line" smooth="yes"/>
      <point x="80" y="253"/>
      <point x="106" y="227"/>
      <point x="159" y="227" type="curve" smooth="yes"/>
      <point x="387" y="227" type="line"/>
    </contour>
    <contour>
      <point x="339" y="622" type="line"/>
      <point x="339" y="-141" type="line"/>
      <point x="421" y="-141" type="line"/>
      <point x="421" y="622" type="line"/>
    </contour>
    <contour>
      <point x="552" y="622" type="line"/>
      <point x="552" y="-141" type="line"/>
      <point x="634" y="-141" type="line"/>
      <point x="634" y="622" type="line"/>
    </contour>
  </outline>
</glyph>
<glyph name="cedilla" format="1">
  <advance width="600"/>
  <unicode hex="00B8"/>
  <outline>
    <contour>
      <point x="337" y="-123" type="line"/>
      <point x="337" y="-149"/>
      <point x="328" y="-159"/>
      <point x="302" y="-159" type="curve" smooth="yes"/>
      <point x="181" y="-159" type="line"/>
      <point x="181" y="-217" type="line"/>
      <point x="330" y="-217" type="line" smooth="yes"/>
      <point x="384" y="-217"/>
      <point x="418" y="-190"/>
      <point x="418" y="-129" type="curve" smooth="yes"/>
      <point x="418" y="-50" type="line"/>
      <point x="337" y="-50" type="line"/>
    </contour>
  </outline>
</glyph>
<glyph name="onesuperior" format="1">
  <advance width="241"/>
  <unicode hex="00B9"/>
  <outline>
    <contour>
      <point x="135" y="622" type="line"/>
      <point x="30" y="622" type="line"/>
      <point x="30" y="580" type="line"/>
      <point x="135" y="580" type="line"/>
    </contour>
    <contour>
      <point x="111" y="622" type="line"/>
      <point x="111" y="280" type="line"/>
      <point x="171" y="280" type="line"/>
      <point x="171" y="622" type="line"/>
    </contour>
  </outline>
</glyph>
<glyph name="ordmasculine" format="1">
  <advance width="430"/>
  <unicode hex="00BA"/>
  <outline>
    <contour>
      <point x="360" y="567" type="line"/>
      <point x="360" y="604"/>
      <point x="341" y="622"/>
      <point x="305" y="622" type="curve" smooth="yes"/>
      <point x="125" y="622" type="line" smooth="yes"/>
      <point x="88" y="622"/>
      <point x="70" y="604"/>
      <point x="70" y="567" type="curve" smooth="yes"/>
      <point x="70" y="335" type="line" smooth="yes"/>
      <point x="70" y="298"/>
      <point x="88" y="280"/>
      <point x="125" y="280" type="curve" smooth="yes"/>
      <point x="305" y="280" type="line" smooth="yes"/>
      <point x="341" y="280"/>
      <point x="360" y="298"/>
      <point x="360" y="335" type="curve" smooth="yes"/>
    </contour>
    <contour>
      <point x="300" y="344" type="line"/>
      <point x="300" y="326"/>
      <point x="296" y="322"/>
      <point x="278" y="322" type="curve" smooth="yes"/>
      <point x="151" y="322" type="line" smooth="yes"/>
      <point x="132" y="322"/>
      <point x="129" y="326"/>
      <point x="129" y="344" type="curve" smooth="yes"/>
      <point x="129" y="559" type="line" smooth="yes"/>
      <point x="129" y="577"/>
      <point x="132" y="580"/>
      <point x="151" y="580" type="curve" smooth="yes"/>
      <point x="278" y="580" type="line" smooth="yes"/>
      <point x="296" y="580"/>
      <point x="300" y="577"/>
      <point x="300" y="559" type="curve" smooth="yes"/>
    </contour>
  </outline>
</glyph>
<glyph name="threequarters" format="1">
  <advance width="969"/>
  <unicode hex="00BE"/>
  <outline>
    <contour>
      <point x="618" y="56" type="line"/>
      <point x="939" y="56" type="line"/>
      <point x="939" y="98" type="line"/>
      <point x="618" y="98" type="line"/>
    </contour>
    <contour>
      <point x="598" y="56" type="line"/>
      <point x="646" y="56" type="line"/>
      <point x="827" y="343" type="line"/>
      <point x="761" y="343" type="line"/>
      <point x="598" y="88" type="line"/>
    </contour>
    <contour>
      <point x="814" y="181" type="line"/>
      <point x="814" y="0" type="line"/>
      <point x="874" y="0" type="line"/>
      <point x="874" y="181" type="line"/>
    </contour>
    <component base="threesuperior"/>
    <component base="slash" xOffset="284"/>
  </outline>
</glyph>
<glyph name="Agrave" format="1">
  <advance width="682"/>
  <unicode hex="00C0"/>
  <outline>
    <contour>
      <point x="277" y="622" type="line"/>
      <point x="35" y="0" type="line"/>
      <point x="123" y="0" type="line"/>
      <point x="340" y="562" type="line"/>
      <point x="560" y="0" type="line"/>
      <point x="647" y="0" type="line"/>
      <point x="404" y="622" type="line"/>
    </contour>
    <contour>
      <point x="137" y="182" type="line"/>
      <point x="137" y="123" type="line"/>
      <point x="545" y="123" type="line"/>
      <point x="545" y="182" type="line"/>
    </contour>
    <contour>
      <point x="119" y="813" type="line"/>
      <point x="281" y="670" type="line"/>
      <point x="369" y="670" type="line"/>
      <point x="229" y="813" type="line"/>
    </contour>
  </outline>
</glyph>
<glyph name="Adieresis" format="1">
  <advance width="682"/>
  <unicode hex="00C4"/>
  <outline>
    <contour>
      <point x="277" y="622" type="line"/>
      <point x="35" y="0" type="line"/>
      <point x="123" y="0" type="line"/>
      <point x="340" y="562" type="line"/>
      <point x="560" y="0" type="line"/>
      <point x="647" y="0" type="line"/>
      <point x="404" y="622" type="line"/>
    </contour>
    <contour>
      <point x="137" y="182" type="line"/>
      <point x="137" y="123" type="line"/>
      <point x="545" y="123" type="line"/>
      <point x="545" y="182" type="line"/>
    </contour>
    <contour>
      <point x="151" y="752" type="line"/>
      <point x="151" y="669" type="line"/>
      <point x="274" y="669" type="line"/>
      <point x="274" y="752" type="line"/>
    </contour>
    <contour>
      <point x="411" y="752" type="line"/>
      <point x="411" y="669" type="line"/>
      <point x="534" y="669" type="line"/>
      <point x="534" y="752" type="line"/>
    </contour>
  </outline>
</glyph>
<glyph name="Edieresis" format="1">
  <advance width="587"/>
  <unicode hex="00CB"/>
  <outline>
    <contour>
      <point x="380" y="752" type="line"/>
      <point x="380" y="669" type="line"/>
      <point x="503" y="669" type="line"/>
      <point x="503" y="752" type="line"/>
    </contour>
    <contour>
      <point x="120" y="752" type="line"/>
      <point x="120" y="669" type="line"/>
      <point x="243" y="669" type="line"/>
      <point x="243" y="752" type="line"/>
    </contour>
    <contour>
      <point x="100" y="622" type="line"/>
      <point x="100" y="0" type="line"/>
      <point x="189" y="0" type="line"/>
      <point x="189" y="622" type="line"/>
    </contour>
    <contour>
      <point x="482" y="348" type="line"/>
      <point x="151" y="348" type="line"/>
      <point x="151" y="289" type="line"/>
      <point x="482" y="289" type="line"/>
    </contour>
    <contour>
      <point x="523" y="622" type="line"/>
      <point x="149" y="622" type="line"/>
      <point x="149" y="563" type="line"/>
      <point x="523" y="563" type="line"/>
    </contour>
    <contour>
      <point x="537" y="59" type="line"/>
      <point x="149" y="59" type="line"/>
      <point x="149" y="0" type="line"/>
      <point x="537" y="0" type="line"/>
    </contour>
  </outline>
</glyph>
<glyph name="Idieresis" format="1">
  <advance width="308"/>
  <unicode hex="00CF"/>
  <outline>
    <contour>
      <point x="110" y="622" type="line"/>
      <point x="110" y="0" type="line"/>
      <point x="198" y="0" type="line"/>
      <point x="198" y="622" type="line"/>
    </contour>
    <contour>
      <point x="-38" y="752" type="line"/>
      <point x="-38" y="669" type="line"/>
      <point x="85" y="669" type="line"/>
      <point x="85" y="752" type="line"/>
    </contour>
    <contour>
      <point x="222" y="752" type="line"/>
      <point x="222" y="669" type="line"/>
      <point x="345" y="669" type="line"/>
      <point x="345" y="752" type="line"/>
    </contour>
  </outline>
</glyph>
<glyph name="Eth" format="1">
  <advance width="713"/>
  <unicode hex="00D0"/>
  <outline>
    <contour>
      <point x="535" y="394" type="line"/>
      <point x="623" y="394" type="line"/>
      <point x="623" y="543" type="line" smooth="yes"/>
      <point x="623" y="596"/>
      <point x="597" y="622"/>
      <point x="544" y="622" type="curve" smooth="yes"/>
      <point x="164" y="622" type="line"/>
      <point x="164" y="563" type="line"/>
      <point x="504" y="563" type="line" smooth="yes"/>
      <point x="530" y="563"/>
      <point x="535" y="558"/>
      <point x="535" y="532" type="curve" smooth="yes"/>
    </contour>
    <contour>
      <point x="535" y="90" type="line"/>
      <point x="535" y="64"/>
      <point x="530" y="59"/>
      <point x="504" y="59" type="curve" smooth="yes"/>
      <point x="164" y="59" type="line"/>
      <point x="164" y="0" type="line"/>
      <point x="544" y="0" type="line" smooth="yes"/>
      <point x="597" y="0"/>
      <point x="623" y="26"/>
      <point x="623" y="79" type="curve" smooth="yes"/>
      <point x="623" y="417" type="line"/>
      <point x="535" y="417" type="line"/>
    </contour>
    <contour>
      <point x="120" y="622" type="line"/>
      <point x="120" y="0" type="line"/>
      <point x="208" y="0" type="line"/>
      <point x="208" y="622" type="line"/>
    </contour>
    <contour>
      <point x="414" y="343" type="line"/>
      <point x="68" y="343" type="line"/>
      <point x="68" y="283" type="line"/>
      <point x="414" y="283" type="line"/>
    </contour>
  </outline>
</glyph>
<glyph name="Oslash" format="1">
  <advance width="702"/>
  <unicode hex="00D8"/>
  <outline>
    <contour>
      <point x="602" y="543" type="line"/>
      <point x="602" y="596"/>
      <point x="576" y="622"/>
      <point x="523" y="622" type="curve" smooth="yes"/>
      <point x="179" y="622" type="line" smooth="yes"/>
      <point x="126" y="622"/>
      <point x="100" y="596"/>
      <point x="100" y="543" type="curve" smooth="yes"/>
      <point x="100" y="79" type="line" smooth="yes"/>
      <point x="100" y="26"/>
      <point x="126" y="0"/>
      <point x="179" y="0" type="curve" smooth="yes"/>
      <point x="523" y="0" type="line" smooth="yes"/>
      <point x="576" y="0"/>
      <point x="602" y="26"/>
      <point x="602" y="79" type="curve" smooth="yes"/>
    </contour>
    <contour>
      <point x="517" y="87" type="line"/>
      <point x="517" y="61"/>
      <point x="512" y="56"/>
      <point x="485" y="56" type="curve" smooth="yes"/>
      <point x="215" y="56" type="line" smooth="yes"/>
      <point x="189" y="56"/>
      <point x="184" y="61"/>
      <point x="184" y="87" type="curve" smooth="yes"/>
      <point x="184" y="535" type="line" smooth="yes"/>
      <point x="184" y="561"/>
      <point x="189" y="566"/>
      <point x="215" y="566" type="curve" smooth="yes"/>
      <point x="485" y="566" type="line" smooth="yes"/>
      <point x="512" y="566"/>
      <point x="517" y="561"/>
      <point x="517" y="535" type="curve" smooth="yes"/>
    </contour>
    <contour>
      <point x="543" y="644" type="line"/>
      <point x="87" y="-22" type="line"/>
      <point x="160" y="-22" type="line"/>
      <point x="615" y="644" type="line"/>
    </contour>
  </outline>
</glyph>
<glyph name="Thorn" format="1">
  <advance width="666"/>
  <unicode hex="00DE"/>
  <outline>
    <contour>
      <point x="510" y="192" type="line"/>
      <point x="510" y="166"/>
      <point x="505" y="161"/>
      <point x="479" y="161" type="curve" smooth="yes"/>
      <point x="145" y="161" type="line"/>
      <point x="145" y="102" type="line"/>
      <point x="517" y="102" type="line" smooth="yes"/>
      <point x="570" y="102"/>
      <point x="596" y="128"/>
      <point x="596" y="181" type="curve" smooth="yes"/>
      <point x="596" y="441" type="line" smooth="yes"/>
      <point x="596" y="494"/>
      <point x="570" y="520"/>
      <point x="517" y="520" type="curve" smooth="yes"/>
      <point x="135" y="520" type="line"/>
      <point x="135" y="461" type="line"/>
      <point x="479" y="461" type="line" smooth="yes"/>
      <point x="505" y="461"/>
      <point x="510" y="456"/>
      <point x="510" y="430" type="curve" smooth="yes"/>
    </contour>
    <contour>
      <point x="100" y="622" type="line"/>
      <point x="100" y="0" type="line"/>
      <point x="187" y="0" type="line"/>
      <point x="187" y="622" type="line"/>
    </contour>
  </outline>
</glyph>
<glyph name="ae" format="1">
  <advance width="964"/>
  <unicode hex="00E6"/>
  <outline>
    <contour>
      <point x="464" y="286" type="line"/>
      <point x="80" y="200" type="line"/>
      <point x="166" y="158" type="line"/>
      <point x="486" y="228" type="line"/>
    </contour>
    <contour>
      <point x="80" y="200" type="line"/>
      <point x="80" y="79" type="line" smooth="yes"/>
      <point x="80" y="26"/>
      <point x="106" y="0"/>
      <point x="159" y="0" type="curve" smooth="yes"/>
      <point x="407" y="0" type="line" smooth="yes"/>
      <point x="446" y="0"/>
      <point x="466" y="19"/>
      <point x="472" y="38" type="curve"/>
      <point x="477" y="19"/>
      <point x="497" y="0"/>
      <point x="533" y="0" type="curve" smooth="yes"/>
      <point x="802" y="0" type="line" smooth="yes"/>
      <point x="855" y="0"/>
      <point x="881" y="26"/>
      <point x="881" y="79" type="curve" smooth="yes"/>
      <point x="881" y="137" type="line"/>
      <point x="796" y="137" type="line"/>
      <point x="796" y="90" type="line" smooth="yes"/>
      <point x="796" y="64"/>
      <point x="791" y="59"/>
      <point x="765" y="59" type="curve" smooth="yes"/>
      <point x="547" y="59" type="line" smooth="yes"/>
      <point x="521" y="59"/>
      <point x="516" y="64"/>
      <point x="516" y="90" type="curve" smooth="yes"/>
      <point x="516" y="395" type="line" smooth="yes"/>
      <point x="516" y="421"/>
      <point x="521" y="426"/>
      <point x="547" y="426" type="curve" smooth="yes"/>
      <point x="768" y="426" type="line" smooth="yes"/>
      <point x="794" y="426"/>
      <point x="799" y="421"/>
      <point x="799" y="395" type="curve" smooth="yes"/>
      <point x="799" y="219" type="line"/>
      <point x="884" y="219" type="line"/>
      <point x="884" y="406" type="line" smooth="yes"/>
      <point x="884" y="459"/>
      <point x="858" y="485"/>
      <point x="805" y="485" type="curve" smooth="yes"/>
      <point x="533" y="485" type="line" smooth="yes"/>
      <point x="497" y="485"/>
      <point x="477" y="466"/>
      <point x="472" y="447" type="curve"/>
      <point x="466" y="466"/>
      <point x="446" y="485"/>
      <point x="407" y="485" type="curve" smooth="yes"/>
      <point x="159" y="485" type="line" smooth="yes"/>
      <point x="106" y="485"/>
      <point x="80" y="459"/>
      <point x="80" y="406" type="curve" smooth="yes"/>
      <point x="80" y="311" type="line"/>
      <point x="166" y="311" type="line"/>
      <point x="166" y="395" type="line" smooth="yes"/>
      <point x="166" y="421"/>
      <point x="171" y="426"/>
      <point x="197" y="426" type="curve" smooth="yes"/>
      <point x="397" y="426" type="line" smooth="yes"/>
      <point x="419" y="426"/>
      <point x="430" y="419"/>
      <point x="430" y="396" type="curve" smooth="yes"/>
      <point x="430" y="89" type="line" smooth="yes"/>
      <point x="430" y="66"/>
      <point x="419" y="59"/>
      <point x="397" y="59" type="curve" smooth="yes"/>
      <point x="197" y="59" type="line" smooth="yes"/>
      <point x="171" y="59"/>
      <point x="166" y="64"/>
      <point x="166" y="90" type="curve" smooth="yes"/>
      <point x="166" y="158" type="line"/>
    </contour>
    <contour>
      <point x="873" y="278" type="line"/>
      <point x="470" y="278" type="line"/>
      <point x="470" y="219" type="line"/>
      <point x="873" y="219" type="line"/>
    </contour>
  </outline>
</glyph>
<glyph name="icircumflex" format="1">
  <advance width="286"/>
  <unicode hex="00EE"/>
  <outline>
    <contour>
      <point x="186" y="0" type="line"/>
      <point x="186" y="485" type="line"/>
      <point x="100" y="485" type="line"/>
      <point x="100" y="0" type="line"/>
    </contour>
    <component base="circumflex" xOffset="-156" yOffset="26"/>
  </outline>
</glyph>
<glyph name="idieresis" format="1">
  <advance width="286"/>
  <unicode hex="00EF"/>
  <outline>
    <contour>
      <point x="186" y="0" type="line"/>
      <point x="186" y="485" type="line"/>
      <point x="100" y="485" type="line"/>
      <point x="100" y="0" type="line"/>
    </contour>
    <component base="dieresis" xOffset="-151" yOffset="-10"/>
  </outline>
</glyph>
<glyph name="divide" format="1">
  <advance width="640"/>
  <unicode hex="00F7"/>
  <outline>
    <contour>
      <point x="60" y="277" type="line"/>
      <point x="580" y="277" type="line"/>
      <point x="580" y="345" type="line"/>
      <point x="60" y="345" type="line"/>
    </contour>
    <contour>
      <point x="276" y="504" type="line"/>
      <point x="276" y="422" type="line"/>
      <point x="364" y="422" type="line"/>
      <point x="364" y="504" type="line"/>
    </contour>
    <contour>
      <point x="276" y="200" type="line"/>
      <point x="276" y="118" type="line"/>
      <point x="364" y="118" type="line"/>
      <point x="364" y="200" type="line"/>
    </contour>
  </outline>
</glyph>
<glyph name="dcaron" format="1">
  <advance width="627"/>
  <unicode hex="010F"/>
  <outline>
    <contour>
      <point x="451" y="453" type="line"/>
      <point x="442" y="476"/>
      <point x="423" y="485"/>
      <point x="396" y="485" type="curve" smooth="yes"/>
      <point x="159" y="485" type="line" smooth="yes"/>
      <point x="106" y="485"/>
      <point x="80" y="459"/>
      <point x="80" y="406" type="curve" smooth="yes"/>
      <point x="80" y="79" type="line" smooth="yes"/>
      <point x="80" y="26"/>
      <point x="106" y="0"/>
      <point x="159" y="0" type="curve" smooth="yes"/>
      <point x="396" y="0" type="line" smooth="yes"/>
      <point x="423" y="0"/>
      <point x="442" y="9"/>
      <point x="451" y="32" type="curve"/>
      <point x="451" y="0" type="line"/>
      <point x="537" y="0" type="line"/>
      <point x="537" y="669" type="line"/>
      <point x="451" y="669" type="line"/>
    </contour>
    <contour>
      <point x="632" y="669" type="line"/>
      <point x="632" y="500" type="line"/>
      <point x="664" y="500" type="line"/>
      <point x="728" y="625" type="line"/>
      <point x="728" y="669" type="line"/>
    </contour>
    <contour>
      <point x="197" y="59" type="line"/>
      <point x="171" y="59"/>
      <point x="166" y="64"/>
      <point x="166" y="90" type="curve" smooth="yes"/>
      <point x="166" y="395" type="line" smooth="yes"/>
      <point x="166" y="421"/>
      <point x="171" y="426"/>
      <point x="197" y="426" type="curve" smooth="yes"/>
      <point x="417" y="426" type="line" smooth="yes"/>
      <point x="441" y="426"/>
      <point x="451" y="417"/>
      <point x="451" y="391" type="curve" smooth="yes"/>
      <point x="451" y="94" type="line" smooth="yes"/>
      <point x="451" y="68"/>
      <point x="441" y="59"/>
      <point x="417" y="59" type="curve" smooth="yes"/>
    </contour>
  </outline>
</glyph>
<glyph name="Idotaccent" format="1">
  <advance width="286"/>
  <unicode hex="0130"/>
  <outline>
    <contour>
      <point x="100" y="485" type="line"/>
      <point x="100" y="0" type="line"/>
      <point x="186" y="0" type="line"/>
      <point x="186" y="485" type="line"/>
    </contour>
    <contour>
      <point x="89" y="623" type="line"/>
      <point x="89" y="532" type="line"/>
      <point x="196" y="532" type="line"/>
      <point x="196" y="623" type="line"/>
    </contour>
  </outline>
</glyph>
<glyph name="lcaron" format="1">
  <advance width="286"/>
  <unicode hex="013E"/>
  <outline>
    <contour>
      <point x="100" y="669" type="line"/>
      <point x="100" y="0" type="line"/>
      <point x="186" y="0" type="line"/>
      <point x="186" y="669" type="line"/>
    </contour>
    <contour>
      <point x="282" y="668" type="line"/>
      <point x="282" y="499" type="line"/>
      <point x="314" y="499" type="line"/>
      <point x="378" y="624" type="line"/>
      <point x="378" y="668" type="line"/>
    </contour>
  </outline>
</glyph>
<glyph name="lslash" format="1">
  <advance width="286"/>
  <unicode hex="0142"/>
  <outline>
    <contour>
      <point x="304" y="425" type="line"/>
      <point x="-13" y="319" type="line"/>
      <point x="-13" y="258" type="line"/>
      <point x="304" y="365" type="line"/>
    </contour>
    <component base="l"/>
  </outline>
</glyph>
<glyph name="tcaron" format="1">
  <advance width="366"/>
  <unicode hex="0165"/>
  <outline>
    <contour>
      <point x="118" y="569" type="line"/>
      <point x="118" y="79" type="line" smooth="yes"/>
      <point x="118" y="26"/>
      <point x="144" y="0"/>
      <point x="197" y="0" type="curve" smooth="yes"/>
      <point x="325" y="0" type="line"/>
      <point x="325" y="64" type="line"/>
      <point x="235" y="64" type="line" smooth="yes"/>
      <point x="209" y="64"/>
      <point x="204" y="69"/>
      <point x="204" y="95" type="curve" smooth="yes"/>
      <point x="204" y="569" type="line"/>
    </contour>
    <contour>
      <point x="40" y="485" type="line"/>
      <point x="40" y="426" type="line"/>
      <point x="326" y="426" type="line"/>
      <point x="326" y="485" type="line"/>
    </contour>
    <contour>
      <point x="262" y="723" type="line"/>
      <point x="262" y="554" type="line"/>
      <point x="294" y="554" type="line"/>
      <point x="358" y="679" type="line"/>
      <point x="358" y="723" type="line"/>
    </contour>
  </outline>
</glyph>
<glyph name="Uhungarumlaut" format="1">
  <advance width="683"/>
  <unicode hex="0170"/>
  <outline>
    <contour>
      <point x="177" y="622" type="line"/>
      <point x="90" y="622" type="line"/>
      <point x="90" y="79" type="line" smooth="yes"/>
      <point x="90" y="26"/>
      <point x="116" y="0"/>
      <point x="169" y="0" type="curve" smooth="yes"/>
      <point x="514" y="0" type="line" smooth="yes"/>
      <point x="567" y="0"/>
      <point x="593" y="26"/>
      <point x="593" y="79" type="curve" smooth="yes"/>
      <point x="593" y="622" type="line"/>
      <point x="507" y="622" type="line"/>
      <point x="507" y="90" type="line" smooth="yes"/>
      <point x="507" y="64"/>
      <point x="502" y="59"/>
      <point x="476" y="59" type="curve" smooth="yes"/>
      <point x="208" y="59" type="line" smooth="yes"/>
      <point x="182" y="59"/>
      <point x="177" y="64"/>
      <point x="177" y="90" type="curve" smooth="yes"/>
    </contour>
    <contour>
      <point x="559" y="830" type="line"/>
      <point x="409" y="667" type="line"/>
      <point x="487" y="667" type="line"/>
      <point x="659" y="830" type="line"/>
    </contour>
    <contour>
      <point x="349" y="830" type="line"/>
      <point x="199" y="667" type="line"/>
      <point x="277" y="667" type="line"/>
      <point x="449" y="830" type="line"/>
    </contour>
  </outline>
</glyph>
<glyph name="uhungarumlaut" format="1">
  <advance width="627"/>
  <unicode hex="0171"/>
  <outline>
    <contour>
      <point x="80" y="485" type="line"/>
      <point x="80" y="79" type="line" smooth="yes"/>
      <point x="80" y="26"/>
      <point x="106" y="0"/>
      <point x="159" y="0" type="curve" smooth="yes"/>
      <point x="396" y="0" type="line" smooth="yes"/>
      <point x="434" y="0"/>
      <point x="456" y="18"/>
      <point x="456" y="64" type="curve" smooth="yes"/>
      <point x="456" y="128" type="line"/>
      <point x="451" y="128" type="line"/>
      <point x="451" y="94" type="line" smooth="yes"/>
      <point x="451" y="68"/>
      <point x="441" y="59"/>
      <point x="417" y="59" type="curve" smooth="yes"/>
      <point x="197" y="59" type="line" smooth="yes"/>
      <point x="171" y="59"/>
      <point x="166" y="64"/>
      <point x="166" y="90" type="curve" smooth="yes"/>
      <point x="166" y="485" type="line"/>
    </contour>
    <contour>
      <point x="451" y="485" type="line"/>
      <point x="451" y="0" type="line"/>
      <point x="537" y="0" type="line"/>
      <point x="537" y="485" type="line"/>
    </contour>
    <contour>
      <point x="526" y="696" type="line"/>
      <point x="376" y="533" type="line"/>
      <point x="454" y="533" type="line"/>
      <point x="626" y="696" type="line"/>
    </contour>
    <contour>
      <point x="316" y="696" type="line"/>
      <point x="166" y="533" type="line"/>
      <point x="244" y="533" type="line"/>
      <point x="416" y="696" type="line"/>
    </contour>
  </outline>
</glyph>
<glyph name="florin" format="1">
  <advance width="448"/>
  <unicode hex="0192"/>
  <outline>
    <contour>
      <point x="311" y="571" type="line"/>
      <point x="314" y="598"/>
      <point x="318" y="603"/>
      <point x="344" y="603" type="curve" smooth="yes"/>
      <point x="420" y="603" type="line"/>
      <point x="420" y="667" type="line"/>
      <point x="315" y="667" type="line" smooth="yes"/>
      <point x="253" y="667"/>
      <point x="231" y="639"/>
      <point x="224" y="584" type="curve" smooth="yes"/>
      <point x="140" y="-45" type="line" smooth="yes"/>
      <point x="136" y="-72"/>
      <point x="133" y="-78"/>
      <point x="106" y="-78" type="curve" smooth="yes"/>
      <point x="30" y="-78" type="line"/>
      <point x="30" y="-141" type="line"/>
      <point x="135" y="-141" type="line" smooth="yes"/>
      <point x="197" y="-141"/>
      <point x="219" y="-113"/>
      <point x="226" y="-58" type="curve" smooth="yes"/>
    </contour>
    <contour>
      <point x="418" y="485" type="line"/>
      <point x="105" y="485" type="line"/>
      <point x="105" y="426" type="line"/>
      <point x="418" y="426" type="line"/>
    </contour>
  </outline>
</glyph>
<glyph name="apostrophemod" format="1">
  <advance width="209"/>
  <unicode hex="02BC"/>
  <outline>
    <contour>
      <point x="60" y="622" type="line"/>
      <point x="159" y="622" type="line"/>
      <point x="159" y="560" type="line"/>
      <point x="93" y="367" type="line"/>
      <point x="60" y="367" type="line"/>
    </contour>
  </outline>
</glyph>
<glyph name="ogonek" format="1">
  <advance width="600"/>
  <unicode hex="02DB"/>
  <outline>
    <contour>
      <point x="244" y="-36" type="line"/>
      <point x="191" y="-36"/>
      <point x="165" y="-62"/>
      <point x="165" y="-115" type="curve" smooth="yes"/>
      <point x="165" y="-148" type="line" smooth="yes"/>
      <point x="165" y="-201"/>
      <point x="191" y="-227"/>
      <point x="244" y="-227" type="curve" smooth="yes"/>
      <point x="434" y="-227" type="line"/>
      <point x="434" y="-173" type="line"/>
      <point x="269" y="-173" type="line" smooth="yes"/>
      <point x="243" y="-173"/>
      <point x="237" y="-169"/>
      <point x="237" y="-143" type="curve" smooth="yes"/>
      <point x="237" y="-119" type="line" smooth="yes"/>
      <point x="237" y="-93"/>
      <point x="243" y="-89"/>
      <point x="269" y="-89" type="curve" smooth="yes"/>
      <point x="414" y="-89" type="line"/>
      <point x="414" y="-36" type="line"/>
    </contour>
    <contour>
      <point x="414" y="-39" type="line"/>
      <point x="414" y="11" type="line"/>
      <point x="331" y="11" type="line"/>
      <point x="331" y="-39" type="line"/>
    </contour>
  </outline>
</glyph>
<glyph name="hungarumlaut" format="1">
  <advance width="600"/>
  <unicode hex="02DD"/>
  <outline>
    <contour>
      <point x="466" y="669" type="line"/>
      <point x="316" y="506" type="line"/>
      <point x="394" y="506" type="line"/>
      <point x="566" y="669" type="line"/>
    </contour>
    <contour>
      <point x="256" y="669" type="line"/>
      <point x="106" y="506" type="line"/>
      <point x="184" y="506" type="line"/>
      <point x="356" y="669" type="line"/>
    </contour>
  </outline>
</glyph>
<glyph name="dvAnusvara" format="1">
  <advance width="0"/>
  <unicode hex="0902"/>
  <outline>
    <contour>
      <point x="-140" y="622" type="move" name="_abvm.bindu"/>
    </contour>
    <contour>
      <point x="-231" y="687" type="line"/>
      <point x="-140" y="687" type="line"/>
      <point x="-140" y="780" type="line"/>
      <point x="-231" y="780" type="line"/>
    </contour>
  </outline>
</glyph>
<glyph name="dvA" format="1">
  <advance width="1064"/>
  <unicode hex="0905"/>
  <outline>
    <contour>
      <point x="835" y="0" type="line"/>
      <point x="924" y="0" type="line"/>
      <point x="924" y="622" type="line"/>
      <point x="835" y="622" type="line"/>
    </contour>
    <contour>
      <point x="857" y="563" type="line"/>
      <point x="1084" y="563" type="line"/>
      <point x="1084" y="622" type="line"/>
      <point x="857" y="622" type="line"/>
    </contour>
    <contour>
      <point x="537" y="293" type="line"/>
      <point x="864" y="293" type="line"/>
      <point x="864" y="352" type="line"/>
      <point x="537" y="352" type="line"/>
    </contour>
    <contour>
      <point x="615" y="305" type="line"/>
      <point x="615" y="336"/>
      <point x="599" y="351"/>
      <point x="573" y="352" type="curve"/>
      <point x="573" y="356" type="line"/>
      <point x="599" y="358"/>
      <point x="615" y="374"/>
      <point x="615" y="405" type="curve" smooth="yes"/>
      <point x="615" y="543" type="line" smooth="yes"/>
      <point x="615" y="596"/>
      <point x="589" y="622"/>
      <point x="536" y="622" type="curve" smooth="yes"/>
      <point x="181" y="622" type="line" smooth="yes"/>
      <point x="128" y="622"/>
      <point x="102" y="596"/>
      <point x="102" y="543" type="curve" smooth="yes"/>
      <point x="102" y="447" type="line"/>
      <point x="191" y="447" type="line"/>
      <point x="191" y="532" type="line" smooth="yes"/>
      <point x="191" y="558"/>
      <point x="196" y="563"/>
      <point x="222" y="563" type="curve" smooth="yes"/>
      <point x="494" y="563" type="line" smooth="yes"/>
      <point x="520" y="563"/>
      <point x="526" y="558"/>
      <point x="526" y="532" type="curve" smooth="yes"/>
      <point x="526" y="411" type="line" smooth="yes"/>
      <point x="526" y="385"/>
      <point x="518" y="377"/>
      <point x="492" y="377" type="curve" smooth="yes"/>
      <point x="328" y="377" type="line"/>
      <point x="328" y="318" type="line"/>
      <point x="492" y="318" type="line" smooth="yes"/>
      <point x="518" y="318"/>
      <point x="526" y="310"/>
      <point x="526" y="284" type="curve" smooth="yes"/>
      <point x="526" y="168" type="line" smooth="yes"/>
      <point x="526" y="142"/>
      <point x="520" y="137"/>
      <point x="494" y="137" type="curve" smooth="yes"/>
      <point x="222" y="137" type="line" smooth="yes"/>
      <point x="196" y="137"/>
      <point x="191" y="142"/>
      <point x="191" y="168" type="curve" smooth="yes"/>
      <point x="191" y="253" type="line"/>
      <point x="102" y="253" type="line"/>
      <point x="102" y="157" type="line" smooth="yes"/>
      <point x="102" y="104"/>
      <point x="128" y="78"/>
      <point x="181" y="78" type="curve" smooth="yes"/>
      <point x="536" y="78" type="line" smooth="yes"/>
      <point x="589" y="78"/>
      <point x="615" y="104"/>
      <point x="615" y="157" type="curve" smooth="yes"/>
    </contour>
  </outline>
</glyph>
<glyph name="dvI" format="1">
  <advance width="756"/>
  <unicode hex="0907"/>
  <outline>
    <contour>
      <point x="514" y="622" type="move" name="abvm.bindu"/>
    </contour>
    <contour>
      <point x="514" y="622" type="move" name="abvm.candra"/>
    </contour>
    <contour>
      <point x="776" y="563" type="line"/>
      <point x="776" y="622" type="line"/>
      <point x="-20" y="622" type="line"/>
      <point x="-20" y="563" type="line"/>
    </contour>
    <contour>
      <point x="203" y="190" type="line"/>
      <point x="114" y="190" type="line"/>
      <point x="114" y="0" type="line"/>
      <point x="203" y="0" type="line"/>
    </contour>
    <contour>
      <point x="647" y="485" type="line"/>
      <point x="188" y="485" type="line" smooth="yes"/>
      <point x="135" y="485"/>
      <point x="110" y="459"/>
      <point x="110" y="406" type="curve" smooth="yes"/>
      <point x="110" y="344" type="line" smooth="yes"/>
      <point x="110" y="291"/>
      <point x="135" y="265"/>
      <point x="188" y="265" type="curve" smooth="yes"/>
      <point x="376" y="265" type="line"/>
      <point x="376" y="324" type="line"/>
      <point x="229" y="324" type="line" smooth="yes"/>
      <point x="203" y="324"/>
      <point x="198" y="329"/>
      <point x="198" y="355" type="curve" smooth="yes"/>
      <point x="198" y="395" type="line" smooth="yes"/>
      <point x="198" y="421"/>
      <point x="203" y="426"/>
      <point x="229" y="426" type="curve" smooth="yes"/>
      <point x="647" y="426" type="line"/>
    </contour>
    <contour>
      <point x="188" y="78" type="line"/>
      <point x="573" y="78" type="line" smooth="yes"/>
      <point x="626" y="78"/>
      <point x="652" y="104"/>
      <point x="652" y="157" type="curve" smooth="yes"/>
      <point x="652" y="245" type="line" smooth="yes"/>
      <point x="652" y="298"/>
      <point x="626" y="324"/>
      <point x="573" y="324" type="curve" smooth="yes"/>
      <point x="344" y="324" type="line"/>
      <point x="344" y="265" type="line"/>
      <point x="532" y="265" type="line" smooth="yes"/>
      <point x="558" y="265"/>
      <point x="563" y="260"/>
      <point x="563" y="234" type="curve" smooth="yes"/>
      <point x="563" y="168" type="line" smooth="yes"/>
      <point x="563" y="142"/>
      <point x="558" y="137"/>
      <point x="532" y="137" type="curve" smooth="yes"/>
      <point x="188" y="137" type="line"/>
    </contour>
    <contour>
      <point x="647" y="426" type="line"/>
      <point x="647" y="597" type="line"/>
      <point x="558" y="597" type="line"/>
      <point x="558" y="426" type="line"/>
    </contour>
  </outline>
</glyph>
<glyph name="dvUU" format="1">
  <advance width="1055"/>
  <unicode hex="090A"/>
  <outline>
    <contour>
      <point x="585" y="622" type="move" name="abvm.bindu"/>
    </contour>
    <contour>
      <point x="585" y="622" type="move" name="abvm.candra"/>
    </contour>
    <contour>
      <point x="983" y="260" type="line"/>
      <point x="983" y="313"/>
      <point x="957" y="339"/>
      <point x="904" y="339" type="curve" smooth="yes"/>
      <point x="507" y="339" type="line"/>
      <point x="507" y="280" type="line"/>
      <point x="863" y="280" type="line" smooth="yes"/>
      <point x="889" y="280"/>
      <point x="894" y="275"/>
      <point x="894" y="249" type="curve" smooth="yes"/>
      <point x="894" y="90" type="line" smooth="yes"/>
      <point x="894" y="64"/>
      <point x="889" y="59"/>
      <point x="863" y="59" type="curve" smooth="yes"/>
      <point x="630" y="59" type="line"/>
      <point x="630" y="0" type="line"/>
      <point x="904" y="0" type="line" smooth="yes"/>
      <point x="957" y="0"/>
      <point x="983" y="26"/>
      <point x="983" y="79" type="curve" smooth="yes"/>
    </contour>
    <contour>
      <point x="584" y="536" type="line"/>
      <point x="584" y="564"/>
      <point x="571" y="570"/>
      <point x="548" y="570" type="curve"/>
      <point x="548" y="563" type="line"/>
      <point x="1075" y="563" type="line"/>
      <point x="1075" y="622" type="line"/>
      <point x="-19" y="622" type="line"/>
      <point x="-19" y="563" type="line"/>
      <point x="464" y="563" type="line" smooth="yes"/>
      <point x="490" y="563"/>
      <point x="495" y="558"/>
      <point x="495" y="532" type="curve" smooth="yes"/>
      <point x="495" y="401" type="line" smooth="yes"/>
      <point x="495" y="375"/>
      <point x="490" y="369"/>
      <point x="464" y="369" type="curve" smooth="yes"/>
      <point x="330" y="369" type="line"/>
      <point x="330" y="310" type="line"/>
      <point x="464" y="310" type="line" smooth="yes"/>
      <point x="490" y="310"/>
      <point x="495" y="305"/>
      <point x="495" y="279" type="curve" smooth="yes"/>
      <point x="495" y="90" type="line" smooth="yes"/>
      <point x="495" y="64"/>
      <point x="490" y="59"/>
      <point x="464" y="59" type="curve" smooth="yes"/>
      <point x="216" y="59" type="line"/>
      <point x="216" y="0" type="line"/>
      <point x="505" y="0" type="line" smooth="yes"/>
      <point x="558" y="0"/>
      <point x="584" y="26"/>
      <point x="584" y="79" type="curve" smooth="yes"/>
      <point x="584" y="292" type="line" smooth="yes"/>
      <point x="584" y="323"/>
      <point x="569" y="339"/>
      <point x="543" y="341" type="curve"/>
      <point x="543" y="343" type="line"/>
      <point x="569" y="345"/>
      <point x="584" y="361"/>
      <point x="584" y="393" type="curve" smooth="yes"/>
    </contour>
    <contour>
      <point x="221" y="59" type="line"/>
      <point x="201" y="59" type="line" smooth="yes"/>
      <point x="175" y="59"/>
      <point x="170" y="64"/>
      <point x="170" y="90" type="curve" smooth="yes"/>
      <point x="170" y="206" type="line"/>
      <point x="81" y="206" type="line"/>
      <point x="81" y="79" type="line" smooth="yes"/>
      <point x="81" y="26"/>
      <point x="107" y="0"/>
      <point x="160" y="0" type="curve" smooth="yes"/>
      <point x="221" y="0" type="line"/>
    </contour>
  </outline>
</glyph>
<glyph name="dvE" format="1">
  <advance width="793"/>
  <unicode hex="090F"/>
  <outline>
    <contour>
      <point x="541" y="622" type="move" name="abvm.bindu"/>
    </contour>
    <contour>
      <point x="541" y="622" type="move" name="abvm.candra"/>
    </contour>
    <contour>
      <point x="229" y="579" type="line"/>
      <point x="140" y="579" type="line"/>
      <point x="140" y="79" type="line" smooth="yes"/>
      <point x="140" y="26"/>
      <point x="166" y="0"/>
      <point x="219" y="0" type="curve" smooth="yes"/>
      <point x="405" y="0" type="line"/>
      <point x="405" y="59" type="line"/>
      <point x="260" y="59" type="line" smooth="yes"/>
      <point x="234" y="59"/>
      <point x="229" y="64"/>
      <point x="229" y="90" type="curve" smooth="yes"/>
    </contour>
    <contour>
      <point x="813" y="622" type="line"/>
      <point x="-20" y="622" type="line"/>
      <point x="-20" y="563" type="line"/>
      <point x="813" y="563" type="line"/>
    </contour>
    <contour>
      <point x="404" y="284" type="line"/>
      <point x="598" y="284" type="line" smooth="yes"/>
      <point x="651" y="284"/>
      <point x="677" y="310"/>
      <point x="677" y="363" type="curve" smooth="yes"/>
      <point x="677" y="579" type="line"/>
      <point x="589" y="579" type="line"/>
      <point x="589" y="374" type="line" smooth="yes"/>
      <point x="589" y="348"/>
      <point x="583" y="343"/>
      <point x="557" y="343" type="curve" smooth="yes"/>
      <point x="404" y="343" type="line"/>
    </contour>
    <contour>
      <point x="394" y="0" type="line"/>
      <point x="593" y="0" type="line" smooth="yes"/>
      <point x="646" y="0"/>
      <point x="672" y="26"/>
      <point x="672" y="79" type="curve" smooth="yes"/>
      <point x="672" y="196" type="line"/>
      <point x="583" y="196" type="line"/>
      <point x="583" y="90" type="line" smooth="yes"/>
      <point x="583" y="64"/>
      <point x="578" y="59"/>
      <point x="552" y="59" type="curve" smooth="yes"/>
      <point x="394" y="59" type="line"/>
    </contour>
  </outline>
</glyph>
<glyph name="dvAI" format="1">
  <advance width="793"/>
  <unicode hex="0910"/>
  <outline>
    <contour>
      <point x="793" y="622" type="move" name="abvm.bindu"/>
    </contour>
    <component base="dvE"/>
    <component base="dvmE" xOffset="814"/>
  </outline>
</glyph>
<glyph name="dvTTHA" format="1">
  <advance width="786"/>
  <unicode hex="0920"/>
  <outline>
    <contour>
      <point x="438" y="622" type="move" name="abvm.bindu"/>
    </contour>
    <contour>
      <point x="407" y="0" type="move" name="blwm.virama"/>
    </contour>
    <contour>
      <point x="438" y="622" type="move" name="abvm.candra"/>
    </contour>
    <contour>
      <point x="438" y="622" type="move" name="abvm.e"/>
    </contour>
    <contour>
      <point x="408" y="-55" type="move" name="blwm.u"/>
    </contour>
    <contour>
      <point x="-20" y="563" type="line"/>
      <point x="806" y="563" type="line"/>
      <point x="806" y="622" type="line"/>
      <point x="-20" y="622" type="line"/>
    </contour>
    <contour>
      <point x="348" y="438" type="line"/>
      <point x="437" y="438" type="line"/>
      <point x="437" y="588" type="line"/>
      <point x="348" y="588" type="line"/>
    </contour>
    <contour>
      <point x="588" y="0" type="line"/>
      <point x="641" y="0"/>
      <point x="666" y="26"/>
      <point x="666" y="79" type="curve" smooth="yes"/>
      <point x="666" y="406" type="line" smooth="yes"/>
      <point x="666" y="459"/>
      <point x="641" y="485"/>
      <point x="588" y="485" type="curve" smooth="yes"/>
      <point x="368" y="485" type="line"/>
      <point x="368" y="426" type="line"/>
      <point x="547" y="426" type="line" smooth="yes"/>
      <point x="573" y="426"/>
      <point x="579" y="421"/>
      <point x="579" y="395" type="curve" smooth="yes"/>
      <point x="579" y="90" type="line" smooth="yes"/>
      <point x="579" y="64"/>
      <point x="573" y="59"/>
      <point x="547" y="59" type="curve" smooth="yes"/>
      <point x="370" y="59" type="line"/>
      <point x="370" y="0" type="line"/>
    </contour>
    <contour>
      <point x="199" y="0" type="curve"/>
      <point x="374" y="0" type="line"/>
      <point x="374" y="59" type="line"/>
      <point x="239" y="59" type="line" smooth="yes"/>
      <point x="213" y="59"/>
      <point x="208" y="64"/>
      <point x="208" y="90" type="curve" smooth="yes"/>
      <point x="208" y="395" type="line" smooth="yes"/>
      <point x="208" y="421"/>
      <point x="213" y="426"/>
      <point x="239" y="426" type="curve" smooth="yes"/>
      <point x="375" y="426" type="line"/>
      <point x="375" y="485" type="line"/>
      <point x="199" y="485" type="line" smooth="yes"/>
      <point x="146" y="485"/>
      <point x="120" y="459"/>
      <point x="120" y="406" type="curve" smooth="yes"/>
      <point x="120" y="79" type="line" smooth="yes"/>
      <point x="120" y="26"/>
      <point x="146" y="0"/>
    </contour>
  </outline>
</glyph>
<glyph name="dvDDA" format="1">
  <advance width="743"/>
  <unicode hex="0921"/>
  <outline>
    <contour>
      <point x="609" y="622" type="move" name="abvm.bindu"/>
    </contour>
    <contour>
      <point x="352" y="0" type="move" name="blwm.virama"/>
    </contour>
    <contour>
      <point x="609" y="622" type="move" name="abvm.candra"/>
    </contour>
    <contour>
      <point x="609" y="622" type="move" name="abvm.e"/>
    </contour>
    <contour>
      <point x="352" y="-55" type="move" name="blwm.u"/>
    </contour>
    <contour>
      <point x="763" y="563" type="line"/>
      <point x="763" y="622" type="line"/>
      <point x="-20" y="622" type="line"/>
      <point x="-20" y="563" type="line"/>
    </contour>
    <contour>
      <point x="558" y="485" type="line"/>
      <point x="194" y="485" type="line" smooth="yes"/>
      <point x="141" y="485"/>
      <point x="116" y="459"/>
      <point x="116" y="406" type="curve" smooth="yes"/>
      <point x="116" y="330" type="line" smooth="yes"/>
      <point x="116" y="277"/>
      <point x="141" y="252"/>
      <point x="194" y="252" type="curve" smooth="yes"/>
      <point x="435" y="252" type="line"/>
      <point x="435" y="311" type="line"/>
      <point x="236" y="311" type="line" smooth="yes"/>
      <point x="210" y="311"/>
      <point x="204" y="316"/>
      <point x="204" y="342" type="curve" smooth="yes"/>
      <point x="204" y="395" type="line" smooth="yes"/>
      <point x="204" y="421"/>
      <point x="210" y="426"/>
      <point x="236" y="426" type="curve" smooth="yes"/>
      <point x="558" y="426" type="line"/>
    </contour>
    <contour>
      <point x="609" y="426" type="line"/>
      <point x="609" y="594" type="line"/>
      <point x="521" y="594" type="line"/>
      <point x="521" y="426" type="line"/>
    </contour>
    <contour>
      <point x="428" y="0" type="line"/>
      <point x="554" y="0" type="line" smooth="yes"/>
      <point x="607" y="0"/>
      <point x="633" y="26"/>
      <point x="633" y="79" type="curve" smooth="yes"/>
      <point x="633" y="232" type="line" smooth="yes"/>
      <point x="633" y="285"/>
      <point x="607" y="311"/>
      <point x="554" y="311" type="curve" smooth="yes"/>
      <point x="424" y="311" type="line"/>
      <point x="424" y="252" type="line"/>
      <point x="513" y="252" type="line" smooth="yes"/>
      <point x="539" y="252"/>
      <point x="544" y="246"/>
      <point x="544" y="220" type="curve" smooth="yes"/>
      <point x="544" y="90" type="line" smooth="yes"/>
      <point x="544" y="64"/>
      <point x="539" y="59"/>
      <point x="513" y="59" type="curve" smooth="yes"/>
      <point x="428" y="59" type="line"/>
    </contour>
    <contour>
      <point x="442" y="59" type="line"/>
      <point x="239" y="59" type="line" smooth="yes"/>
      <point x="213" y="59"/>
      <point x="207" y="64"/>
      <point x="207" y="90" type="curve" smooth="yes"/>
      <point x="207" y="174" type="line"/>
      <point x="119" y="174" type="line"/>
      <point x="119" y="79" type="line" smooth="yes"/>
      <point x="119" y="26"/>
      <point x="144" y="0"/>
      <point x="197" y="0" type="curve" smooth="yes"/>
      <point x="442" y="0" type="line"/>
    </contour>
  </outline>
</glyph>
<glyph name="dvTHA" format="1">
  <advance width="1050"/>
  <unicode hex="0925"/>
  <outline>
    <contour>
      <point x="602" y="388" type="curve"/>
      <point x="602" y="543" type="line" smooth="yes"/>
      <point x="602" y="596"/>
      <point x="576" y="622"/>
      <point x="523" y="622" type="curve" smooth="yes"/>
      <point x="199" y="622" type="line" smooth="yes"/>
      <point x="146" y="622"/>
      <point x="120" y="596"/>
      <point x="120" y="543" type="curve" smooth="yes"/>
      <point x="120" y="446" type="line"/>
      <point x="208" y="446" type="line"/>
      <point x="208" y="532" type="line" smooth="yes"/>
      <point x="208" y="558"/>
      <point x="213" y="563"/>
      <point x="239" y="563" type="curve" smooth="yes"/>
      <point x="482" y="563" type="line" smooth="yes"/>
      <point x="508" y="563"/>
      <point x="514" y="558"/>
      <point x="514" y="532" type="curve" smooth="yes"/>
      <point x="514" y="400" type="line" smooth="yes"/>
      <point x="514" y="374"/>
      <point x="508" y="369"/>
      <point x="482" y="369" type="curve" smooth="yes"/>
      <point x="153" y="369" type="line"/>
      <point x="153" y="310" type="line"/>
      <point x="523" y="310" type="line" smooth="yes"/>
      <point x="576" y="310"/>
      <point x="602" y="335"/>
    </contour>
    <contour>
      <point x="1070" y="563" type="line"/>
      <point x="1070" y="622" type="line"/>
      <point x="822" y="622" type="line"/>
      <point x="822" y="563" type="line"/>
    </contour>
    <contour>
      <point x="822" y="591" type="line"/>
      <point x="822" y="0" type="line"/>
      <point x="910" y="0" type="line"/>
      <point x="910" y="591" type="line"/>
    </contour>
    <contour>
      <point x="120" y="369" type="line"/>
      <point x="120" y="157" type="line" smooth="yes"/>
      <point x="120" y="104"/>
      <point x="146" y="78"/>
      <point x="199" y="78" type="curve" smooth="yes"/>
      <point x="579" y="78" type="line"/>
      <point x="579" y="137" type="line"/>
      <point x="240" y="137" type="line" smooth="yes"/>
      <point x="214" y="137"/>
      <point x="209" y="142"/>
      <point x="209" y="168" type="curve" smooth="yes"/>
      <point x="209" y="369" type="line"/>
    </contour>
    <contour>
      <point x="549" y="78" type="line"/>
      <point x="790" y="78" type="line" smooth="yes"/>
      <point x="820" y="78"/>
      <point x="833" y="89"/>
      <point x="833" y="125" type="curve"/>
      <point x="822" y="171" type="line"/>
      <point x="822" y="145"/>
      <point x="814" y="137"/>
      <point x="788" y="137" type="curve" smooth="yes"/>
      <point x="549" y="137" type="line"/>
    </contour>
  </outline>
</glyph>
<glyph name="dvDA" format="1">
  <advance width="763"/>
  <unicode hex="0926"/>
  <outline>
    <contour>
      <point x="613" y="622" type="move" name="abvm.bindu"/>
    </contour>
    <contour>
      <point x="534" y="0" type="move" name="blwm.virama"/>
    </contour>
    <contour>
      <point x="613" y="622" type="move" name="abvm.candra"/>
    </contour>
    <contour>
      <point x="613" y="622" type="move" name="abvm.e"/>
    </contour>
    <contour>
      <point x="534" y="0" type="move" name="blwm.u"/>
    </contour>
    <contour>
      <point x="179" y="78" type="curve"/>
      <point x="490" y="78" type="line"/>
      <point x="490" y="137" type="line"/>
      <point x="220" y="137" type="line" smooth="yes"/>
      <point x="194" y="137"/>
      <point x="189" y="142"/>
      <point x="189" y="168" type="curve" smooth="yes"/>
      <point x="189" y="395" type="line" smooth="yes"/>
      <point x="189" y="421"/>
      <point x="194" y="426"/>
      <point x="220" y="426" type="curve" smooth="yes"/>
      <point x="578" y="426" type="line"/>
      <point x="578" y="485" type="line"/>
      <point x="179" y="485" type="line" smooth="yes"/>
      <point x="126" y="485"/>
      <point x="100" y="459"/>
      <point x="100" y="406" type="curve" smooth="yes"/>
      <point x="100" y="157" type="line" smooth="yes"/>
      <point x="100" y="104"/>
      <point x="126" y="78"/>
    </contour>
    <contour>
      <point x="534" y="266" type="line"/>
      <point x="534" y="0" type="line"/>
      <point x="623" y="0" type="line"/>
      <point x="623" y="266" type="line"/>
    </contour>
    <contour>
      <point x="-20" y="563" type="line"/>
      <point x="783" y="563" type="line"/>
      <point x="783" y="622" type="line"/>
      <point x="-20" y="622" type="line"/>
    </contour>
    <contour>
      <point x="613" y="426" type="line"/>
      <point x="613" y="604" type="line"/>
      <point x="525" y="604" type="line"/>
      <point x="525" y="426" type="line"/>
    </contour>
    <contour>
      <point x="230" y="78" type="line"/>
      <point x="502" y="78" type="line" smooth="yes"/>
      <point x="532" y="78"/>
      <point x="545" y="89"/>
      <point x="545" y="125" type="curve"/>
      <point x="534" y="171" type="line"/>
      <point x="534" y="145"/>
      <point x="526" y="137"/>
      <point x="500" y="137" type="curve" smooth="yes"/>
      <point x="230" y="137" type="line"/>
    </contour>
  </outline>
</glyph>
<glyph name="dvDHA" format="1">
  <advance width="1045"/>
  <unicode hex="0927"/>
  <outline>
    <contour>
      <point x="343" y="622" type="line"/>
      <point x="195" y="622" type="line" smooth="yes"/>
      <point x="142" y="622"/>
      <point x="116" y="596"/>
      <point x="116" y="543" type="curve" smooth="yes"/>
      <point x="116" y="377" type="line" smooth="yes"/>
      <point x="116" y="346"/>
      <point x="131" y="330"/>
      <point x="157" y="328" type="curve"/>
      <point x="157" y="324" type="line"/>
      <point x="131" y="322"/>
      <point x="116" y="308"/>
      <point x="116" y="276" type="curve" smooth="yes"/>
      <point x="116" y="157" type="line" smooth="yes"/>
      <point x="116" y="104"/>
      <point x="142" y="78"/>
      <point x="195" y="78" type="curve" smooth="yes"/>
      <point x="362" y="78" type="line"/>
      <point x="362" y="137" type="line"/>
      <point x="236" y="137" type="line" smooth="yes"/>
      <point x="210" y="137"/>
      <point x="205" y="142"/>
      <point x="205" y="168" type="curve" smooth="yes"/>
      <point x="205" y="269" type="line" smooth="yes"/>
      <point x="205" y="295"/>
      <point x="210" y="300"/>
      <point x="236" y="300" type="curve" smooth="yes"/>
      <point x="394" y="300" type="line"/>
      <point x="394" y="359" type="line"/>
      <point x="236" y="359" type="line" smooth="yes"/>
      <point x="210" y="359"/>
      <point x="205" y="364"/>
      <point x="205" y="390" type="curve" smooth="yes"/>
      <point x="205" y="532" type="line" smooth="yes"/>
      <point x="205" y="558"/>
      <point x="210" y="563"/>
      <point x="236" y="563" type="curve" smooth="yes"/>
      <point x="343" y="563" type="line"/>
    </contour>
    <contour>
      <point x="1065" y="563" type="line"/>
      <point x="1065" y="622" type="line"/>
      <point x="817" y="622" type="line"/>
      <point x="817" y="563" type="line"/>
    </contour>
    <contour>
      <point x="817" y="589" type="line"/>
      <point x="817" y="0" type="line"/>
      <point x="905" y="0" type="line"/>
      <point x="905" y="589" type="line"/>
    </contour>
    <contour>
      <point x="341" y="563" type="line"/>
      <point x="495" y="563" type="line" smooth="yes"/>
      <point x="521" y="563"/>
      <point x="526" y="558"/>
      <point x="526" y="532" type="curve" smooth="yes"/>
      <point x="526" y="426" type="line"/>
      <point x="607" y="426" type="line"/>
      <point x="607" y="543" type="line" smooth="yes"/>
      <point x="607" y="596"/>
      <point x="582" y="622"/>
      <point x="529" y="622" type="curve" smooth="yes"/>
      <point x="341" y="622" type="line"/>
    </contour>
    <contour>
      <point x="345" y="78" type="line"/>
      <point x="785" y="78" type="line" smooth="yes"/>
      <point x="815" y="78"/>
      <point x="828" y="89"/>
      <point x="828" y="125" type="curve"/>
      <point x="817" y="171" type="line"/>
      <point x="817" y="145"/>
      <point x="809" y="137"/>
      <point x="783" y="137" type="curve" smooth="yes"/>
      <point x="345" y="137" type="line"/>
    </contour>
  </outline>
</glyph>
<glyph name="dvPA" format="1">
  <advance width="773"/>
  <unicode hex="092A"/>
  <outline>
    <contour>
      <point x="545" y="0" type="line"/>
      <point x="633" y="0" type="line"/>
      <point x="633" y="601" type="line"/>
      <point x="545" y="601" type="line"/>
    </contour>
    <contour>
      <point x="-20" y="563" type="line"/>
      <point x="794" y="563" type="line"/>
      <point x="794" y="622" type="line"/>
      <point x="-20" y="622" type="line"/>
    </contour>
    <contour>
      <point x="120" y="599" type="line"/>
      <point x="120" y="157" type="line" smooth="yes"/>
      <point x="120" y="104"/>
      <point x="146" y="78"/>
      <point x="199" y="78" type="curve" smooth="yes"/>
      <point x="491" y="78" type="line"/>
      <point x="491" y="137" type="line"/>
      <point x="239" y="137" type="line" smooth="yes"/>
      <point x="213" y="137"/>
      <point x="208" y="142"/>
      <point x="208" y="168" type="curve" smooth="yes"/>
      <point x="208" y="599" type="line"/>
    </contour>
    <contour>
      <point x="250" y="78" type="line"/>
      <point x="513" y="78" type="line" smooth="yes"/>
      <point x="543" y="78"/>
      <point x="556" y="89"/>
      <point x="556" y="125" type="curve"/>
      <point x="545" y="171" type="line"/>
      <point x="545" y="145"/>
      <point x="537" y="137"/>
      <point x="511" y="137" type="curve" smooth="yes"/>
      <point x="250" y="137" type="line"/>
    </contour>
  </outline>
</glyph>
<glyph name="dvPHA" format="1">
  <advance width="1137"/>
  <unicode hex="092B"/>
  <outline>
    <contour>
      <point x="633" y="622" type="move" name="abvm.bindu"/>
    </contour>
    <contour>
      <point x="545" y="0" type="move" name="blwm.virama"/>
    </contour>
    <contour>
      <point x="633" y="622" type="move" name="abvm.candra"/>
    </contour>
    <contour>
      <point x="633" y="622" type="move" name="abvm.e"/>
    </contour>
    <contour>
      <point x="545" y="0" type="move" name="blwm.u"/>
    </contour>
    <contour>
      <point x="683" y="78" type="line"/>
      <point x="959" y="78" type="line" smooth="yes"/>
      <point x="1012" y="78"/>
      <point x="1038" y="104"/>
      <point x="1038" y="157" type="curve" smooth="yes"/>
      <point x="1038" y="406" type="line" smooth="yes"/>
      <point x="1038" y="459"/>
      <point x="1012" y="485"/>
      <point x="959" y="485" type="curve" smooth="yes"/>
      <point x="879" y="485" type="line"/>
      <point x="879" y="426" type="line"/>
      <point x="918" y="426" type="line" smooth="yes"/>
      <point x="944" y="426"/>
      <point x="949" y="421"/>
      <point x="949" y="395" type="curve" smooth="yes"/>
      <point x="949" y="168" type="line" smooth="yes"/>
      <point x="949" y="142"/>
      <point x="944" y="137"/>
      <point x="918" y="137" type="curve" smooth="yes"/>
      <point x="683" y="137" type="line"/>
    </contour>
    <contour>
      <point x="891" y="485" type="line"/>
      <point x="665" y="485" type="line" smooth="yes"/>
      <point x="635" y="485"/>
      <point x="622" y="474"/>
      <point x="622" y="438" type="curve"/>
      <point x="633" y="392" type="line"/>
      <point x="633" y="418"/>
      <point x="641" y="426"/>
      <point x="667" y="426" type="curve" smooth="yes"/>
      <point x="891" y="426" type="line"/>
    </contour>
    <contour>
      <point x="545" y="0" type="line"/>
      <point x="633" y="0" type="line"/>
      <point x="633" y="601" type="line"/>
      <point x="545" y="601" type="line"/>
    </contour>
    <contour>
      <point x="-20" y="563" type="line"/>
      <point x="1158" y="563" type="line"/>
      <point x="1158" y="622" type="line"/>
      <point x="-20" y="622" type="line"/>
    </contour>
    <contour>
      <point x="120" y="599" type="line"/>
      <point x="120" y="157" type="line" smooth="yes"/>
      <point x="120" y="104"/>
      <point x="146" y="78"/>
      <point x="199" y="78" type="curve" smooth="yes"/>
      <point x="491" y="78" type="line"/>
      <point x="491" y="137" type="line"/>
      <point x="239" y="137" type="line" smooth="yes"/>
      <point x="213" y="137"/>
      <point x="208" y="142"/>
      <point x="208" y="168" type="curve" smooth="yes"/>
      <point x="208" y="599" type="line"/>
    </contour>
    <contour>
      <point x="250" y="78" type="line"/>
      <point x="513" y="78" type="line" smooth="yes"/>
      <point x="543" y="78"/>
      <point x="556" y="89"/>
      <point x="556" y="125" type="curve"/>
      <point x="545" y="171" type="line"/>
      <point x="545" y="145"/>
      <point x="537" y="137"/>
      <point x="511" y="137" type="curve" smooth="yes"/>
      <point x="250" y="137" type="line"/>
    </contour>
  </outline>
</glyph>
<glyph name="dvBA" format="1">
  <advance width="832"/>
  <unicode hex="092C"/>
  <outline>
    <contour>
      <point x="603" y="592" type="line"/>
      <point x="603" y="312" type="line" smooth="yes"/>
      <point x="603" y="223"/>
      <point x="611" y="174"/>
      <point x="611" y="174" type="curve"/>
      <point x="217" y="426" type="line"/>
      <point x="562" y="426" type="line"/>
      <point x="562" y="485" type="line"/>
      <point x="179" y="485" type="line" smooth="yes"/>
      <point x="126" y="485"/>
      <point x="100" y="459"/>
      <point x="100" y="406" type="curve" smooth="yes"/>
      <point x="100" y="157" type="line" smooth="yes"/>
      <point x="100" y="104"/>
      <point x="126" y="78"/>
      <point x="179" y="78" type="curve" smooth="yes"/>
      <point x="517" y="78" type="line"/>
      <point x="517" y="137" type="line"/>
      <point x="217" y="137" type="line" smooth="yes"/>
      <point x="191" y="137"/>
      <point x="186" y="143"/>
      <point x="186" y="168" type="curve" smooth="yes"/>
      <point x="186" y="286" type="line" smooth="yes"/>
      <point x="186" y="327"/>
      <point x="183" y="388"/>
      <point x="183" y="388" type="curve"/>
      <point x="608" y="118" type="line"/>
      <point x="603" y="98" type="line"/>
      <point x="603" y="0" type="line"/>
      <point x="692" y="0" type="line"/>
      <point x="692" y="592" type="line"/>
    </contour>
    <contour>
      <point x="499" y="78" type="line"/>
      <point x="571" y="78" type="line" smooth="yes"/>
      <point x="601" y="78"/>
      <point x="614" y="89"/>
      <point x="614" y="125" type="curve"/>
      <point x="603" y="164" type="line"/>
      <point x="601" y="144"/>
      <point x="592" y="137"/>
      <point x="569" y="137" type="curve" smooth="yes"/>
      <point x="499" y="137" type="line"/>
    </contour>
    <contour>
      <point x="-20" y="563" type="line"/>
      <point x="852" y="563" type="line"/>
      <point x="852" y="622" type="line"/>
      <point x="-20" y="622" type="line"/>
    </contour>
  </outline>
</glyph>
<glyph name="dvRxA" format="1">
  <advance width="764"/>
  <unicode hex="0931"/>
  <outline>
    <contour>
      <point x="624" y="622" type="move" name="abvm.bindu"/>
    </contour>
    <contour>
      <point x="192" y="-157" type="move" name="blwm.virama"/>
    </contour>
    <contour>
      <point x="624" y="622" type="move" name="abvm.candra"/>
    </contour>
    <contour>
      <point x="624" y="622" type="move" name="abvm.e"/>
    </contour>
    <contour>
      <point x="328" y="-191" type="move" name="blwm.u"/>
    </contour>
    <component base="dvRA"/>
    <component base="dvNukta" xOffset="458"/>
  </outline>
</glyph>
<glyph name="dvSHA" format="1">
  <advance width="1113"/>
  <unicode hex="0936"/>
  <outline>
    <contour>
      <point x="266" y="563" type="line"/>
      <point x="524" y="563" type="line" smooth="yes"/>
      <point x="550" y="563"/>
      <point x="556" y="558"/>
      <point x="556" y="532" type="curve" smooth="yes"/>
      <point x="556" y="355" type="line" smooth="yes"/>
      <point x="556" y="329"/>
      <point x="550" y="324"/>
      <point x="524" y="324" type="curve" smooth="yes"/>
      <point x="191" y="324" type="line"/>
      <point x="191" y="265" type="line"/>
      <point x="566" y="265" type="line" smooth="yes"/>
      <point x="619" y="265"/>
      <point x="644" y="291"/>
      <point x="644" y="344" type="curve" smooth="yes"/>
      <point x="644" y="543" type="line" smooth="yes"/>
      <point x="644" y="596"/>
      <point x="619" y="622"/>
      <point x="566" y="622" type="curve" smooth="yes"/>
      <point x="266" y="622" type="line"/>
    </contour>
    <contour>
      <point x="884" y="0" type="line"/>
      <point x="973" y="0" type="line"/>
      <point x="973" y="583" type="line"/>
      <point x="884" y="583" type="line"/>
    </contour>
    <contour>
      <point x="884" y="563" type="line"/>
      <point x="1133" y="563" type="line"/>
      <point x="1133" y="622" type="line"/>
      <point x="884" y="622" type="line"/>
    </contour>
    <contour>
      <point x="517" y="59" type="line"/>
      <point x="260" y="59" type="line" smooth="yes"/>
      <point x="234" y="59"/>
      <point x="229" y="64"/>
      <point x="229" y="90" type="curve" smooth="yes"/>
      <point x="229" y="373" type="line"/>
      <point x="140" y="373" type="line"/>
      <point x="140" y="79" type="line" smooth="yes"/>
      <point x="140" y="26"/>
      <point x="166" y="0"/>
      <point x="219" y="0" type="curve" smooth="yes"/>
      <point x="517" y="0" type="line"/>
    </contour>
    <contour>
      <point x="270" y="0" type="line"/>
      <point x="565" y="0" type="line" smooth="yes"/>
      <point x="618" y="0"/>
      <point x="644" y="26"/>
      <point x="644" y="79" type="curve" smooth="yes"/>
      <point x="644" y="195" type="line"/>
      <point x="555" y="195" type="line"/>
      <point x="555" y="90" type="line" smooth="yes"/>
      <point x="555" y="64"/>
      <point x="550" y="59"/>
      <point x="524" y="59" type="curve" smooth="yes"/>
      <point x="270" y="59" type="line"/>
    </contour>
    <contour>
      <point x="514" y="622" type="line"/>
      <point x="219" y="622" type="line" smooth="yes"/>
      <point x="166" y="622"/>
      <point x="140" y="596"/>
      <point x="140" y="543" type="curve" smooth="yes"/>
      <point x="140" y="448" type="line"/>
      <point x="228" y="448" type="line"/>
      <point x="228" y="532" type="line" smooth="yes"/>
      <point x="228" y="558"/>
      <point x="234" y="563"/>
      <point x="260" y="563" type="curve" smooth="yes"/>
      <point x="514" y="563" type="line"/>
    </contour>
  </outline>
</glyph>
<glyph name="dvSSA" format="1">
  <advance width="834"/>
  <unicode hex="0937"/>
  <outline>
    <contour>
      <point x="120" y="596" type="line"/>
      <point x="120" y="157" type="line" smooth="yes"/>
      <point x="120" y="104"/>
      <point x="146" y="78"/>
      <point x="199" y="78" type="curve" smooth="yes"/>
      <point x="280" y="78" type="line"/>
      <point x="280" y="137" type="line"/>
      <point x="238" y="137" type="line" smooth="yes"/>
      <point x="212" y="137"/>
      <point x="207" y="142"/>
      <point x="207" y="168" type="curve" smooth="yes"/>
      <point x="207" y="376" type="line" smooth="yes"/>
      <point x="207" y="447"/>
      <point x="201" y="499"/>
      <point x="201" y="499" type="curve"/>
      <point x="613" y="136" type="line"/>
      <point x="609" y="117" type="line"/>
      <point x="609" y="0" type="line"/>
      <point x="695" y="0" type="line"/>
      <point x="695" y="599" type="line"/>
      <point x="610" y="599" type="line"/>
      <point x="610" y="342" type="line" smooth="yes"/>
      <point x="610" y="259"/>
      <point x="616" y="198"/>
      <point x="616" y="198" type="curve"/>
      <point x="202" y="563" type="line"/>
      <point x="202" y="596" type="line"/>
    </contour>
    <contour>
      <point x="-20" y="563" type="line"/>
      <point x="854" y="563" type="line"/>
      <point x="854" y="622" type="line"/>
      <point x="-20" y="622" type="line"/>
    </contour>
    <contour>
      <point x="270" y="78" type="line"/>
      <point x="577" y="78" type="line" smooth="yes"/>
      <point x="607" y="78"/>
      <point x="620" y="89"/>
      <point x="620" y="125" type="curve"/>
      <point x="609" y="171" type="line"/>
      <point x="609" y="145"/>
      <point x="601" y="137"/>
      <point x="575" y="137" type="curve" smooth="yes"/>
      <point x="270" y="137" type="line"/>
    </contour>
  </outline>
</glyph>
<glyph name="dvHA" format="1">
  <advance width="770"/>
  <unicode hex="0939"/>
  <outline>
    <contour>
      <point x="631" y="622" type="move" name="abvm.bindu"/>
    </contour>
    <contour>
      <point x="366" y="0" type="move" name="blwm.virama"/>
    </contour>
    <contour>
      <point x="631" y="622" type="move" name="abvm.candra"/>
    </contour>
    <contour>
      <point x="631" y="622" type="move" name="abvm.e"/>
    </contour>
    <contour>
      <point x="378" y="-55" type="move" name="blwm.u"/>
    </contour>
    <contour>
      <point x="790" y="563" type="line"/>
      <point x="790" y="622" type="line"/>
      <point x="-20" y="622" type="line"/>
      <point x="-20" y="563" type="line"/>
    </contour>
    <contour>
      <point x="543" y="595" type="line"/>
      <point x="543" y="456" type="line"/>
      <point x="631" y="456" type="line"/>
      <point x="631" y="595" type="line"/>
    </contour>
    <contour>
      <point x="291" y="265" type="line"/>
      <point x="532" y="265" type="line" smooth="yes"/>
      <point x="558" y="265"/>
      <point x="563" y="259"/>
      <point x="563" y="234" type="curve" smooth="yes"/>
      <point x="563" y="142" type="line"/>
      <point x="650" y="142" type="line"/>
      <point x="650" y="244" type="line" smooth="yes"/>
      <point x="650" y="298"/>
      <point x="623" y="324"/>
      <point x="570" y="324" type="curve" smooth="yes"/>
      <point x="291" y="324" type="line"/>
    </contour>
    <contour>
      <point x="631" y="485" type="line"/>
      <point x="207" y="485" type="line" smooth="yes"/>
      <point x="154" y="485"/>
      <point x="128" y="459"/>
      <point x="128" y="406" type="curve" smooth="yes"/>
      <point x="128" y="342" type="line" smooth="yes"/>
      <point x="128" y="311"/>
      <point x="143" y="295"/>
      <point x="169" y="294" type="curve"/>
      <point x="169" y="290" type="line"/>
      <point x="143" y="288"/>
      <point x="128" y="273"/>
      <point x="128" y="241" type="curve" smooth="yes"/>
      <point x="128" y="79" type="line" smooth="yes"/>
      <point x="128" y="26"/>
      <point x="154" y="0"/>
      <point x="207" y="0" type="curve" smooth="yes"/>
      <point x="648" y="0" type="line"/>
      <point x="648" y="59" type="line"/>
      <point x="248" y="59" type="line" smooth="yes"/>
      <point x="222" y="59"/>
      <point x="217" y="64"/>
      <point x="217" y="90" type="curve" smooth="yes"/>
      <point x="217" y="234" type="line" smooth="yes"/>
      <point x="217" y="260"/>
      <point x="222" y="265"/>
      <point x="248" y="265" type="curve" smooth="yes"/>
      <point x="303" y="265" type="line"/>
      <point x="303" y="324" type="line"/>
      <point x="248" y="324" type="line" smooth="yes"/>
      <point x="222" y="324"/>
      <point x="217" y="329"/>
      <point x="217" y="355" type="curve" smooth="yes"/>
      <point x="217" y="395" type="line" smooth="yes"/>
      <point x="217" y="421"/>
      <point x="222" y="426"/>
      <point x="248" y="426" type="curve" smooth="yes"/>
      <point x="631" y="426" type="line"/>
    </contour>
  </outline>
</glyph>
<glyph name="dvAvagraha" format="1">
  <advance width="708"/>
  <unicode hex="093D"/>
  <outline>
    <contour>
      <point x="598" y="622" type="line"/>
      <point x="194" y="622" type="line" smooth="yes"/>
      <point x="141" y="622"/>
      <point x="116" y="596"/>
      <point x="116" y="543" type="curve" smooth="yes"/>
      <point x="116" y="386" type="line" smooth="yes"/>
      <point x="116" y="333"/>
      <point x="141" y="308"/>
      <point x="194" y="308" type="curve" smooth="yes"/>
      <point x="405" y="308" type="line"/>
      <point x="405" y="367" type="line"/>
      <point x="236" y="367" type="line" smooth="yes"/>
      <point x="210" y="367"/>
      <point x="204" y="372"/>
      <point x="204" y="398" type="curve" smooth="yes"/>
      <point x="204" y="532" type="line" smooth="yes"/>
      <point x="204" y="558"/>
      <point x="210" y="563"/>
      <point x="236" y="563" type="curve" smooth="yes"/>
      <point x="598" y="563" type="line"/>
    </contour>
    <contour>
      <point x="398" y="0" type="line"/>
      <point x="524" y="0" type="line" smooth="yes"/>
      <point x="577" y="0"/>
      <point x="603" y="26"/>
      <point x="603" y="79" type="curve" smooth="yes"/>
      <point x="603" y="288" type="line" smooth="yes"/>
      <point x="603" y="341"/>
      <point x="577" y="367"/>
      <point x="524" y="367" type="curve" smooth="yes"/>
      <point x="394" y="367" type="line"/>
      <point x="394" y="308" type="line"/>
      <point x="483" y="308" type="line" smooth="yes"/>
      <point x="509" y="308"/>
      <point x="514" y="302"/>
      <point x="514" y="276" type="curve" smooth="yes"/>
      <point x="514" y="90" type="line" smooth="yes"/>
      <point x="514" y="64"/>
      <point x="509" y="59"/>
      <point x="483" y="59" type="curve" smooth="yes"/>
      <point x="398" y="59" type="line"/>
    </contour>
    <contour>
      <point x="412" y="59" type="line"/>
      <point x="239" y="59" type="line" smooth="yes"/>
      <point x="213" y="59"/>
      <point x="207" y="65"/>
      <point x="207" y="91" type="curve" smooth="yes"/>
      <point x="207" y="185" type="line"/>
      <point x="119" y="185" type="line"/>
      <point x="119" y="80" type="line" smooth="yes"/>
      <point x="119" y="27"/>
      <point x="144" y="0"/>
      <point x="197" y="0" type="curve" smooth="yes"/>
      <point x="412" y="0" type="line"/>
    </contour>
  </outline>
</glyph>
<glyph name="dvmI" format="1">
  <advance width="369"/>
  <unicode hex="093F"/>
  <outline>
    <contour>
      <point x="389" y="622" type="line"/>
      <point x="-20" y="622" type="line"/>
      <point x="-20" y="563" type="line"/>
      <point x="389" y="563" type="line"/>
    </contour>
    <contour>
      <point x="229" y="594" type="line"/>
      <point x="140" y="594" type="line"/>
      <point x="140" y="0" type="line"/>
      <point x="229" y="0" type="line"/>
    </contour>
    <contour>
      <point x="229" y="574" type="line"/>
      <point x="229" y="727" type="line" smooth="yes"/>
      <point x="229" y="753"/>
      <point x="234" y="758"/>
      <point x="260" y="758" type="curve" smooth="yes"/>
      <point x="726" y="758" type="line"/>
      <point x="726" y="817" type="line"/>
      <point x="219" y="817" type="line" smooth="yes"/>
      <point x="166" y="817"/>
      <point x="140" y="791"/>
      <point x="140" y="738" type="curve" smooth="yes"/>
      <point x="140" y="574" type="line"/>
    </contour>
    <contour>
      <point x="949" y="667" type="line"/>
      <point x="949" y="738" type="line" smooth="yes"/>
      <point x="949" y="791"/>
      <point x="924" y="817"/>
      <point x="871" y="817" type="curve" smooth="yes"/>
      <point x="713" y="817" type="line"/>
      <point x="713" y="758" type="line"/>
      <point x="830" y="758" type="line" smooth="yes"/>
      <point x="856" y="758"/>
      <point x="861" y="753"/>
      <point x="861" y="727" type="curve" smooth="yes"/>
      <point x="861" y="667" type="line"/>
    </contour>
  </outline>
</glyph>
<glyph name="dvmvR" format="1">
  <advance width="0"/>
  <unicode hex="0943"/>
  <outline>
    <contour>
      <point x="-229" y="0" type="move" name="_blwm.u"/>
    </contour>
    <contour>
      <point x="-360" y="-131" type="line"/>
      <point x="-360" y="-92" type="line" smooth="yes"/>
      <point x="-360" y="-68"/>
      <point x="-352" y="-59"/>
      <point x="-326" y="-59" type="curve" smooth="yes"/>
      <point x="-60" y="-59" type="line"/>
      <point x="-60" y="0" type="line"/>
      <point x="-374" y="0" type="line" smooth="yes"/>
      <point x="-427" y="0"/>
      <point x="-449" y="-22"/>
      <point x="-449" y="-75" type="curve" smooth="yes"/>
      <point x="-449" y="-130" type="line"/>
    </contour>
    <contour>
      <point x="-449" y="-120" type="line"/>
      <point x="-449" y="-195" type="line" smooth="yes"/>
      <point x="-449" y="-248"/>
      <point x="-427" y="-270"/>
      <point x="-374" y="-270" type="curve" smooth="yes"/>
      <point x="-15" y="-270" type="line"/>
      <point x="-15" y="-211" type="line"/>
      <point x="-326" y="-211" type="line" smooth="yes"/>
      <point x="-352" y="-211"/>
      <point x="-360" y="-202"/>
      <point x="-360" y="-178" type="curve" smooth="yes"/>
      <point x="-360" y="-121" type="line"/>
    </contour>
  </outline>
</glyph>
<glyph name="dvmvRR" format="1">
  <advance width="0"/>
  <unicode hex="0944"/>
  <outline>
    <contour>
      <point x="-319" y="0" type="move" name="_blwm.u"/>
    </contour>
    <contour>
      <point x="-26" y="-212" type="line"/>
      <point x="-321" y="-212" type="line" smooth="yes"/>
      <point x="-347" y="-212"/>
      <point x="-355" y="-203"/>
      <point x="-355" y="-179" type="curve" smooth="yes"/>
      <point x="-355" y="-92" type="line" smooth="yes"/>
      <point x="-355" y="-68"/>
      <point x="-347" y="-59"/>
      <point x="-321" y="-59" type="curve" smooth="yes"/>
      <point x="-55" y="-59" type="line"/>
      <point x="-55" y="0" type="line"/>
      <point x="-369" y="0" type="line" smooth="yes"/>
      <point x="-422" y="0"/>
      <point x="-444" y="-22"/>
      <point x="-444" y="-75" type="curve" smooth="yes"/>
      <point x="-444" y="-176" type="line" smooth="yes"/>
      <point x="-444" y="-229"/>
      <point x="-407" y="-261"/>
      <point x="-349" y="-261" type="curve" smooth="yes"/>
      <point x="-26" y="-261" type="line"/>
    </contour>
    <contour>
      <point x="-26" y="-424" type="line"/>
      <point x="-321" y="-424" type="line" smooth="yes"/>
      <point x="-347" y="-424"/>
      <point x="-355" y="-415"/>
      <point x="-355" y="-391" type="curve" smooth="yes"/>
      <point x="-355" y="-304" type="line" smooth="yes"/>
      <point x="-355" y="-280"/>
      <point x="-347" y="-271"/>
      <point x="-321" y="-271" type="curve" smooth="yes"/>
      <point x="-26" y="-271" type="line"/>
      <point x="-26" y="-222" type="line"/>
      <point x="-349" y="-222" type="line" smooth="yes"/>
      <point x="-407" y="-222"/>
      <point x="-444" y="-254"/>
      <point x="-444" y="-307" type="curve" smooth="yes"/>
      <point x="-444" y="-408" type="line" smooth="yes"/>
      <point x="-444" y="-461"/>
      <point x="-422" y="-483"/>
      <point x="-369" y="-483" type="curve" smooth="yes"/>
      <point x="-26" y="-483" type="line"/>
    </contour>
  </outline>
</glyph>
<glyph name="dvmEcandra" format="1">
  <advance width="0"/>
  <unicode hex="0945"/>
  <outline>
    <contour>
      <point x="-55" y="622" type="move" name="_abvm.candra"/>
    </contour>
    <contour>
      <point x="-90" y="744" type="line"/>
      <point x="-227" y="744" type="line" smooth="yes"/>
      <point x="-253" y="744"/>
      <point x="-258" y="749"/>
      <point x="-258" y="775" type="curve" smooth="yes"/>
      <point x="-258" y="852" type="line"/>
      <point x="-341" y="852" type="line"/>
      <point x="-341" y="763" type="line" smooth="yes"/>
      <point x="-341" y="710"/>
      <point x="-315" y="685"/>
      <point x="-262" y="685" type="curve" smooth="yes"/>
      <point x="-90" y="685" type="line"/>
    </contour>
    <contour>
      <point x="-104" y="685" type="line"/>
      <point x="59" y="685" type="line" smooth="yes"/>
      <point x="112" y="685"/>
      <point x="137" y="710"/>
      <point x="137" y="763" type="curve" smooth="yes"/>
      <point x="137" y="852" type="line"/>
      <point x="54" y="852" type="line"/>
      <point x="54" y="775" type="line" smooth="yes"/>
      <point x="54" y="749"/>
      <point x="49" y="744"/>
      <point x="23" y="744" type="curve" smooth="yes"/>
      <point x="-104" y="744" type="line"/>
    </contour>
  </outline>
</glyph>
<glyph name="dvmE" format="1">
  <advance width="0"/>
  <unicode hex="0947"/>
  <outline>
    <contour>
      <point x="-140" y="622" type="move" name="_abvm.e"/>
    </contour>
    <contour>
      <point x="-132" y="612" type="line"/>
      <point x="-305" y="817" type="line"/>
      <point x="-408" y="817" type="line"/>
      <point x="-326" y="719" type="line" smooth="yes"/>
      <point x="-285" y="670"/>
      <point x="-242" y="632"/>
      <point x="-218" y="612" type="curve"/>
    </contour>
  </outline>
</glyph>
<glyph name="dvDDHxA" format="1">
  <advance width="789"/>
  <unicode hex="095D"/>
  <outline>
    <contour>
      <point x="618" y="622" type="move" name="abvm.bindu"/>
    </contour>
    <contour>
      <point x="391" y="-157" type="move" name="blwm.virama"/>
    </contour>
    <contour>
      <point x="618" y="622" type="move" name="abvm.candra"/>
    </contour>
    <contour>
      <point x="618" y="622" type="move" name="abvm.e"/>
    </contour>
    <contour>
      <point x="417" y="-200" type="move" name="blwm.u"/>
    </contour>
    <component base="dvDDHA"/>
    <component base="dvNukta" xOffset="657"/>
  </outline>
</glyph>
<glyph name="doubledanda" format="1">
  <advance width="798"/>
  <unicode hex="0965"/>
  <outline>
    <contour>
      <point x="200" y="0" type="line"/>
      <point x="289" y="0" type="line"/>
      <point x="289" y="622" type="line"/>
      <point x="200" y="622" type="line"/>
    </contour>
    <contour>
      <point x="569" y="0" type="line"/>
      <point x="658" y="0" type="line"/>
      <point x="658" y="622" type="line"/>
      <point x="569" y="622" type="line"/>
    </contour>
  </outline>
</glyph>
<glyph name="dvTwo" format="1">
  <advance width="772"/>
  <unicode hex="0968"/>
  <outline>
    <contour>
      <point x="258" y="59" type="line"/>
      <point x="541" y="309" type="line"/>
      <point x="598" y="360"/>
      <point x="639" y="400"/>
      <point x="639" y="500" type="curve" smooth="yes"/>
      <point x="639" y="544" type="line" smooth="yes"/>
      <point x="639" y="591"/>
      <point x="617" y="622"/>
      <point x="561" y="622" type="curve" smooth="yes"/>
      <point x="216" y="622" type="line" smooth="yes"/>
      <point x="160" y="622"/>
      <point x="138" y="592"/>
      <point x="138" y="544" type="curve" smooth="yes"/>
      <point x="138" y="403" type="line"/>
      <point x="226" y="403" type="line"/>
      <point x="226" y="531" type="line" smooth="yes"/>
      <point x="226" y="555"/>
      <point x="229" y="563"/>
      <point x="255" y="563" type="curve" smooth="yes"/>
      <point x="522" y="563" type="line" smooth="yes"/>
      <point x="547" y="563"/>
      <point x="550" y="555"/>
      <point x="550" y="531" type="curve" smooth="yes"/>
      <point x="550" y="498" type="line" smooth="yes"/>
      <point x="550" y="438"/>
      <point x="526" y="405"/>
      <point x="472" y="358" type="curve" smooth="yes"/>
      <point x="132" y="58" type="line"/>
      <point x="132" y="0" type="line"/>
      <point x="643" y="0" type="line"/>
      <point x="643" y="59" type="line"/>
    </contour>
  </outline>
</glyph>
<glyph name="dvThree" format="1">
  <advance width="733"/>
  <unicode hex="0969"/>
  <outline>
    <contour>
      <point x="501" y="63" type="curve"/>
      <point x="222" y="63" type="line" smooth="yes"/>
      <point x="197" y="63"/>
      <point x="194" y="71"/>
      <point x="194" y="95" type="curve" smooth="yes"/>
      <point x="194" y="187" type="line"/>
      <point x="105" y="187" type="line"/>
      <point x="105" y="78" type="line" smooth="yes"/>
      <point x="105" y="30"/>
      <point x="127" y="0"/>
      <point x="183" y="0" type="curve" smooth="yes"/>
      <point x="540" y="0" type="line" smooth="yes"/>
      <point x="596" y="0"/>
      <point x="618" y="31"/>
      <point x="618" y="79" type="curve" smooth="yes"/>
      <point x="618" y="243" type="line" smooth="yes"/>
      <point x="618" y="292"/>
      <point x="596" y="306"/>
      <point x="566" y="309" type="curve"/>
      <point x="566" y="313" type="line"/>
      <point x="590" y="317"/>
      <point x="618" y="328"/>
      <point x="618" y="381" type="curve" smooth="yes"/>
      <point x="618" y="544" type="line" smooth="yes"/>
      <point x="618" y="591"/>
      <point x="596" y="622"/>
      <point x="540" y="622" type="curve" smooth="yes"/>
      <point x="183" y="622" type="line" smooth="yes"/>
      <point x="127" y="622"/>
      <point x="105" y="592"/>
      <point x="105" y="544" type="curve" smooth="yes"/>
      <point x="105" y="437" type="line"/>
      <point x="193" y="437" type="line"/>
      <point x="193" y="526" type="line" smooth="yes"/>
      <point x="193" y="550"/>
      <point x="196" y="559"/>
      <point x="222" y="559" type="curve" smooth="yes"/>
      <point x="501" y="559" type="line" smooth="yes"/>
      <point x="527" y="559"/>
      <point x="531" y="550"/>
      <point x="531" y="526" type="curve" smooth="yes"/>
      <point x="531" y="377" type="line" smooth="yes"/>
      <point x="531" y="353"/>
      <point x="522" y="341"/>
      <point x="496" y="341" type="curve" smooth="yes"/>
      <point x="372" y="341" type="line"/>
      <point x="372" y="281" type="line"/>
      <point x="494" y="281" type="line" smooth="yes"/>
      <point x="520" y="281"/>
      <point x="531" y="269"/>
      <point x="531" y="245" type="curve" smooth="yes"/>
      <point x="531" y="95" type="line" smooth="yes"/>
      <point x="531" y="71"/>
      <point x="527" y="63"/>
    </contour>
  </outline>
</glyph>
<glyph name="dvFive" format="1">
  <advance width="732"/>
  <unicode hex="096B"/>
  <outline>
    <contour>
      <point x="206" y="332" type="line"/>
      <point x="206" y="563" type="line"/>
      <point x="612" y="563" type="line"/>
      <point x="612" y="622" type="line"/>
      <point x="118" y="622" type="line"/>
      <point x="118" y="332" type="line"/>
    </contour>
    <contour>
      <point x="182" y="332" type="line"/>
      <point x="506" y="332" type="line" smooth="yes"/>
      <point x="532" y="332"/>
      <point x="535" y="324"/>
      <point x="535" y="300" type="curve" smooth="yes"/>
      <point x="535" y="91" type="line" smooth="yes"/>
      <point x="535" y="67"/>
      <point x="532" y="59"/>
      <point x="506" y="59" type="curve" smooth="yes"/>
      <point x="235" y="59" type="line" smooth="yes"/>
      <point x="210" y="59"/>
      <point x="207" y="67"/>
      <point x="207" y="91" type="curve" smooth="yes"/>
      <point x="207" y="209" type="line"/>
      <point x="118" y="209" type="line"/>
      <point x="118" y="78" type="line" smooth="yes"/>
      <point x="118" y="30"/>
      <point x="140" y="0"/>
      <point x="196" y="0" type="curve" smooth="yes"/>
      <point x="545" y="0" type="line" smooth="yes"/>
      <point x="602" y="0"/>
      <point x="623" y="31"/>
      <point x="623" y="79" type="curve" smooth="yes"/>
      <point x="623" y="313" type="line" smooth="yes"/>
      <point x="623" y="361"/>
      <point x="602" y="391"/>
      <point x="545" y="391" type="curve" smooth="yes"/>
      <point x="182" y="391" type="line"/>
    </contour>
  </outline>
</glyph>
<glyph name="dvSix" format="1">
  <advance width="752"/>
  <unicode hex="096C"/>
  <outline>
    <contour>
      <point x="173" y="297" type="line"/>
      <point x="519" y="297" type="line" smooth="yes"/>
      <point x="545" y="297"/>
      <point x="549" y="288"/>
      <point x="549" y="264" type="curve" smooth="yes"/>
      <point x="549" y="91" type="line" smooth="yes"/>
      <point x="549" y="67"/>
      <point x="545" y="59"/>
      <point x="519" y="59" type="curve" smooth="yes"/>
      <point x="254" y="59" type="line"/>
      <point x="254" y="0" type="line"/>
      <point x="559" y="0" type="line" smooth="yes"/>
      <point x="615" y="0"/>
      <point x="637" y="30"/>
      <point x="637" y="78" type="curve" smooth="yes"/>
      <point x="637" y="278" type="line" smooth="yes"/>
      <point x="637" y="325"/>
      <point x="615" y="355"/>
      <point x="559" y="355" type="curve" smooth="yes"/>
      <point x="173" y="355" type="line"/>
    </contour>
    <contour>
      <point x="505" y="59" type="line"/>
      <point x="237" y="59" type="line" smooth="yes"/>
      <point x="211" y="59"/>
      <point x="208" y="67"/>
      <point x="208" y="91" type="curve" smooth="yes"/>
      <point x="208" y="531" type="line" smooth="yes"/>
      <point x="208" y="555"/>
      <point x="211" y="563"/>
      <point x="237" y="563" type="curve" smooth="yes"/>
      <point x="505" y="563" type="line"/>
      <point x="505" y="622" type="line"/>
      <point x="198" y="622" type="line" smooth="yes"/>
      <point x="142" y="622"/>
      <point x="120" y="592"/>
      <point x="120" y="544" type="curve" smooth="yes"/>
      <point x="120" y="78" type="line" smooth="yes"/>
      <point x="120" y="30"/>
      <point x="142" y="0"/>
      <point x="198" y="0" type="curve" smooth="yes"/>
      <point x="505" y="0" type="line"/>
    </contour>
    <contour>
      <point x="262" y="563" type="line"/>
      <point x="519" y="563" type="line" smooth="yes"/>
      <point x="545" y="563"/>
      <point x="548" y="555"/>
      <point x="548" y="531" type="curve" smooth="yes"/>
      <point x="548" y="428" type="line"/>
      <point x="636" y="428" type="line"/>
      <point x="636" y="544" type="line" smooth="yes"/>
      <point x="636" y="592"/>
      <point x="614" y="622"/>
      <point x="558" y="622" type="curve" smooth="yes"/>
      <point x="262" y="622" type="line"/>
    </contour>
  </outline>
</glyph>
<glyph name="dvNine" format="1">
  <advance width="752"/>
  <unicode hex="096F"/>
  <outline>
    <contour>
      <point x="579" y="316" type="line"/>
      <point x="232" y="316" type="line" smooth="yes"/>
      <point x="206" y="316"/>
      <point x="203" y="324"/>
      <point x="203" y="348" type="curve" smooth="yes"/>
      <point x="203" y="531" type="line" smooth="yes"/>
      <point x="203" y="555"/>
      <point x="206" y="563"/>
      <point x="232" y="563" type="curve" smooth="yes"/>
      <point x="497" y="563" type="line"/>
      <point x="497" y="622" type="line"/>
      <point x="193" y="622" type="line" smooth="yes"/>
      <point x="137" y="622"/>
      <point x="115" y="592"/>
      <point x="115" y="544" type="curve" smooth="yes"/>
      <point x="115" y="335" type="line" smooth="yes"/>
      <point x="115" y="287"/>
      <point x="137" y="257"/>
      <point x="193" y="257" type="curve" smooth="yes"/>
      <point x="579" y="257" type="line"/>
    </contour>
    <contour>
      <point x="247" y="563" type="line"/>
      <point x="514" y="563" type="line" smooth="yes"/>
      <point x="540" y="563"/>
      <point x="544" y="555"/>
      <point x="544" y="531" type="curve" smooth="yes"/>
      <point x="544" y="91" type="line" smooth="yes"/>
      <point x="544" y="67"/>
      <point x="540" y="59"/>
      <point x="514" y="59" type="curve" smooth="yes"/>
      <point x="248" y="59" type="line"/>
      <point x="248" y="0" type="line"/>
      <point x="554" y="0" type="line" smooth="yes"/>
      <point x="610" y="0"/>
      <point x="632" y="30"/>
      <point x="632" y="78" type="curve" smooth="yes"/>
      <point x="632" y="544" type="line" smooth="yes"/>
      <point x="632" y="592"/>
      <point x="610" y="622"/>
      <point x="554" y="622" type="curve" smooth="yes"/>
      <point x="247" y="622" type="line"/>
    </contour>
    <contour>
      <point x="490" y="59" type="line"/>
      <point x="233" y="59" type="line" smooth="yes"/>
      <point x="207" y="59"/>
      <point x="204" y="67"/>
      <point x="204" y="91" type="curve" smooth="yes"/>
      <point x="204" y="185" type="line"/>
      <point x="116" y="185" type="line"/>
      <point x="116" y="78" type="line" smooth="yes"/>
      <point x="116" y="30"/>
      <point x="138" y="0"/>
      <point x="194" y="0" type="curve" smooth="yes"/>
      <point x="490" y="0" type="line"/>
    </contour>
  </outline>
</glyph>
<glyph name="dvAbbreviationsign" format="1">
  <advance width="662"/>
  <unicode hex="0970"/>
  <outline>
    <contour>
      <point x="562" y="276" type="line"/>
      <point x="562" y="353" type="line" smooth="yes"/>
      <point x="562" y="406"/>
      <point x="537" y="432"/>
      <point x="484" y="432" type="curve" smooth="yes"/>
      <point x="179" y="432" type="line" smooth="yes"/>
      <point x="126" y="432"/>
      <point x="100" y="406"/>
      <point x="100" y="353" type="curve" smooth="yes"/>
      <point x="100" y="276" type="line"/>
      <point x="178" y="276" type="line"/>
      <point x="178" y="344" type="line" smooth="yes"/>
      <point x="178" y="370"/>
      <point x="184" y="375"/>
      <point x="210" y="375" type="curve" smooth="yes"/>
      <point x="453" y="375" type="line" smooth="yes"/>
      <point x="479" y="375"/>
      <point x="484" y="370"/>
      <point x="484" y="344" type="curve" smooth="yes"/>
      <point x="484" y="276" type="line"/>
    </contour>
    <contour>
      <point x="484" y="286" type="line"/>
      <point x="484" y="218" type="line" smooth="yes"/>
      <point x="484" y="192"/>
      <point x="479" y="187"/>
      <point x="453" y="187" type="curve" smooth="yes"/>
      <point x="210" y="187" type="line" smooth="yes"/>
      <point x="184" y="187"/>
      <point x="178" y="192"/>
      <point x="178" y="218" type="curve" smooth="yes"/>
      <point x="178" y="286" type="line"/>
      <point x="100" y="286" type="line"/>
      <point x="100" y="209" type="line" smooth="yes"/>
      <point x="100" y="156"/>
      <point x="126" y="130"/>
      <point x="179" y="130" type="curve" smooth="yes"/>
      <point x="484" y="130" type="line" smooth="yes"/>
      <point x="537" y="130"/>
      <point x="562" y="156"/>
      <point x="562" y="209" type="curve" smooth="yes"/>
      <point x="562" y="286" type="line"/>
    </contour>
  </outline>
</glyph>
<glyph name="endash" format="1">
  <advance width="577"/>
  <unicode hex="2013"/>
  <outline>
    <contour>
      <point x="60" y="262" type="line"/>
      <point x="517" y="262" type="line"/>
      <point x="517" y="321" type="line"/>
      <point x="60" y="321" type="line"/>
    </contour>
  </outline>
</glyph>
<glyph name="quoteright" format="1">
  <advance width="209"/>
  <unicode hex="2019"/>
  <outline>
    <contour>
      <point x="60" y="622" type="line"/>
      <point x="159" y="622" type="line"/>
      <point x="159" y="562" type="line"/>
      <point x="93" y="369" type="line"/>
      <point x="60" y="369" type="line"/>
    </contour>
  </outline>
</glyph>
<glyph name="quotesinglbase" format="1">
  <advance width="209"/>
  <unicode hex="201A"/>
  <outline>
    <contour>
      <point x="60" y="118" type="line"/>
      <point x="159" y="118" type="line"/>
      <point x="159" y="58" type="line"/>
      <point x="93" y="-135" type="line"/>
      <point x="60" y="-135" type="line"/>
    </contour>
  </outline>
</glyph>
<glyph name="quotedblleft" format="1">
  <advance width="358"/>
  <unicode hex="201C"/>
  <outline>
    <contour>
      <point x="298" y="369" type="line"/>
      <point x="199" y="369" type="line"/>
      <point x="199" y="429" type="line"/>
      <point x="266" y="622" type="line"/>
      <point x="298" y="622" type="line"/>
    </contour>
    <contour>
      <point x="149" y="369" type="line"/>
      <point x="50" y="369" type="line"/>
      <point x="50" y="429" type="line"/>
      <point x="117" y="622" type="line"/>
      <point x="149" y="622" type="line"/>
    </contour>
  </outline>
</glyph>
<glyph name="bullet" format="1">
  <advance width="430"/>
  <unicode hex="2022"/>
  <outline>
    <contour>
      <point x="215" y="449" type="curve" smooth="yes"/>
      <point x="141" y="449"/>
      <point x="80" y="391"/>
      <point x="80" y="320" type="curve" smooth="yes"/>
      <point x="80" y="249"/>
      <point x="141" y="191"/>
      <point x="215" y="191" type="curve" smooth="yes"/>
      <point x="290" y="191"/>
      <point x="350" y="249"/>
      <point x="350" y="320" type="curve" smooth="yes"/>
      <point x="350" y="391"/>
      <point x="290" y="449"/>
    </contour>
  </outline>
</glyph>
<glyph name="guilsinglright" format="1">
  <advance width="313"/>
  <unicode hex="203A"/>
  <outline>
    <contour>
      <point x="259" y="260" type="line"/>
      <point x="135" y="415" type="line"/>
      <point x="41" y="415" type="line"/>
      <point x="167" y="259" type="line"/>
      <point x="41" y="105" type="line"/>
      <point x="135" y="105" type="line"/>
    </contour>
  </outline>
</glyph>
<glyph name="Euro" format="1">
  <advance width="695"/>
  <unicode hex="20AC"/>
  <outline>
    <contour>
      <point x="415" y="277" type="line"/>
      <point x="40" y="277" type="line"/>
      <point x="40" y="218" type="line"/>
      <point x="415" y="218" type="line"/>
    </contour>
    <contour>
      <point x="415" y="405" type="line"/>
      <point x="40" y="405" type="line"/>
      <point x="40" y="346" type="line"/>
      <point x="415" y="346" type="line"/>
    </contour>
    <contour>
      <point x="141" y="543" type="curve" smooth="yes"/>
      <point x="141" y="79" type="line" smooth="yes"/>
      <point x="141" y="26"/>
      <point x="167" y="0"/>
      <point x="220" y="0" type="curve" smooth="yes"/>
      <point x="289" y="0" type="line"/>
      <point x="289" y="59" type="line"/>
      <point x="260" y="59" type="line" smooth="yes"/>
      <point x="234" y="59"/>
      <point x="229" y="64"/>
      <point x="229" y="90" type="curve" smooth="yes"/>
      <point x="229" y="532" type="line"/>
      <point x="229" y="558"/>
      <point x="234" y="563"/>
      <point x="260" y="563" type="curve" smooth="yes"/>
      <point x="295" y="563" type="line"/>
      <point x="295" y="622" type="line"/>
      <point x="220" y="622" type="line" smooth="yes"/>
      <point x="167" y="622"/>
      <point x="141" y="596"/>
    </contour>
    <contour>
      <point x="547" y="413" type="line"/>
      <point x="635" y="413" type="line"/>
      <point x="635" y="543" type="line" smooth="yes"/>
      <point x="635" y="596"/>
      <point x="609" y="622"/>
      <point x="556" y="622" type="curve" smooth="yes"/>
      <point x="280" y="622" type="line"/>
      <point x="280" y="563" type="line"/>
      <point x="516" y="563" type="line" smooth="yes"/>
      <point x="542" y="563"/>
      <point x="547" y="558"/>
      <point x="547" y="532" type="curve" smooth="yes"/>
    </contour>
    <contour>
      <point x="547" y="90" type="line"/>
      <point x="547" y="64"/>
      <point x="542" y="59"/>
      <point x="516" y="59" type="curve" smooth="yes"/>
      <point x="280" y="59" type="line"/>
      <point x="280" y="0" type="line"/>
      <point x="556" y="0" type="line" smooth="yes"/>
      <point x="609" y="0"/>
      <point x="635" y="26"/>
      <point x="635" y="79" type="curve" smooth="yes"/>
      <point x="635" y="209" type="line"/>
      <point x="547" y="209" type="line"/>
    </contour>
  </outline>
</glyph>
<glyph name="litre" format="1">
  <advance width="518"/>
  <unicode hex="2113"/>
  <outline>
    <contour>
      <point x="344" y="578" type="line"/>
      <point x="366" y="578"/>
      <point x="405" y="576"/>
      <point x="405" y="493" type="curve" smooth="yes"/>
      <point x="405" y="273"/>
      <point x="141" y="85"/>
      <point x="15" y="0" type="curve"/>
      <point x="124" y="0" type="line"/>
      <point x="282" y="104"/>
      <point x="465" y="297"/>
      <point x="465" y="500" type="curve" smooth="yes"/>
      <point x="465" y="583"/>
      <point x="427" y="632"/>
      <point x="369" y="632" type="curve" smooth="yes"/>
      <point x="233" y="632"/>
      <point x="140" y="443"/>
      <point x="140" y="259" type="curve" smooth="yes"/>
      <point x="140" y="146"/>
      <point x="198" y="0"/>
      <point x="385" y="0" type="curve" smooth="yes"/>
      <point x="399" y="0" type="line" smooth="yes"/>
      <point x="461" y="0"/>
      <point x="471" y="0"/>
      <point x="471" y="0" type="curve"/>
      <point x="471" y="51" type="line"/>
      <point x="289" y="51"/>
      <point x="226" y="110"/>
      <point x="226" y="245" type="curve" smooth="yes"/>
      <point x="226" y="375"/>
      <point x="285" y="513"/>
      <point x="368" y="589" type="curve"/>
    </contour>
  </outline>
</glyph>
<glyph name="product" format="1">
  <advance width="755"/>
  <unicode hex="220F"/>
  <outline>
    <contour>
      <point x="172" y="95" type="line"/>
      <point x="172" y="69"/>
      <point x="167" y="64"/>
      <point x="141" y="64" type="curve" smooth="yes"/>
      <point x="40" y="64" type="line"/>
      <point x="40" y="0" type="line"/>
      <point x="179" y="0" type="line" smooth="yes"/>
      <point x="232" y="0"/>
      <point x="258" y="26"/>
      <point x="258" y="79" type="curve" smooth="yes"/>
      <point x="258" y="591" type="line"/>
      <point x="172" y="591" type="line"/>
    </contour>
    <contour>
      <point x="570" y="591" type="line"/>
      <point x="570" y="0" type="line"/>
      <point x="655" y="0" type="line"/>
      <point x="655" y="591" type="line"/>
    </contour>
    <contour>
      <point x="655" y="622" type="line"/>
      <point x="172" y="622" type="line"/>
      <point x="172" y="563" type="line"/>
      <point x="655" y="563" type="line"/>
    </contour>
  </outline>
</glyph>
<glyph name="summation" format="1">
  <advance width="661"/>
  <unicode hex="2211"/>
  <outline>
    <contour>
      <point x="575" y="665" type="line"/>
      <point x="82" y="665" type="line"/>
      <point x="82" y="606" type="line"/>
      <point x="575" y="606" type="line"/>
    </contour>
    <contour>
      <point x="575" y="-64" type="line"/>
      <point x="82" y="-64" type="line"/>
      <point x="82" y="-123" type="line"/>
      <point x="575" y="-123" type="line"/>
    </contour>
    <contour>
      <point x="287" y="305" type="line"/>
      <point x="82" y="-64" type="line"/>
      <point x="159" y="-102" type="line"/>
      <point x="373" y="270" type="line"/>
      <point x="159" y="644" type="line"/>
      <point x="82" y="606" type="line"/>
      <point x="287" y="235" type="line"/>
    </contour>
  </outline>
</glyph>
<glyph name="divisionslash" format="1">
  <advance width="400"/>
  <unicode hex="2215"/>
  <outline>
    <contour>
      <point x="390" y="699" type="line"/>
      <point x="-21" y="-136" type="line"/>
      <point x="66" y="-136" type="line"/>
      <point x="477" y="699" type="line"/>
    </contour>
  </outline>
</glyph>
<glyph name="radical" format="1">
  <advance width="833"/>
  <unicode hex="221A"/>
  <outline>
    <contour>
      <point x="208" y="440" type="line"/>
      <point x="28" y="440" type="line"/>
      <point x="28" y="381" type="line"/>
      <point x="226" y="381" type="line"/>
    </contour>
    <contour>
      <point x="731" y="938" type="line"/>
      <point x="440" y="-152" type="line"/>
      <point x="501" y="-152" type="line"/>
      <point x="792" y="938" type="line"/>
    </contour>
    <contour>
      <point x="492" y="-104" type="line"/>
      <point x="290" y="440" type="line"/>
      <point x="194" y="440" type="line"/>
      <point x="413" y="-152" type="line"/>
      <point x="476" y="-152" type="line"/>
    </contour>
  </outline>
</glyph>
<glyph name="notequal" format="1">
  <advance width="679"/>
  <unicode hex="2260"/>
  <outline>
    <contour>
      <point x="80" y="200" type="line"/>
      <point x="599" y="200" type="line"/>
      <point x="599" y="266" type="line"/>
      <point x="80" y="266" type="line"/>
    </contour>
    <contour>
      <point x="80" y="363" type="line"/>
      <point x="599" y="363" type="line"/>
      <point x="599" y="429" type="line"/>
      <point x="80" y="429" type="line"/>
    </contour>
    <contour>
      <point x="461" y="504" type="line"/>
      <point x="143" y="118" type="line"/>
      <point x="214" y="118" type="line"/>
      <point x="532" y="504" type="line"/>
    </contour>
  </outline>
</glyph>
<glyph name="commaaccent" format="1">
  <advance width="600"/>
  <unicode hex="F6C3"/>
  <outline>
    <contour>
      <point x="252" y="-50" type="line"/>
      <point x="348" y="-50" type="line"/>
      <point x="348" y="-94" type="line"/>
      <point x="284" y="-219" type="line"/>
      <point x="252" y="-219" type="line"/>
    </contour>
  </outline>
</glyph>
<glyph name="Delta.math" format="1">
  <advance width="707"/>
  <outline>
    <contour>
      <point x="316" y="702" type="line"/>
      <point x="10" y="3" type="line"/>
      <point x="118" y="3" type="line"/>
      <point x="365" y="596" type="line"/>
      <point x="355" y="702" type="line"/>
    </contour>
    <contour>
      <point x="657" y="62" type="line"/>
      <point x="93" y="62" type="line"/>
      <point x="93" y="3" type="line"/>
      <point x="657" y="3" type="line"/>
    </contour>
    <contour>
      <point x="352" y="702" type="line"/>
      <point x="342" y="596" type="line"/>
      <point x="589" y="3" type="line"/>
      <point x="697" y="3" type="line"/>
      <point x="391" y="702" type="line"/>
    </contour>
  </outline>
</glyph>
<glyph name="dvAnusvara.amI" format="1">
  <advance width="0"/>
  <outline>
    <contour>
      <point x="0" y="671" type="move" name="_abvm.i"/>
    </contour>
    <contour>
      <point x="89" y="687" type="line"/>
      <point x="180" y="687" type="line"/>
      <point x="180" y="780" type="line"/>
      <point x="89" y="780" type="line"/>
    </contour>
  </outline>
</glyph>
<glyph name="dvBH_LA" format="1">
  <advance width="1890"/>
  <outline>
    <contour>
      <point x="1353" y="193" type="line"/>
      <point x="1353" y="395" type="line" smooth="yes"/>
      <point x="1353" y="421"/>
      <point x="1358" y="426"/>
      <point x="1384" y="426" type="curve" smooth="yes"/>
      <point x="1692" y="426" type="line"/>
      <point x="1692" y="485" type="line"/>
      <point x="1357" y="485" type="line" smooth="yes"/>
      <point x="1328" y="485"/>
      <point x="1317" y="472"/>
      <point x="1311" y="452" type="curve"/>
      <point x="1307" y="452" type="line"/>
      <point x="1302" y="475"/>
      <point x="1286" y="485"/>
      <point x="1250" y="485" type="curve" smooth="yes"/>
      <point x="1002" y="485" type="line"/>
      <point x="1002" y="426" type="line"/>
      <point x="1232" y="426" type="line" smooth="yes"/>
      <point x="1258" y="426"/>
      <point x="1265" y="421"/>
      <point x="1265" y="395" type="curve" smooth="yes"/>
      <point x="1265" y="193" type="line"/>
    </contour>
    <contour>
      <point x="1006" y="485" type="line"/>
      <point x="947" y="485" type="line" smooth="yes"/>
      <point x="894" y="485"/>
      <point x="868" y="459"/>
      <point x="868" y="406" type="curve" smooth="yes"/>
      <point x="868" y="79" type="line" smooth="yes"/>
      <point x="868" y="26"/>
      <point x="894" y="0"/>
      <point x="947" y="0" type="curve" smooth="yes"/>
      <point x="1224" y="0" type="line"/>
      <point x="1224" y="59" type="line"/>
      <point x="988" y="59" type="line" smooth="yes"/>
      <point x="962" y="59"/>
      <point x="957" y="64"/>
      <point x="957" y="90" type="curve" smooth="yes"/>
      <point x="957" y="395" type="line" smooth="yes"/>
      <point x="957" y="421"/>
      <point x="962" y="426"/>
      <point x="988" y="426" type="curve" smooth="yes"/>
      <point x="1006" y="426" type="line"/>
    </contour>
    <contour>
      <point x="1661" y="0" type="line"/>
      <point x="1750" y="0" type="line"/>
      <point x="1750" y="592" type="line"/>
      <point x="1661" y="592" type="line"/>
    </contour>
    <contour>
      <point x="728" y="563" type="line"/>
      <point x="1910" y="563" type="line"/>
      <point x="1910" y="622" type="line"/>
      <point x="728" y="622" type="line"/>
    </contour>
    <component base="dvBH"/>
  </outline>
</glyph>
<glyph name="dvBH_R_YA" format="1">
  <advance width="1724"/>
  <outline>
    <contour>
      <point x="930" y="315" type="line"/>
      <point x="930" y="347" type="line" smooth="yes"/>
      <point x="930" y="400"/>
      <point x="904" y="426"/>
      <point x="851" y="426" type="curve" smooth="yes"/>
      <point x="567" y="426" type="line"/>
      <point x="567" y="367" type="line"/>
      <point x="810" y="367" type="line" smooth="yes"/>
      <point x="836" y="367"/>
      <point x="841" y="362"/>
      <point x="841" y="336" type="curve" smooth="yes"/>
      <point x="841" y="315" type="line"/>
    </contour>
    <contour>
      <point x="577" y="426" type="line"/>
      <point x="186" y="426" type="line" smooth="yes"/>
      <point x="133" y="426"/>
      <point x="107" y="401"/>
      <point x="107" y="348" type="curve" smooth="yes"/>
      <point x="107" y="208" type="line" smooth="yes"/>
      <point x="107" y="155"/>
      <point x="133" y="129"/>
      <point x="186" y="129" type="curve" smooth="yes"/>
      <point x="476" y="129" type="line"/>
      <point x="476" y="188" type="line"/>
      <point x="224" y="188" type="line" smooth="yes"/>
      <point x="198" y="188"/>
      <point x="193" y="194"/>
      <point x="193" y="219" type="curve" smooth="yes"/>
      <point x="193" y="336" type="line" smooth="yes"/>
      <point x="193" y="362"/>
      <point x="198" y="367"/>
      <point x="224" y="367" type="curve" smooth="yes"/>
      <point x="577" y="367" type="line"/>
    </contour>
    <contour>
      <point x="233" y="563" type="line"/>
      <point x="491" y="563" type="line" smooth="yes"/>
      <point x="517" y="563"/>
      <point x="522" y="558"/>
      <point x="522" y="532" type="curve" smooth="yes"/>
      <point x="522" y="219" type="line" smooth="yes"/>
      <point x="522" y="194"/>
      <point x="517" y="188"/>
      <point x="491" y="188" type="curve" smooth="yes"/>
      <point x="239" y="188" type="line"/>
      <point x="239" y="129" type="line"/>
      <point x="532" y="129" type="line" smooth="yes"/>
      <point x="585" y="129"/>
      <point x="611" y="155"/>
      <point x="611" y="208" type="curve" smooth="yes"/>
      <point x="611" y="543" type="line" smooth="yes"/>
      <point x="611" y="596"/>
      <point x="585" y="622"/>
      <point x="532" y="622" type="curve" smooth="yes"/>
      <point x="233" y="622" type="line"/>
    </contour>
    <contour>
      <point x="196" y="475" type="line"/>
      <point x="196" y="532" type="line" smooth="yes"/>
      <point x="196" y="558"/>
      <point x="201" y="563"/>
      <point x="227" y="563" type="curve" smooth="yes"/>
      <point x="483" y="563" type="line"/>
      <point x="483" y="622" type="line"/>
      <point x="186" y="622" type="line" smooth="yes"/>
      <point x="133" y="622"/>
      <point x="107" y="596"/>
      <point x="107" y="543" type="curve" smooth="yes"/>
      <point x="107" y="475" type="line"/>
    </contour>
    <contour>
      <point x="899" y="185" type="line"/>
      <point x="589" y="-87" type="line"/>
      <point x="700" y="-87" type="line"/>
      <point x="918" y="106" type="line"/>
    </contour>
    <component base="dvYA" xOffset="761"/>
  </outline>
</glyph>
<glyph name="dvBH_VA" format="1">
  <advance width="1543"/>
  <outline>
    <contour>
      <point x="898" y="369" type="line"/>
      <point x="198" y="369" type="line" smooth="yes"/>
      <point x="145" y="369"/>
      <point x="119" y="344"/>
      <point x="119" y="291" type="curve" smooth="yes"/>
      <point x="119" y="157" type="line" smooth="yes"/>
      <point x="119" y="104"/>
      <point x="145" y="78"/>
      <point x="198" y="78" type="curve" smooth="yes"/>
      <point x="488" y="78" type="line"/>
      <point x="488" y="136" type="line"/>
      <point x="236" y="136" type="line" smooth="yes"/>
      <point x="210" y="136"/>
      <point x="205" y="142"/>
      <point x="205" y="167" type="curve" smooth="yes"/>
      <point x="205" y="279" type="line" smooth="yes"/>
      <point x="205" y="305"/>
      <point x="210" y="310"/>
      <point x="236" y="310" type="curve" smooth="yes"/>
      <point x="898" y="310" type="line"/>
    </contour>
    <contour>
      <point x="245" y="563" type="line"/>
      <point x="503" y="563" type="line" smooth="yes"/>
      <point x="529" y="563"/>
      <point x="534" y="558"/>
      <point x="534" y="532" type="curve" smooth="yes"/>
      <point x="534" y="167" type="line" smooth="yes"/>
      <point x="534" y="142"/>
      <point x="529" y="136"/>
      <point x="503" y="136" type="curve" smooth="yes"/>
      <point x="251" y="136" type="line"/>
      <point x="251" y="78" type="line"/>
      <point x="544" y="78" type="line" smooth="yes"/>
      <point x="597" y="78"/>
      <point x="623" y="104"/>
      <point x="623" y="157" type="curve" smooth="yes"/>
      <point x="623" y="543" type="line" smooth="yes"/>
      <point x="623" y="596"/>
      <point x="597" y="622"/>
      <point x="544" y="622" type="curve" smooth="yes"/>
      <point x="245" y="622" type="line"/>
    </contour>
    <contour>
      <point x="208" y="446" type="line"/>
      <point x="208" y="532" type="line" smooth="yes"/>
      <point x="208" y="558"/>
      <point x="213" y="563"/>
      <point x="239" y="563" type="curve" smooth="yes"/>
      <point x="495" y="563" type="line"/>
      <point x="495" y="622" type="line"/>
      <point x="198" y="622" type="line" smooth="yes"/>
      <point x="145" y="622"/>
      <point x="119" y="596"/>
      <point x="119" y="543" type="curve" smooth="yes"/>
      <point x="119" y="446" type="line"/>
    </contour>
    <contour>
      <point x="1315" y="0" type="line"/>
      <point x="1403" y="0" type="line"/>
      <point x="1403" y="601" type="line"/>
      <point x="1315" y="601" type="line"/>
    </contour>
    <contour>
      <point x="732" y="563" type="line"/>
      <point x="1563" y="563" type="line"/>
      <point x="1563" y="622" type="line"/>
      <point x="732" y="622" type="line"/>
    </contour>
    <contour>
      <point x="1265" y="485" type="line"/>
      <point x="959" y="485" type="line" smooth="yes"/>
      <point x="906" y="485"/>
      <point x="880" y="459"/>
      <point x="880" y="406" type="curve" smooth="yes"/>
      <point x="880" y="157" type="line" smooth="yes"/>
      <point x="880" y="104"/>
      <point x="906" y="78"/>
      <point x="959" y="78" type="curve" smooth="yes"/>
      <point x="1129" y="78" type="line"/>
      <point x="1129" y="137" type="line"/>
      <point x="1000" y="137" type="line" smooth="yes"/>
      <point x="974" y="137"/>
      <point x="969" y="142"/>
      <point x="969" y="168" type="curve" smooth="yes"/>
      <point x="969" y="395" type="line" smooth="yes"/>
      <point x="969" y="421"/>
      <point x="974" y="426"/>
      <point x="1000" y="426" type="curve" smooth="yes"/>
      <point x="1265" y="426" type="line"/>
    </contour>
    <contour>
      <point x="1117" y="78" type="line"/>
      <point x="1283" y="78" type="line" smooth="yes"/>
      <point x="1313" y="78"/>
      <point x="1326" y="89"/>
      <point x="1326" y="125" type="curve"/>
      <point x="1315" y="171" type="line"/>
      <point x="1315" y="145"/>
      <point x="1307" y="137"/>
      <point x="1281" y="137" type="curve" smooth="yes"/>
      <point x="1117" y="137" type="line"/>
    </contour>
  </outline>
</glyph>
<glyph name="dvB" format="1">
  <advance width="475"/>
  <outline>
    <contour>
      <point x="635" y="174" type="line"/>
      <point x="217" y="426" type="line"/>
      <point x="562" y="426" type="line"/>
      <point x="562" y="485" type="line"/>
      <point x="179" y="485" type="line" smooth="yes"/>
      <point x="126" y="485"/>
      <point x="100" y="459"/>
      <point x="100" y="406" type="curve" smooth="yes"/>
      <point x="100" y="157" type="line" smooth="yes"/>
      <point x="100" y="104"/>
      <point x="126" y="78"/>
      <point x="179" y="78" type="curve" smooth="yes"/>
      <point x="635" y="78" type="line"/>
      <point x="635" y="137" type="line"/>
      <point x="217" y="137" type="line" smooth="yes"/>
      <point x="191" y="137"/>
      <point x="186" y="143"/>
      <point x="186" y="168" type="curve" smooth="yes"/>
      <point x="186" y="290" type="line" smooth="yes"/>
      <point x="186" y="331"/>
      <point x="183" y="392"/>
      <point x="183" y="392" type="curve"/>
      <point x="635" y="120" type="line"/>
    </contour>
    <contour>
      <point x="-20" y="563" type="line"/>
      <point x="562" y="563" type="line"/>
      <point x="562" y="622" type="line"/>
      <point x="-20" y="622" type="line"/>
    </contour>
  </outline>
</glyph>
<glyph name="dvB_BH_RA" format="1">
  <advance width="1557"/>
  <outline>
    <contour>
      <point x="-20" y="563" type="line"/>
      <point x="373" y="563" type="line"/>
      <point x="373" y="622" type="line"/>
      <point x="-20" y="622" type="line"/>
    </contour>
    <contour>
      <point x="1373" y="369" type="line"/>
      <point x="673" y="369" type="line" smooth="yes"/>
      <point x="620" y="369"/>
      <point x="594" y="344"/>
      <point x="594" y="291" type="curve" smooth="yes"/>
      <point x="594" y="157" type="line" smooth="yes"/>
      <point x="594" y="104"/>
      <point x="620" y="78"/>
      <point x="673" y="78" type="curve" smooth="yes"/>
      <point x="963" y="78" type="line"/>
      <point x="963" y="136" type="line"/>
      <point x="711" y="136" type="line" smooth="yes"/>
      <point x="685" y="136"/>
      <point x="680" y="142"/>
      <point x="680" y="167" type="curve" smooth="yes"/>
      <point x="680" y="279" type="line" smooth="yes"/>
      <point x="680" y="305"/>
      <point x="685" y="310"/>
      <point x="711" y="310" type="curve" smooth="yes"/>
      <point x="1373" y="310" type="line"/>
    </contour>
    <contour>
      <point x="720" y="563" type="line"/>
      <point x="978" y="563" type="line" smooth="yes"/>
      <point x="1004" y="563"/>
      <point x="1009" y="558"/>
      <point x="1009" y="532" type="curve" smooth="yes"/>
      <point x="1009" y="167" type="line" smooth="yes"/>
      <point x="1009" y="142"/>
      <point x="1004" y="136"/>
      <point x="978" y="136" type="curve" smooth="yes"/>
      <point x="726" y="136" type="line"/>
      <point x="726" y="78" type="line"/>
      <point x="1019" y="78" type="line" smooth="yes"/>
      <point x="1072" y="78"/>
      <point x="1098" y="104"/>
      <point x="1098" y="157" type="curve" smooth="yes"/>
      <point x="1098" y="543" type="line" smooth="yes"/>
      <point x="1098" y="596"/>
      <point x="1072" y="622"/>
      <point x="1019" y="622" type="curve" smooth="yes"/>
      <point x="720" y="622" type="line"/>
    </contour>
    <contour>
      <point x="1328" y="563" type="line"/>
      <point x="1577" y="563" type="line"/>
      <point x="1577" y="622" type="line"/>
      <point x="1328" y="622" type="line"/>
    </contour>
    <contour>
      <point x="683" y="446" type="line"/>
      <point x="683" y="532" type="line" smooth="yes"/>
      <point x="683" y="558"/>
      <point x="688" y="563"/>
      <point x="714" y="563" type="curve" smooth="yes"/>
      <point x="970" y="563" type="line"/>
      <point x="970" y="622" type="line"/>
      <point x="673" y="622" type="line" smooth="yes"/>
      <point x="620" y="622"/>
      <point x="594" y="596"/>
      <point x="594" y="543" type="curve" smooth="yes"/>
      <point x="594" y="446" type="line"/>
    </contour>
    <contour>
      <point x="1329" y="-12" type="line"/>
      <point x="1417" y="-12" type="line"/>
      <point x="1417" y="591" type="line"/>
      <point x="1328" y="591" type="line"/>
      <point x="1328" y="209" type="line"/>
      <point x="1046" y="-57" type="line"/>
      <point x="1157" y="-57" type="line"/>
      <point x="1333" y="118" type="line"/>
      <point x="1333" y="118"/>
      <point x="1329" y="64"/>
      <point x="1329" y="16" type="curve" smooth="yes"/>
    </contour>
    <contour>
      <point x="633" y="170" type="line"/>
      <point x="594" y="170" type="line"/>
      <point x="594" y="146"/>
      <point x="586" y="137"/>
      <point x="560" y="137" type="curve" smooth="yes"/>
      <point x="438" y="137" type="line"/>
      <point x="438" y="78" type="line"/>
      <point x="564" y="78" type="line" smooth="yes"/>
      <point x="617" y="78"/>
      <point x="633" y="101"/>
      <point x="633" y="149" type="curve" smooth="yes"/>
    </contour>
    <contour>
      <point x="605" y="184" type="line"/>
      <point x="217" y="426" type="line"/>
      <point x="542" y="426" type="line"/>
      <point x="542" y="485" type="line"/>
      <point x="179" y="485" type="line" smooth="yes"/>
      <point x="126" y="485"/>
      <point x="100" y="459"/>
      <point x="100" y="406" type="curve" smooth="yes"/>
      <point x="100" y="157" type="line" smooth="yes"/>
      <point x="100" y="104"/>
      <point x="126" y="78"/>
      <point x="179" y="78" type="curve" smooth="yes"/>
      <point x="515" y="78" type="line"/>
      <point x="515" y="137" type="line"/>
      <point x="217" y="137" type="line" smooth="yes"/>
      <point x="191" y="137"/>
      <point x="186" y="143"/>
      <point x="186" y="168" type="curve" smooth="yes"/>
      <point x="186" y="284" type="line" smooth="yes"/>
      <point x="186" y="325"/>
      <point x="183" y="386"/>
      <point x="183" y="386" type="curve"/>
      <point x="605" y="124" type="line"/>
    </contour>
  </outline>
</glyph>
<glyph name="dvB_DH_VA" format="1">
  <advance width="1921"/>
  <outline>
    <contour>
      <point x="-20" y="563" type="line"/>
      <point x="486" y="563" type="line"/>
      <point x="486" y="622" type="line"/>
      <point x="-20" y="622" type="line"/>
    </contour>
    <contour>
      <point x="1297" y="170" type="line"/>
      <point x="1258" y="170" type="line"/>
      <point x="1258" y="146"/>
      <point x="1250" y="137"/>
      <point x="1224" y="137" type="curve" smooth="yes"/>
      <point x="1131" y="137" type="line"/>
      <point x="1131" y="78" type="line"/>
      <point x="1228" y="78" type="line" smooth="yes"/>
      <point x="1281" y="78"/>
      <point x="1297" y="101"/>
      <point x="1297" y="149" type="curve" smooth="yes"/>
    </contour>
    <contour>
      <point x="822" y="622" type="line"/>
      <point x="674" y="622" type="line" smooth="yes"/>
      <point x="621" y="622"/>
      <point x="595" y="596"/>
      <point x="595" y="543" type="curve" smooth="yes"/>
      <point x="595" y="377" type="line" smooth="yes"/>
      <point x="595" y="346"/>
      <point x="610" y="330"/>
      <point x="636" y="328" type="curve"/>
      <point x="636" y="324" type="line"/>
      <point x="610" y="322"/>
      <point x="595" y="308"/>
      <point x="595" y="276" type="curve" smooth="yes"/>
      <point x="595" y="157" type="line" smooth="yes"/>
      <point x="595" y="104"/>
      <point x="621" y="78"/>
      <point x="674" y="78" type="curve" smooth="yes"/>
      <point x="1141" y="78" type="line"/>
      <point x="1141" y="137" type="line"/>
      <point x="715" y="137" type="line" smooth="yes"/>
      <point x="689" y="137"/>
      <point x="684" y="142"/>
      <point x="684" y="168" type="curve" smooth="yes"/>
      <point x="684" y="269" type="line" smooth="yes"/>
      <point x="684" y="295"/>
      <point x="689" y="300"/>
      <point x="715" y="300" type="curve" smooth="yes"/>
      <point x="873" y="300" type="line"/>
      <point x="873" y="359" type="line"/>
      <point x="715" y="359" type="line" smooth="yes"/>
      <point x="689" y="359"/>
      <point x="684" y="364"/>
      <point x="684" y="390" type="curve" smooth="yes"/>
      <point x="684" y="532" type="line" smooth="yes"/>
      <point x="684" y="558"/>
      <point x="689" y="563"/>
      <point x="715" y="563" type="curve" smooth="yes"/>
      <point x="822" y="563" type="line"/>
    </contour>
    <contour>
      <point x="820" y="563" type="line"/>
      <point x="974" y="563" type="line" smooth="yes"/>
      <point x="1000" y="563"/>
      <point x="1005" y="558"/>
      <point x="1005" y="532" type="curve" smooth="yes"/>
      <point x="1005" y="426" type="line"/>
      <point x="1086" y="426" type="line"/>
      <point x="1086" y="543" type="line" smooth="yes"/>
      <point x="1086" y="596"/>
      <point x="1061" y="622"/>
      <point x="1008" y="622" type="curve" smooth="yes"/>
      <point x="820" y="622" type="line"/>
    </contour>
    <contour>
      <point x="1693" y="0" type="line"/>
      <point x="1781" y="0" type="line"/>
      <point x="1781" y="601" type="line"/>
      <point x="1693" y="601" type="line"/>
    </contour>
    <contour>
      <point x="1193" y="563" type="line"/>
      <point x="1941" y="563" type="line"/>
      <point x="1941" y="622" type="line"/>
      <point x="1193" y="622" type="line"/>
    </contour>
    <contour>
      <point x="1643" y="485" type="line"/>
      <point x="1337" y="485" type="line" smooth="yes"/>
      <point x="1284" y="485"/>
      <point x="1258" y="459"/>
      <point x="1258" y="406" type="curve" smooth="yes"/>
      <point x="1258" y="157" type="line" smooth="yes"/>
      <point x="1258" y="104"/>
      <point x="1284" y="78"/>
      <point x="1337" y="78" type="curve" smooth="yes"/>
      <point x="1507" y="78" type="line"/>
      <point x="1507" y="137" type="line"/>
      <point x="1378" y="137" type="line" smooth="yes"/>
      <point x="1352" y="137"/>
      <point x="1347" y="142"/>
      <point x="1347" y="168" type="curve" smooth="yes"/>
      <point x="1347" y="395" type="line" smooth="yes"/>
      <point x="1347" y="421"/>
      <point x="1352" y="426"/>
      <point x="1378" y="426" type="curve" smooth="yes"/>
      <point x="1643" y="426" type="line"/>
    </contour>
    <contour>
      <point x="1495" y="78" type="line"/>
      <point x="1661" y="78" type="line" smooth="yes"/>
      <point x="1691" y="78"/>
      <point x="1704" y="89"/>
      <point x="1704" y="125" type="curve"/>
      <point x="1693" y="171" type="line"/>
      <point x="1693" y="145"/>
      <point x="1685" y="137"/>
      <point x="1659" y="137" type="curve" smooth="yes"/>
      <point x="1495" y="137" type="line"/>
    </contour>
    <contour>
      <point x="633" y="170" type="line"/>
      <point x="594" y="170" type="line"/>
      <point x="594" y="146"/>
      <point x="586" y="137"/>
      <point x="560" y="137" type="curve" smooth="yes"/>
      <point x="438" y="137" type="line"/>
      <point x="438" y="78" type="line"/>
      <point x="564" y="78" type="line" smooth="yes"/>
      <point x="617" y="78"/>
      <point x="633" y="101"/>
      <point x="633" y="149" type="curve" smooth="yes"/>
    </contour>
    <contour>
      <point x="605" y="184" type="line"/>
      <point x="217" y="426" type="line"/>
      <point x="542" y="426" type="line"/>
      <point x="542" y="485" type="line"/>
      <point x="179" y="485" type="line" smooth="yes"/>
      <point x="126" y="485"/>
      <point x="100" y="459"/>
      <point x="100" y="406" type="curve" smooth="yes"/>
      <point x="100" y="157" type="line" smooth="yes"/>
      <point x="100" y="104"/>
      <point x="126" y="78"/>
      <point x="179" y="78" type="curve" smooth="yes"/>
      <point x="515" y="78" type="line"/>
      <point x="515" y="137" type="line"/>
      <point x="217" y="137" type="line" smooth="yes"/>
      <point x="191" y="137"/>
      <point x="186" y="143"/>
      <point x="186" y="168" type="curve" smooth="yes"/>
      <point x="186" y="284" type="line" smooth="yes"/>
      <point x="186" y="325"/>
      <point x="183" y="386"/>
      <point x="183" y="386" type="curve"/>
      <point x="605" y="124" type="line"/>
    </contour>
  </outline>
</glyph>
<glyph name="dvB_J_YA" format="1">
  <advance width="2209"/>
  <outline>
    <contour>
      <point x="633" y="170" type="line"/>
      <point x="594" y="170" type="line"/>
      <point x="594" y="146"/>
      <point x="586" y="137"/>
      <point x="560" y="137" type="curve" smooth="yes"/>
      <point x="438" y="137" type="line"/>
      <point x="438" y="78" type="line"/>
      <point x="564" y="78" type="line" smooth="yes"/>
      <point x="617" y="78"/>
      <point x="633" y="101"/>
      <point x="633" y="149" type="curve" smooth="yes"/>
    </contour>
    <contour>
      <point x="605" y="184" type="line"/>
      <point x="217" y="426" type="line"/>
      <point x="542" y="426" type="line"/>
      <point x="542" y="485" type="line"/>
      <point x="179" y="485" type="line" smooth="yes"/>
      <point x="126" y="485"/>
      <point x="100" y="459"/>
      <point x="100" y="406" type="curve" smooth="yes"/>
      <point x="100" y="157" type="line" smooth="yes"/>
      <point x="100" y="104"/>
      <point x="126" y="78"/>
      <point x="179" y="78" type="curve" smooth="yes"/>
      <point x="515" y="78" type="line"/>
      <point x="515" y="137" type="line"/>
      <point x="217" y="137" type="line" smooth="yes"/>
      <point x="191" y="137"/>
      <point x="186" y="143"/>
      <point x="186" y="168" type="curve" smooth="yes"/>
      <point x="186" y="284" type="line" smooth="yes"/>
      <point x="186" y="325"/>
      <point x="183" y="386"/>
      <point x="183" y="386" type="curve"/>
      <point x="605" y="124" type="line"/>
    </contour>
    <contour>
      <point x="-20" y="563" type="line"/>
      <point x="542" y="563" type="line"/>
      <point x="542" y="622" type="line"/>
      <point x="-20" y="622" type="line"/>
    </contour>
    <contour>
      <point x="454" y="563" type="line"/>
      <point x="1345" y="563" type="line"/>
      <point x="1345" y="622" type="line"/>
      <point x="454" y="622" type="line"/>
    </contour>
    <contour>
      <point x="1345" y="485" type="line"/>
      <point x="1053" y="485" type="line"/>
      <point x="1053" y="426" type="line"/>
      <point x="1345" y="426" type="line"/>
    </contour>
    <contour>
      <point x="1002" y="485" type="line"/>
      <point x="1002" y="168" type="line" smooth="yes"/>
      <point x="1002" y="142"/>
      <point x="997" y="137"/>
      <point x="971" y="137" type="curve" smooth="yes"/>
      <point x="724" y="137" type="line"/>
      <point x="724" y="78" type="line"/>
      <point x="1011" y="78" type="line" smooth="yes"/>
      <point x="1064" y="78"/>
      <point x="1090" y="104"/>
      <point x="1090" y="157" type="curve" smooth="yes"/>
      <point x="1090" y="485" type="line"/>
    </contour>
    <contour>
      <point x="594" y="485" type="line"/>
      <point x="594" y="157" type="line" smooth="yes"/>
      <point x="594" y="104"/>
      <point x="620" y="78"/>
      <point x="673" y="78" type="curve" smooth="yes"/>
      <point x="960" y="78" type="line"/>
      <point x="960" y="137" type="line"/>
      <point x="713" y="137" type="line" smooth="yes"/>
      <point x="687" y="137"/>
      <point x="682" y="142"/>
      <point x="682" y="168" type="curve" smooth="yes"/>
      <point x="682" y="485" type="line"/>
    </contour>
    <contour>
      <point x="1981" y="591" type="line"/>
      <point x="1981" y="0" type="line"/>
      <point x="2069" y="0" type="line"/>
      <point x="2069" y="591" type="line"/>
    </contour>
    <contour>
      <point x="1530" y="78" type="line"/>
      <point x="1944" y="78" type="line" smooth="yes"/>
      <point x="1974" y="78"/>
      <point x="1988" y="89"/>
      <point x="1988" y="125" type="curve"/>
      <point x="1981" y="176" type="line"/>
      <point x="1981" y="147"/>
      <point x="1970" y="137"/>
      <point x="1940" y="137" type="curve" smooth="yes"/>
      <point x="1530" y="137" type="line"/>
    </contour>
    <contour>
      <point x="1544" y="137" type="line"/>
      <point x="1466" y="137" type="line" smooth="yes"/>
      <point x="1440" y="137"/>
      <point x="1435" y="142"/>
      <point x="1435" y="168" type="curve" smooth="yes"/>
      <point x="1435" y="368" type="line"/>
      <point x="1346" y="368" type="line"/>
      <point x="1346" y="157" type="line" smooth="yes"/>
      <point x="1346" y="104"/>
      <point x="1372" y="78"/>
      <point x="1425" y="78" type="curve" smooth="yes"/>
      <point x="1544" y="78" type="line"/>
    </contour>
    <contour>
      <point x="1406" y="309" type="line"/>
      <point x="1682" y="309" type="line" smooth="yes"/>
      <point x="1735" y="309"/>
      <point x="1761" y="335"/>
      <point x="1761" y="388" type="curve" smooth="yes"/>
      <point x="1761" y="437" type="line"/>
      <point x="1672" y="437" type="line"/>
      <point x="1672" y="400" type="line" smooth="yes"/>
      <point x="1672" y="374"/>
      <point x="1667" y="368"/>
      <point x="1641" y="368" type="curve" smooth="yes"/>
      <point x="1406" y="368" type="line"/>
    </contour>
    <contour>
      <point x="1761" y="432" type="line"/>
      <point x="1761" y="536" type="line" smooth="yes"/>
      <point x="1761" y="564"/>
      <point x="1747" y="570"/>
      <point x="1724" y="570" type="curve"/>
      <point x="1724" y="563" type="line"/>
      <point x="2229" y="563" type="line"/>
      <point x="2229" y="622" type="line"/>
      <point x="1246" y="622" type="line"/>
      <point x="1246" y="563" type="line"/>
      <point x="1641" y="563" type="line" smooth="yes"/>
      <point x="1667" y="563"/>
      <point x="1672" y="558"/>
      <point x="1672" y="532" type="curve" smooth="yes"/>
      <point x="1672" y="432" type="line"/>
    </contour>
  </outline>
</glyph>
<glyph name="dvB_L_YA" format="1">
  <advance width="2261"/>
  <outline>
    <contour>
      <point x="-20" y="563" type="line"/>
      <point x="542" y="563" type="line"/>
      <point x="542" y="622" type="line"/>
      <point x="-20" y="622" type="line"/>
    </contour>
    <contour>
      <point x="1079" y="193" type="line"/>
      <point x="1079" y="395" type="line" smooth="yes"/>
      <point x="1079" y="421"/>
      <point x="1084" y="426"/>
      <point x="1110" y="426" type="curve" smooth="yes"/>
      <point x="1378" y="426" type="line"/>
      <point x="1378" y="485" type="line"/>
      <point x="1083" y="485" type="line" smooth="yes"/>
      <point x="1054" y="485"/>
      <point x="1043" y="472"/>
      <point x="1037" y="452" type="curve"/>
      <point x="1033" y="452" type="line"/>
      <point x="1028" y="475"/>
      <point x="1012" y="485"/>
      <point x="976" y="485" type="curve" smooth="yes"/>
      <point x="728" y="485" type="line"/>
      <point x="728" y="426" type="line"/>
      <point x="958" y="426" type="line" smooth="yes"/>
      <point x="984" y="426"/>
      <point x="991" y="421"/>
      <point x="991" y="395" type="curve" smooth="yes"/>
      <point x="991" y="193" type="line"/>
    </contour>
    <contour>
      <point x="732" y="485" type="line"/>
      <point x="673" y="485" type="line" smooth="yes"/>
      <point x="620" y="485"/>
      <point x="594" y="459"/>
      <point x="594" y="406" type="curve" smooth="yes"/>
      <point x="594" y="79" type="line" smooth="yes"/>
      <point x="594" y="26"/>
      <point x="620" y="0"/>
      <point x="673" y="0" type="curve" smooth="yes"/>
      <point x="950" y="0" type="line"/>
      <point x="950" y="59" type="line"/>
      <point x="714" y="59" type="line" smooth="yes"/>
      <point x="688" y="59"/>
      <point x="683" y="64"/>
      <point x="683" y="90" type="curve" smooth="yes"/>
      <point x="683" y="395" type="line" smooth="yes"/>
      <point x="683" y="421"/>
      <point x="688" y="426"/>
      <point x="714" y="426" type="curve" smooth="yes"/>
      <point x="732" y="426" type="line"/>
    </contour>
    <contour>
      <point x="454" y="563" type="line"/>
      <point x="1379" y="563" type="line"/>
      <point x="1379" y="622" type="line"/>
      <point x="454" y="622" type="line"/>
    </contour>
    <contour>
      <point x="633" y="170" type="line"/>
      <point x="594" y="170" type="line"/>
      <point x="594" y="146"/>
      <point x="586" y="137"/>
      <point x="560" y="137" type="curve" smooth="yes"/>
      <point x="438" y="137" type="line"/>
      <point x="438" y="78" type="line"/>
      <point x="564" y="78" type="line" smooth="yes"/>
      <point x="617" y="78"/>
      <point x="633" y="101"/>
      <point x="633" y="149" type="curve" smooth="yes"/>
    </contour>
    <contour>
      <point x="605" y="184" type="line"/>
      <point x="217" y="426" type="line"/>
      <point x="542" y="426" type="line"/>
      <point x="542" y="485" type="line"/>
      <point x="179" y="485" type="line" smooth="yes"/>
      <point x="126" y="485"/>
      <point x="100" y="459"/>
      <point x="100" y="406" type="curve" smooth="yes"/>
      <point x="100" y="157" type="line" smooth="yes"/>
      <point x="100" y="104"/>
      <point x="126" y="78"/>
      <point x="179" y="78" type="curve" smooth="yes"/>
      <point x="515" y="78" type="line"/>
      <point x="515" y="137" type="line"/>
      <point x="217" y="137" type="line" smooth="yes"/>
      <point x="191" y="137"/>
      <point x="186" y="143"/>
      <point x="186" y="168" type="curve" smooth="yes"/>
      <point x="186" y="284" type="line" smooth="yes"/>
      <point x="186" y="325"/>
      <point x="183" y="386"/>
      <point x="183" y="386" type="curve"/>
      <point x="605" y="124" type="line"/>
    </contour>
    <component base="dvYA" xOffset="1298"/>
  </outline>
</glyph>
